<?xml version="1.0" encoding="UTF-8" standalone="no"?>
<svg
   xmlns:dc="http://purl.org/dc/elements/1.1/"
   xmlns:cc="http://creativecommons.org/ns#"
   xmlns:rdf="http://www.w3.org/1999/02/22-rdf-syntax-ns#"
   xmlns:svg="http://www.w3.org/2000/svg"
   xmlns="http://www.w3.org/2000/svg"
   xmlns:sodipodi="http://sodipodi.sourceforge.net/DTD/sodipodi-0.dtd"
   xmlns:inkscape="http://www.inkscape.org/namespaces/inkscape"
   width="960"
   height="700"
   viewBox="0 0 253.99999 185.20834"
   version="1.1"
   id="svg3179"
   inkscape:version="1.0.2 (e86c870879, 2021-01-15)"
   sodipodi:docname="Degital_marketing_SVG_3.svg">
  <defs
     id="defs3173">
    <style
       id="style1208">.cls-1,.cls-3{fill:#d6d8e5;}.cls-1{opacity:0.4;}.cls-2{fill:#b1b4c4;}.cls-4{fill:#9ea1af;}.cls-5{fill:#c4c7d6;}.cls-6{fill:#e4e7f2;}.cls-7{fill:#fff;}.cls-8{fill:#ffcea9;}.cls-9{fill:#ededed;}.cls-10{fill:#38226d;}.cls-11{fill:#9c73ff;}.cls-12{fill:#8c50ff;}.cls-13{fill:#f4f4f4;}.cls-14{fill:#3a2c6d;}.cls-15{fill:#fca70d;}.cls-16{fill:#e9eaf2;}.cls-17{fill:#e28c10;}.cls-18{fill:#ef990f;}.cls-19{fill:#7c5522;}</style>
  </defs>
  <sodipodi:namedview
     id="base"
     pagecolor="#ffffff"
     bordercolor="#666666"
     borderopacity="1.0"
     inkscape:pageopacity="0.0"
     inkscape:pageshadow="2"
     inkscape:zoom="1"
     inkscape:cx="248.92857"
     inkscape:cy="226.00893"
     inkscape:document-units="mm"
     inkscape:current-layer="Слой_1-2"
     inkscape:document-rotation="0"
     showgrid="false"
     units="px"
     inkscape:window-width="904"
     inkscape:window-height="695"
     inkscape:window-x="19"
     inkscape:window-y="13"
     inkscape:window-maximized="0" />
  <metadata
     id="metadata3176">
    <rdf:RDF>
      <cc:Work
         rdf:about="">
        <dc:format>image/svg+xml</dc:format>
        <dc:type
           rdf:resource="http://purl.org/dc/dcmitype/StillImage" />
        <dc:title></dc:title>
      </cc:Work>
    </rdf:RDF>
  </metadata>
  <g
     inkscape:label="Layer 1"
     inkscape:groupmode="layer"
     id="layer1">
    <g
       id="Слой_1-2"
       data-name="Слой 1"
       transform="matrix(0.30717084,0,0,0.30717084,53.18577,15.415066)"
       style="stroke-width:0.861356">
      <g
         id="monitor"
         style="stroke-width:0.861356">
        <path
           class="cls-1"
           d="m 297,395.44 -60,-34.65 c -4.33,-2.5 -3.78,-6.86 1.21,-9.75 l 38.89,-22.45 75.69,43.7 -38.89,22.45 c -5,2.89 -12.56,3.2 -16.9,0.7 z"
           id="path1214"
           style="stroke-width:0.861356" />
        <path
           class="cls-2"
           d="m 301.4,392.87 -60,-34.66 c -4.32,-2.5 -3.78,-6.86 1.22,-9.75 l 38.85,-22.46 75.69,43.7 -38.88,22.46 c -5,2.89 -12.56,3.2 -16.88,0.71 z"
           id="path1216"
           style="stroke-width:0.861356" />
        <polygon
           class="cls-2"
           points="357.17,369.71 357.17,367.42 353.67,369.44 "
           id="polygon1218"
           style="stroke-width:0.861356" />
        <polygon
           class="cls-2"
           points="238.45,354.08 238.45,351.75 242.04,353.24 "
           id="polygon1220"
           style="stroke-width:0.861356" />
        <path
           class="cls-3"
           d="m 301.4,390.57 -60,-34.65 c -4.32,-2.5 -3.78,-6.86 1.22,-9.75 l 38.88,-22.45 75.69,43.7 -38.88,22.45 c -5.03,2.89 -12.59,3.2 -16.91,0.7 z"
           id="path1222"
           style="stroke-width:0.861356" />
        <polygon
           class="cls-4"
           points="272.31,292.74 348.83,336.63 357.17,367.42 281.67,323.82 "
           id="polygon1224"
           style="stroke-width:0.861356" />
        <path
           class="cls-4"
           d="m 355,368.7 2.21,-1.28 -3.29,-2.63 z"
           id="path1226"
           style="stroke-width:0.861356" />
        <polygon
           class="cls-2"
           points="269.89,293.91 346.42,337.8 354.95,368.7 279.26,324.99 "
           id="polygon1228"
           style="stroke-width:0.861356" />
        <path
           class="cls-5"
           d="m 473.51,421.08 -296.2,-171 c -4.15,-2.4 -7.52,-8.84 -7.52,-14.38 V 6.59 c 0,-5.54 3.37,-8.09 7.52,-5.69 l 296.2,171 c 4.15,2.4 7.52,8.83 7.52,14.37 V 415.4 c -0.03,5.54 -3.37,8.08 -7.52,5.68 z"
           id="path1230"
           style="stroke-width:0.861356" />
        <polygon
           class="cls-5"
           points="475.03,423.45 478.31,421.55 476.89,411.82 "
           id="polygon1232"
           style="stroke-width:0.861356" />
        <path
           class="cls-2"
           d="m 169.26,2.31 3.23,-1.86 4.64,2.65 c 0,0 -4.94,0.75 -5.06,0.72 -0.12,-0.03 -2.81,-1.51 -2.81,-1.51 z"
           id="path1234"
           style="stroke-width:0.861356" />
        <path
           class="cls-6"
           d="m 470.79,422.65 -296.19,-171 c -4.16,-2.39 -7.52,-8.83 -7.52,-14.37 V 8.16 c 0,-5.54 3.36,-8.09 7.52,-5.69 l 296.19,171 c 4.16,2.4 7.52,8.83 7.52,14.37 V 417 c 0,5.5 -3.31,8.05 -7.52,5.65 z"
           id="path1236"
           style="stroke-width:0.861356" />
        <path
           class="cls-3"
           d="M 470.27,423 174.08,252 c -4.16,-2.4 -7.53,-8.83 -7.53,-14.37 V 8.46 c 0,-5.54 3.37,-8.09 7.53,-5.69 l 296.19,171 c 4.15,2.39 7.52,8.83 7.52,14.37 v 229.12 c 0,5.54 -3.37,8.09 -7.52,5.74 z"
           id="path1238"
           style="stroke-width:0.861356" />
        <path
           class="cls-7"
           d="M 473.72,409 170.32,233.85 170.47,9.37 c 0,-2.29 1.62,-3.23 3.61,-2.08 l 296.19,171 a 8,8 0 0 1 3.6,6.24 z"
           id="path1240"
           style="stroke-width:0.861356" />
      </g>
      <ellipse
         class="cls-1"
         cx="381.10001"
         cy="481.26001"
         rx="23.290001"
         ry="13.44"
         id="ellipse1243"
         style="stroke-width:0.861356" />
      <ellipse
         class="cls-1"
         cx="104.02"
         cy="486.56"
         rx="23.290001"
         ry="13.44"
         id="ellipse1245"
         style="stroke-width:0.861356" />
      <ellipse
         class="cls-1"
         cx="23.290001"
         cy="364.59"
         rx="23.290001"
         ry="13.44"
         id="ellipse1247"
         style="stroke-width:0.861356" />
      <g
         id="Men_4"
         style="stroke-width:0.861356">
        <path
           class="cls-8"
           d="m 87.7,396.64 c 0,0 0.66,9.88 2,11.29 1.34,1.41 5.67,2.4 5.67,2.4 l 3.38,5.55 c 0,0 -3.13,-17.66 -3.75,-18.08 -0.62,-0.42 -7.3,-1.16 -7.3,-1.16 z"
           id="path1249"
           style="stroke-width:0.861356" />
        <path
           id="_Контур_"
           data-name="&lt;Контур&gt;"
           class="cls-9"
           d="m 94.19,385.67 a 3.69,3.69 0 0 0 -4.7,1.42 c -1.24,2.06 -2.53,9.11 -2.65,10.32 0,0 1.74,2.41 4.36,2 z"
           style="stroke-width:0.861356" />
        <path
           class="cls-10"
           d="m 104.19,484.24 a 7.28,7.28 0 0 0 5.46,-0.66 c 1.32,0 8.46,-3 9.43,-0.45 0.85,2.25 -2.24,4.33 -3.89,4.73 -3.61,0.87 -6.28,2.67 -7.73,3 -1.08,0.22 -2.48,0.37 -3.34,-0.48 -1.03,-1.03 -0.94,-4.8 0.07,-6.14 z"
           id="path1252"
           style="stroke-width:0.861356" />
        <path
           class="cls-11"
           d="m 107.46,490.21 c 1.45,-0.3 4.12,-2.1 7.73,-3 1.38,-0.33 3.77,-1.85 4,-3.65 0.32,2.07 -2.47,3.9 -4,4.28 -3.61,0.87 -6.28,2.67 -7.73,3 -1.08,0.22 -2.48,0.37 -3.34,-0.48 a 2.06,2.06 0 0 1 -0.47,-0.86 4.32,4.32 0 0 0 3.81,0.71 z"
           id="path1254"
           style="stroke-width:0.861356" />
        <path
           class="cls-10"
           d="m 93.07,480.77 a 7.23,7.23 0 0 0 5.46,-0.66 c 1.31,0 8.46,-3 9.43,-0.45 0.85,2.25 -2.24,4.33 -3.9,4.73 -3.6,0.87 -6.27,2.67 -7.72,3 -1.08,0.23 -2.48,0.37 -3.34,-0.47 -1,-1.04 -0.94,-4.81 0.07,-6.15 z"
           id="path1256"
           style="stroke-width:0.861356" />
        <path
           class="cls-11"
           d="m 96.34,486.74 c 1.45,-0.3 4.12,-2.1 7.72,-3 1.39,-0.34 3.77,-1.86 4,-3.66 0.32,2.07 -2.47,3.91 -4,4.28 -3.6,0.87 -6.27,2.67 -7.72,3 -1.08,0.23 -2.48,0.37 -3.34,-0.47 a 2.05,2.05 0 0 1 -0.47,-0.87 4.29,4.29 0 0 0 3.81,0.72 z"
           id="path1258"
           style="stroke-width:0.861356" />
        <path
           id="_Контур_2"
           data-name="&lt;Контур&gt;"
           class="cls-12"
           d="m 92.28,460.68 a 43.92,43.92 0 0 1 1.64,-7.82 c 0,0 -0.49,-6.75 -0.73,-13.15 -0.28,-7.27 -2.8,-13.66 -0.81,-19.46 l 22.12,4.92 c 0,0 -1.07,29 -1.37,32.53 a 64.59,64.59 0 0 1 -1,8.13 C 111.1,471.46 110,484 110,484 c -2.37,1.37 -5.84,0.24 -5.84,0.24 0,0 0,-15.75 0.13,-19.8 0.19,-5 0.34,-4.57 0.34,-4.57 l -0.74,-12.32 -0.48,-6.13 c 0,0 -0.63,4.5 -1,8.52 -0.35,3.5 -1.2,6.67 -2.14,13.19 -0.82,5.66 -1.67,17.19 -1.67,17.19 -2.37,1.38 -5.56,0.43 -5.56,0.43 0,0 -1.41,-15.16 -0.76,-20.07 z"
           style="stroke-width:0.861356" />
        <path
           id="_Контур_3"
           data-name="&lt;Контур&gt;"
           class="cls-8"
           d="m 95.38,385.79 c 1.7,0.09 3,0.53 3.19,0 a 21.32,21.32 0 0 0 0.39,-2.66 c -0.2,-0.5 -0.37,-1 -0.37,-1 -2.14,-1.32 -2.82,-3.64 -3.1,-6.34 -0.48,-4.61 2,-8.64 6.62,-9.12 4.33,-0.46 7.52,2.59 8.38,6.77 0.45,2.07 1.37,6 0.13,9.37 -0.69,1.9 -1.58,3.41 -2.46,3.7 a 21.27,21.27 0 0 1 -2.57,-0.23 v 0 l -0.38,2.1 c -0.16,0.82 -0.1,1.26 1.54,2.26 1.64,1 -2.48,3.08 -5.17,2.88 -2.69,-0.2 -5.7,-1.82 -6.53,-3.56 -0.93,-1.96 -0.84,-4.22 0.33,-4.17 z"
           style="stroke-width:0.861356" />
        <path
           id="_Контур_4"
           data-name="&lt;Контур&gt;"
           class="cls-13"
           d="m 97.85,386.05 c -0.48,1.18 0.72,2.62 3.93,3.63 3.21,1.01 3.5,-0.29 3.5,-0.29 a 64,64 0 0 1 6.23,3.21 c 1.92,1.34 2.77,5.23 3,11.81 0.3,7.6 0.33,18.88 0.08,20.83 0,0 -3.6,3.58 -8.2,3.2 -4.6,-0.38 -12.31,-4.44 -14.19,-7.59 0,-6.67 0.83,-7.75 -0.25,-11.6 -2.47,-8.79 -3.77,-12.39 -2.57,-18.23 1,-4.82 2.37,-5.42 4.28,-5.37 a 40,40 0 0 1 4.19,0.4 z"
           style="stroke-width:0.861356" />
        <path
           class="cls-8"
           d="m 110.57,431.09 -2.34,-26.48 4.94,-2.62 1.92,1.62 -0.59,23.78 v 0 0.65 0 0.84 c 0,0 0.11,2 -3.66,4.39 0,0 -0.06,-0.63 -0.12,-1.21 v 0 l -0.09,-1 z"
           id="path1263"
           style="stroke-width:0.861356" />
        <path
           id="_Контур_5"
           data-name="&lt;Контур&gt;"
           class="cls-9"
           d="m 110,391 c 2.55,0 4.17,1.3 4.8,5.23 0.63,3.93 1,7.14 1,7.14 a 6.84,6.84 0 0 1 -4.54,2.25 c -3.09,0.35 -4,-1.22 -4,-1.22 0,0 -0.33,-4.08 -0.5,-6.85 -0.17,-2.77 0.07,-6.55 3.24,-6.55 z"
           style="stroke-width:0.861356" />
        <path
           class="cls-14"
           d="m 110.34,372.82 c 0,0 4,-6.05 -4.65,-7.29 -6.23,-0.89 -10.23,3.11 -10.69,7.45 -0.44,4.15 2.11,8.46 4,10.17 a 7.54,7.54 0 0 0 5.38,-0.65 32.23,32.23 0 0 0 0.12,-3.4 c 0,0 -3.08,-6.39 5.84,-6.28 z"
           id="path1266"
           style="stroke-width:0.861356" />
      </g>
      <path
         class="cls-1"
         d="M 445,367.55 205.66,229.37 c -4.93,-2.84 -8.93,-10.48 -8.93,-17.06 V 36.09 c 0,-6.58 4,-9.6 8.93,-6.75 L 445,167.51 c 4.93,2.85 8.93,10.49 8.93,17.06 V 360.8 c -0.01,6.57 -4.01,9.6 -8.93,6.75 z"
         id="path1269"
         style="stroke-width:0.861356" />
      <path
         class="cls-7"
         d="M 431.58,342.8 192.26,204.63 c -4.94,-2.85 -8.93,-10.49 -8.93,-17.07 V 11.34 c 0,-6.58 4,-9.6 8.93,-6.75 l 239.32,138.17 c 4.93,2.85 8.93,10.49 8.93,17.07 v 176.22 c 0,6.58 -4,9.6 -8.93,6.75 z"
         id="path1271"
         style="stroke-width:0.861356" />
      <path
         class="cls-12"
         d="M 440.51,173.7 183.33,25.21 V 11.34 c 0,-6.58 4,-9.6 8.93,-6.75 l 239.32,138.17 c 4.93,2.85 8.93,10.49 8.93,17.07 z"
         id="path1273"
         style="stroke-width:0.861356" />
      <ellipse
         class="cls-7"
         cx="198.95"
         cy="22.379999"
         rx="2.55"
         ry="4.4200001"
         transform="rotate(-30,198.96528,22.372587)"
         id="ellipse1275"
         style="stroke-width:0.861356">
          <animate
           attributeName="fill"
           attributeType="XML"
           dur="4s"
           values="#fff;green"
           calcMode="discrete"
           repeatCount="indefinite"
           begin="1s" />
         </ellipse>
      <ellipse
         class="cls-7"
         cx="223.07001"
         cy="36.299999"
         rx="2.55"
         ry="4.4200001"
         transform="matrix(0.87,-0.5,0.5,0.87,11.74,116.4)"
         id="ellipse1277"
         style="stroke-width:0.861356">
         <animate
           attributeName="fill"
           attributeType="XML"
           dur="4s"
           values="#fff;orange"
           calcMode="discrete"
           repeatCount="indefinite"
           begin="1s" />
         </ellipse>
      <ellipse
         class="cls-7"
         cx="211.00999"
         cy="29.34"
         rx="2.55"
         ry="4.4200001"
         transform="rotate(-30,211.01782,29.342055)"
         id="ellipse1279"
         style="stroke-width:0.861356">
         <animate
           attributeName="fill"
           attributeType="XML"
           dur="4s"
           values="#fff;red"
           calcMode="discrete"
           repeatCount="indefinite"
           begin="1s" />
         </ellipse>
      <polygon
         class="cls-15"
         points="219.94,193.8 207.44,186.58 207.44,135.03 219.94,142.24 "
         id="polygon1281"
         style="stroke-width:0.861356">
        <animate
           attributeName="points"
           from="219.94 193.8 207.44 186.58 207.44 187.58 219.94 194.24 219.94 193.8"
           to="219.94 193.8 207.44 186.58 207.44 135.03 219.94 142.24 219.94 193.8"
           dur="1.5s"
           repeatCount="indefinite" />
      </polygon>
      <polygon
         class="cls-15"
         points="266.38,220.61 253.87,213.39 253.87,125.75 266.38,132.97 "
         id="polygon1283"
         style="stroke-width:0.861356">
        <animate
           attributeName="points"
           from="266.38 220.61 253.87 213.39 253.87 213.39 266.38 220.61 266.38 220.61"
           to="266.38 220.61 253.87 213.39 253.87 125.75 266.38 132.97 266.38 220.61"
           dur="1.9s"
           begin=".5s"
           repeatCount="indefinite" />
      </polygon>
      <polygon
         class="cls-12"
         points="243.16,207.21 230.66,199.99 230.66,130.9 243.16,138.12 "
         id="polygon1285"
         style="stroke-width:0.861356">
        <animate
           attributeName="points"
           from="243.16 207.21 230.66 199.99 230.66 130.9 243.16 138.12 243.16 207.21"
           to="243.16 207.21 230.66 199.99 230.66 199.99 243.16 207.21 243.16 207.21"
           dur="1.9s"
           begin=".3s"
           repeatCount="indefinite" />
      </polygon>
      <polygon
         class="cls-12"
         points="289.59,234.01 277.09,226.8 277.09,105.13 289.59,112.34 "
         id="polygon1287"
         style="stroke-width:0.861356">
        <animate
           attributeName="points"
           from="289.59 234.01 277.09 226.8 277.09 105.13 289.59 112.34 289.59 234.01"
           to="289.59 234.01 277.09 226.8 277.09 226.8 289.59 234.01 289.59 234.01"
           dur="2.5s"
           begin=".15s"
           repeatCount="indefinite" />
      </polygon>
      <polygon
         class="cls-16"
         points="418.19,201.02 319.06,143.79 319.06,129.36 418.19,186.59 "
         id="polygon1289"
         style="stroke-width:0.861356" />
      <polygon
         class="cls-16"
         points="418.19,219.58 319.06,162.35 319.06,155.13 418.19,212.36 "
         id="polygon1291"
         style="stroke-width:0.861356" />
      <polygon
         class="cls-16"
         points="418.19,233.33 319.06,176.1 319.06,168.88 418.19,226.11 "
         id="polygon1293"
         style="stroke-width:0.861356" />
      <polygon
         class="cls-16"
         points="404.79,239.34 319.06,189.85 319.06,182.63 404.79,232.13 "
         id="polygon1295"
         style="stroke-width:0.861356" />
      <polygon
         class="cls-16"
         points="392.29,245.88 319.06,203.6 319.06,196.38 392.29,238.66 "
         id="polygon1297"
         style="stroke-width:0.861356" />
      <polygon
         class="cls-16"
         points="361.04,257.73 330.67,240.2 330.67,232.99 361.04,250.51 "
         id="polygon1299"
         style="stroke-width:0.861356" />
      <polygon
         class="cls-15"
         points="327.99,238.66 319.06,233.5 319.06,226.28 327.99,231.44 "
         id="polygon1301"
         style="stroke-width:0.861356" />
      <polygon
         class="cls-16"
         points="361.04,275.26 330.67,257.73 330.67,250.51 361.04,268.04 "
         id="polygon1303"
         style="stroke-width:0.861356" />
      <polygon
         class="cls-12"
         points="327.99,256.19 319.06,251.03 319.06,243.81 327.99,248.97 "
         id="polygon1305"
         style="stroke-width:0.861356" />
      <polygon
         class="cls-16"
         points="415.51,289.18 385.15,271.65 385.15,264.44 415.51,281.96 "
         id="polygon1307"
         style="stroke-width:0.861356" />
      <polygon
         class="cls-12"
         points="382.47,270.11 373.54,264.95 373.54,257.73 382.47,262.89 "
         id="polygon1309"
         style="stroke-width:0.861356" />
      <polygon
         class="cls-16"
         points="415.51,306.71 385.15,289.18 385.15,281.96 415.51,299.49 "
         id="polygon1311"
         style="stroke-width:0.861356" />
      <polygon
         class="cls-15"
         points="382.47,287.63 373.54,282.48 373.54,275.26 382.47,280.42 "
         id="polygon1313"
         style="stroke-width:0.861356" />
      <polygon
         class="cls-1"
         points="162.43,352.59 76.02,302.33 84.49,296.52 170.89,346.78 "
         id="polygon1315"
         style="stroke-width:0.861356" />
      <path
         class="cls-5"
         d="M 167.12,345.12 94.79,303.36 C 89.85,300.51 85.86,292.87 85.86,286.3 V 169.88 c 0,-6.58 4,-9.6 8.93,-6.75 l 72.33,41.76 c 4.93,2.85 8.93,10.49 8.93,17.06 v 116.42 c 0,6.63 -4,9.63 -8.93,6.75 z"
         id="path1317"
         style="stroke-width:0.861356" />
      <polygon
         class="cls-5"
         points="173.18,345.45 167.56,336.62 167.61,348.79 "
         id="polygon1319"
         style="stroke-width:0.861356" />
      <polygon
         class="cls-5"
         points="89.37,162.44 89.19,170.6 84.3,165.5 "
         id="polygon1321"
         style="stroke-width:0.861356" />
      <path
         class="cls-3"
         d="M 162,348.22 89.63,306.45 C 84.7,303.61 80.7,296 80.7,289.39 V 173 c 0,-6.57 4,-9.6 8.93,-6.75 L 162,208 c 4.93,2.85 8.93,10.49 8.93,17.07 v 116.39 c -0.04,6.54 -4.04,9.6 -8.93,6.76 z"
         id="path1323"
         style="stroke-width:0.861356" />
      <polygon
         class="cls-12"
         points="157.5,238.4 94.09,201.79 94.09,183.24 157.5,219.84 "
         id="polygon1325"
         style="stroke-width:44222.7">
        <animate
           attributeName="fill"
           attributeType="XML"
           dur="1.3s"
           values="orange;#8c50ff"
           calcMode="discrete"
           repeatCount="indefinite" />
      </polygon>
      <polygon
         class="cls-12"
         points="111.95,249.23 94.99,239.43 94.99,220.87 111.95,230.67 "
         id="polygon1327"
         style="stroke-width:0.861356">
         <animate
           attributeName="fill"
           attributeType="XML"
           dur="1.5s"
           values="orange;#8c50ff"
           calcMode="discrete"
           repeatCount="indefinite"
           begin=".35s" />
         </polygon>
      <polygon
         class="cls-12"
         points="134.28,262.12 117.31,252.32 117.31,233.76 134.28,243.56 "
         id="polygon1329"
         style="stroke-width:0.861356" >
         <animate
           attributeName="fill"
           attributeType="XML"
           dur="4.31s"
           values="orange;#8c50ff"
           calcMode="discrete"
           repeatCount="indefinite"
           begin=".4s" />
         </polygon>
      <polygon
         class="cls-12"
         points="156.6,275 139.64,265.21 139.64,246.65 156.6,256.44 "
         id="polygon1331"
         style="stroke-width:0.861356"> 
         <animate
           attributeName="fill"
           attributeType="XML"
           dur="3.31s"
           values="orange;#8c50ff"
           calcMode="discrete"
           repeatCount="indefinite"
           begin=".9s" />
         </polygon>
      <polygon
         class="cls-12"
         points="111.95,277.07 94.99,267.27 94.99,248.71 111.95,258.51 "
         id="polygon1333"
         style="stroke-width:0.861356">
         <animate
           attributeName="fill"
           attributeType="XML"
           dur="2.31s"
           values="orange;#8c50ff"
           calcMode="discrete"
           repeatCount="indefinite"
           begin=".8s" />
          </polygon>
      <polygon
         class="cls-12"
         points="134.28,289.96 117.31,280.16 117.31,261.6 134.28,271.4 "
         id="polygon1335"
         style="stroke-width:0.861356" />
      <polygon
         class="cls-12"
         points="156.6,302.85 139.64,293.05 139.64,274.49 156.6,284.29 "
         id="polygon1337"
         style="stroke-width:0.861356" />
      <polygon
         class="cls-12"
         points="111.95,304.91 94.99,295.11 94.99,276.55 111.95,286.35 "
         id="polygon1339"
         style="stroke-width:0.861356">
         <animate
           attributeName="fill"
           attributeType="XML"
           dur="5s"
           values="orange;#8c50ff"
           calcMode="discrete"
           repeatCount="indefinite"
           begin="1s" />
          </polygon>
      <polygon
         class="cls-12"
         points="134.28,317.8 117.31,308 117.31,289.44 134.28,299.24 "
         id="polygon1341"
         style="stroke-width:0.861356"> 
          <animate
           attributeName="fill"
           attributeType="XML"
           dur="2s"
           values="orange;#8c50ff"
           calcMode="discrete"
           repeatCount="indefinite"
           begin=".8s" />
         </polygon>
      <polygon
         class="cls-12"
         points="156.6,330.69 139.64,320.89 139.64,302.33 156.6,312.13 "
         id="polygon1343"
         style="stroke-width:0.861356" />
      <polygon
         class="cls-1"
         points="415.43,466.69 380.79,446.69 388.87,442.03 423.51,462.03 "
         id="polygon1345"
         style="stroke-width:0.861356" />
      <polygon
         class="cls-17"
         points="427.29,460.03 391.57,439.4 396.04,398.68 422.83,414.14 "
         id="polygon1347"
         style="stroke-width:0.861356" />
      <polygon
         class="cls-15"
         points="418.01,465.18 382.29,444.56 386.76,403.83 413.55,419.3 "
         id="polygon1349"
         style="stroke-width:0.861356" />
      <polygon
         class="cls-18"
         points="418.01,465.18 427.29,460.03 422.83,414.14 413.55,419.3 "
         id="polygon1351"
         style="stroke-width:0.861356" />
      <polygon
         class="cls-17"
         points="396.04,398.68 394.95,408.56 386.76,403.83 "
         id="polygon1353"
         style="stroke-width:0.861356" />
      <path
         class="cls-19"
         d="m 406.84,415.34 -1.65,-1 c 0,-3.84 -2.26,-8.28 -5,-9.88 -2.74,-1.6 -5,0.22 -5,4.06 l -1.65,-0.95 c 0,-4.9 3,-7.15 6.69,-5 3.69,2.15 6.61,7.87 6.61,12.77 z"
         id="path1355"
         style="stroke-width:0.861356" />
      <path
         class="cls-19"
         d="m 415.55,410 -1.65,-0.95 c 0,-3.85 -2.26,-8.28 -5,-9.88 -2.74,-1.6 -5,0.21 -5,4.06 l -1.65,-0.95 c 0,-4.9 3,-7.15 6.69,-5 3.69,2.15 6.61,7.84 6.61,12.72 z"
         id="path1357"
         style="stroke-width:0.861356" />
      <g
         id="Girl_4"
         style="stroke-width:0.861356">
        <path
           id="_Контур_6"
           data-name="&lt;Контур&gt;"
           class="cls-8"
           d="m 395.31,380.29 c 2,0.57 3.1,2.76 4.83,7.43 a 38.82,38.82 0 0 1 2.08,13.16 c -0.55,4.4 -2.37,7.82 -6.78,11.39 l -2.1,-3.85 c 0,0 4.31,-3.81 4.75,-8.21 0.25,-2.47 -2.65,-10.8 -2.65,-11 0,-0.2 -0.13,-8.92 -0.13,-8.92 z"
           style="stroke-width:0.861356" />
        <path
           class="cls-10"
           d="m 378.06,481.72 a 4.81,4.81 0 0 1 -4,-0.54 c -1.08,0 -7.4,-2.47 -8.2,-0.37 -0.69,1.84 1.84,3.54 3.19,3.87 2.95,0.72 5.14,2.19 6.33,2.44 a 3,3 0 0 0 2.73,-0.39 c 0.89,-0.83 0.78,-3.91 -0.05,-5.01 z"
           id="path1360"
           style="stroke-width:0.861356" />
        <path
           class="cls-11"
           d="m 375.39,486.61 c -1.19,-0.25 -3.38,-1.72 -6.33,-2.44 -1.13,-0.27 -3.09,-1.51 -3.28,-3 -0.27,1.69 2,3.2 3.28,3.5 2.95,0.72 5.14,2.19 6.33,2.44 a 3,3 0 0 0 2.73,-0.39 1.78,1.78 0 0 0 0.39,-0.7 3.54,3.54 0 0 1 -3.12,0.59 z"
           id="path1362"
           style="stroke-width:0.861356" />
        <path
           class="cls-10"
           d="m 394.12,473.37 a 3.79,3.79 0 0 1 -3.47,-0.52 c -1,0 -7.5,-2.38 -8.27,-0.35 -0.67,1.77 1.77,3.41 3.07,3.72 2.84,0.69 4.95,2.11 6.09,2.35 a 2.88,2.88 0 0 0 2.63,-0.37 c 0.83,-0.8 0.74,-3.77 -0.05,-4.83 z"
           id="path1364"
           style="stroke-width:0.861356" />
        <path
           class="cls-11"
           d="m 391.54,478.08 c -1.14,-0.24 -3.25,-1.66 -6.09,-2.35 -1.09,-0.26 -3,-1.46 -3.16,-2.88 -0.25,1.63 1.95,3.08 3.16,3.37 2.84,0.69 4.95,2.11 6.09,2.35 a 2.88,2.88 0 0 0 2.63,-0.37 1.63,1.63 0 0 0 0.37,-0.68 3.4,3.4 0 0 1 -3,0.56 z"
           id="path1366"
           style="stroke-width:0.861356" />
        <path
           id="_Контур_7"
           data-name="&lt;Контур&gt;"
           class="cls-8"
           d="M 396.24,457.33 A 20.94,20.94 0 0 0 395,450.21 c 0,0 0.83,-9.75 1.45,-16.15 0.91,-9.44 2.36,-10.37 1.95,-16.1 -0.38,-5.32 -3.4,-8.77 -4.19,-12.37 l -15.41,1.22 c 0,0 -1.34,4.36 -3.07,13.06 -1.73,8.7 -1.84,19.05 -1.68,32.76 0.05,3.53 -0.6,6.6 -0.39,15.4 0.14,5.92 0.47,13.16 0.47,13.16 2.26,1.94 3.82,0.51 3.82,0.51 0,0 3.95,-17.52 4.53,-21.55 a 12.62,12.62 0 0 0 -0.54,-6.65 c 0,0 1.16,-5.51 2,-9.84 1.05,-5.28 3.63,-16.69 3.63,-16.69 0,0 -0.44,17.53 0.33,21 0.77,3.47 0.9,6.46 1.55,11.16 0.79,5.69 1.15,14 1.15,14 2.35,1.49 3.39,0.34 3.39,0.34 0,0 2.25,-11.17 2.25,-16.14 z"
           style="stroke-width:0.861356" />
        <path
           class="cls-12"
           d="m 394.21,405.59 c 1.61,1.65 4.28,6.68 4.28,14.29 0,8.56 -1.25,6.82 -1.84,16.26 l -0.6,9.43 c 0,0 -12.87,6.14 -22.05,0.44 -0.82,-1.78 0.31,-21.61 1.91,-28.66 1.6,-7.05 2.73,-10.51 2.73,-10.51 0,0 11.84,3.16 15.57,-1.25 z"
           id="path1369"
           style="stroke-width:0.861356" />
        <path
           id="_Контур_8"
           data-name="&lt;Контур&gt;"
           class="cls-8"
           d="m 394.39,380.2 c -3.28,-0.19 -3.59,0.35 -3.86,-0.81 -0.09,-0.42 -0.27,-3.31 -0.27,-3.31 a 10.28,10.28 0 0 0 0.82,-1.21 8.4,8.4 0 0 0 -3.53,-15.52 c -4.36,-0.46 -7.56,2.6 -8.41,6.8 -0.46,2.07 -0.94,6.31 0.35,9.7 0.73,1.92 1.4,3.27 3.14,3.2 a 10.39,10.39 0 0 0 1.71,-0.3 16,16 0 0 1 0.1,2.4 c -0.05,0.84 0.1,1.27 -1.55,2.28 -1.65,1.01 2.49,3.09 5.18,2.89 2.69,-0.2 5.73,-1.84 6.57,-3.58 0.92,-1.95 1.3,-2.44 -0.25,-2.54 z"
           style="stroke-width:0.861356" />
        <path
           class="cls-9"
           d="m 396.81,394.75 c 0,0 3.71,-0.84 5.41,-2.49 0,0 -2.21,-6.95 -3.62,-8.7 -1.41,-1.75 -2.78,9.48 -2.78,9.48 z"
           id="path1372"
           style="stroke-width:0.861356" />
        <path
           id="_Контур_9"
           data-name="&lt;Контур&gt;"
           class="cls-13"
           d="m 391.14,380.13 c 0.6,0.76 0.67,1.71 -1.67,2.3 a 7.42,7.42 0 0 1 -5.13,-0.39 33.79,33.79 0 0 0 -5.3,2.81 c -2,6.57 -0.38,7.41 -1.22,12.12 0.32,2.37 0.72,8.48 0.82,9.87 4.46,3.12 13.53,2.06 15.57,-1.25 a 25.38,25.38 0 0 1 0.31,-3.3 c 2.13,-7.9 3.8,-10 3.2,-16 -0.34,-3.41 -0.6,-5.12 -2.41,-6 a 16,16 0 0 0 -4.17,-0.16 z"
           style="stroke-width:0.861356" />
        <path
           id="_Контур_10"
           data-name="&lt;Контур&gt;"
           class="cls-8"
           d="m 350.09,405.84 a 25.12,25.12 0 0 1 3,0.86 9.88,9.88 0 0 0 2.91,1 c 1.1,0.18 2.81,-0.39 5.77,-1.79 a 31.88,31.88 0 0 0 8.66,-6.51 75.92,75.92 0 0 0 7.57,-10.8 c 1.28,-2.34 2.91,-2.93 4.32,-2.47 1.69,0.56 1.9,2.23 0,5.39 a 59.85,59.85 0 0 1 -8.66,11.34 32.42,32.42 0 0 1 -9,6.37 28.11,28.11 0 0 1 -7.6,2.64 c -0.93,0.2 -1.56,0.58 -3.27,1.18 a 11.24,11.24 0 0 1 -5.32,0.59 c -1.49,-0.29 -2,-0.63 -2.06,-1 -0.06,-0.37 0.25,-0.62 0.94,-0.57 a 9.31,9.31 0 0 0 3.3,-0.08 c 0,0 -1.52,-0.05 -2.44,-0.16 a 9.08,9.08 0 0 1 -2.36,-0.6 c -0.73,-0.31 -1,-1.45 -0.27,-1.41 0.73,0.04 1.24,0.25 2.59,0.39 a 9,9 0 0 0 2.16,0 17.31,17.31 0 0 1 -2.64,-0.65 3.79,3.79 0 0 1 -1.84,-1.13 c -0.25,-0.29 -0.18,-1 0.68,-0.83 a 13.69,13.69 0 0 0 3.23,0.72 c 1.11,0 1.89,-0.09 1.75,-0.27 -0.14,-0.18 -0.79,-0.14 -1.64,-0.62 -0.85,-0.48 -1.32,-1.37 -1,-1.8 0.32,-0.43 0.32,-0.12 1.22,0.21 z"
           style="stroke-width:0.861356" />
        <path
           class="cls-9"
           d="m 380.53,395.31 a 12,12 0 0 1 -6.81,-3.45 l 4.12,-5.72 c 0,0 2.32,-2.93 5.38,-1.27 0,0 2.32,0.25 0,5.08 a 50.68,50.68 0 0 1 -2.69,5.36 z"
           id="path1376"
           style="stroke-width:0.861356" />
        <path
           class="cls-14"
           d="m 378.34,363.67 a 3.82,3.82 0 0 1 4.31,-3.14 7.2,7.2 0 0 1 4.9,-1.18 c 3.91,0.4 6.47,2.94 7.66,6.86 a 31.71,31.71 0 0 1 1.15,6 c 1.18,8.71 4.34,15.63 1.38,18.21 -2.96,2.58 -11.06,4.23 -14.44,2.58 -3.38,-1.65 2.79,-16.64 -3.92,-25 -1.57,-1.95 -1.72,-3.34 -1.04,-4.33 z"
           id="path1378"
           style="stroke-width:0.861356" />
      </g>
      <g
         id="Men_13"
         style="stroke-width:0.861356">
        <path
           class="cls-10"
           d="m 11,360.45 c 1.53,1.24 3.78,0.11 3.89,0.22 a 68.24,68.24 0 0 0 5.63,4.69 c 1,0.75 2.43,1.75 2.16,3.18 -0.48,2.57 -4.59,1.78 -6.14,1 -1.55,-0.78 -2.82,-2.09 -4.29,-3 -1,-0.65 -2.08,-1 -2.24,-2.31 -0.15,-0.81 0.67,-3.81 0.99,-3.78 z"
           id="path1381"
           style="stroke-width:0.861356" />
        <path
           class="cls-11"
           d="m 10,363.69 c 0.2,1.27 1.22,1.62 2.26,2.26 1.49,0.93 2.8,2.27 4.35,3.05 1.55,0.78 5,1.45 6,-0.39 -0.54,2.48 -4.59,1.7 -6.12,0.93 -1.53,-0.77 -2.82,-2.09 -4.29,-3 -1,-0.65 -2.08,-1 -2.24,-2.31 A 2,2 0 0 1 10,363.69 Z"
           id="path1383"
           style="stroke-width:0.861356" />
        <path
           class="cls-10"
           d="m 24.19,355.53 c 1.52,1.24 4.19,-0.12 4.31,0 a 60,60 0 0 0 5,4.54 c 0.95,0.75 2.44,1.75 2.17,3.18 -0.48,2.57 -4.6,1.78 -6.15,1 -1.55,-0.78 -2.82,-2.09 -4.29,-3 -1,-0.65 -2.08,-1 -2.24,-2.31 -0.08,-0.8 0.93,-3.44 1.2,-3.41 z"
           id="path1385"
           style="stroke-width:0.861356" />
        <path
           class="cls-11"
           d="m 23.06,358.58 c 0.2,1.27 1.22,1.62 2.26,2.27 1.49,0.92 2.8,2.26 4.35,3 1.55,0.74 5,1.44 6,-0.39 -0.54,2.48 -4.59,1.7 -6.12,0.92 -1.53,-0.78 -2.82,-2.09 -4.29,-3 -1.05,-0.65 -2.08,-1 -2.24,-2.31 a 2.06,2.06 0 0 1 0.04,-0.49 z"
           id="path1387"
           style="stroke-width:0.861356" />
        <path
           id="_Контур_11"
           data-name="&lt;Контур&gt;"
           class="cls-12"
           d="m 10.86,304.15 c 0.08,2.31 0.8,12.32 1.12,17.62 0.32,5.3 0.39,11.8 0.39,11.8 0,0 -0.91,3.87 -1.51,8.41 -0.6,4.54 0,18.87 0,18.87 a 3.64,3.64 0 0 0 3.91,0 c 0,0 2.44,-11.47 3.57,-16.64 1.13,-5.17 1.33,-8.14 1.91,-11.35 0.71,-3.87 2.24,-21.95 2.24,-21.95 h 0.62 l 1.63,20.41 a 22.83,22.83 0 0 0 -1,4.64 c -0.44,3.32 0.47,20.05 0.47,20.05 a 4.06,4.06 0 0 0 4.22,-0.17 c 0,0 4.08,-22.16 4.08,-25.53 0,-2.23 -0.39,-31.63 -0.39,-31.63 z"
           style="stroke-width:0.861356" />
        <path
           id="_Контур_12"
           data-name="&lt;Контур&gt;"
           class="cls-8"
           d="m 16.39,259.57 c 0,0 0.26,5 0.15,5.47 -0.11,0.47 -2.31,1.92 -2.95,2.45 -0.64,0.53 3.48,4.59 5.48,5.51 2,0.92 8.34,-1.5 8.46,-4.62 0.12,-3.12 -1.09,-5.73 -2.06,-5.87 -0.97,-0.14 -9.08,-2.94 -9.08,-2.94 z"
           style="stroke-width:0.861356" />
        <path
           class="cls-8"
           d="m 30.17,268.9 c 0.29,-2.22 -1.17,-4.32 0.25,-6.09 5,4.87 4.33,17.74 5.46,26 3.68,3.86 11.09,7.65 13.17,8.59 0.38,0.18 0.71,0.36 0.64,0.77 A 9.28,9.28 0 0 1 48,301.92 c -4.9,-2.12 -8.43,-3.33 -14.56,-9.15 a 13.64,13.64 0 0 1 -1.55,-2 C 30.1,285.48 29.66,272.73 30.17,268.9 Z"
           id="path1391"
           style="stroke-width:0.861356" />
        <path
           id="_Контур_13"
           data-name="&lt;Контур&gt;"
           class="cls-13"
           d="m 15.83,265.91 c 0,0 3.65,5.44 8.74,5.95 1.61,-1.58 1.75,-7.21 -0.47,-9 0,0 2,-1.65 3.44,-1.33 a 7.2,7.2 0 0 1 3.14,4 33,33 0 0 1 1.8,11.64 c -0.09,5.34 0,21.64 0,21.64 0,0 -0.72,3.45 -5.32,6 -4.6,2.55 -8,2.82 -11.15,2.09 -2.58,-0.6 -4.71,-1.51 -5.6,-3.38 0.23,-3.74 1.9,-13.5 1.28,-18.2 -0.62,-4.7 -1.62,-8.21 -1.88,-12 -0.26,-3.79 0.5,-3.72 2.41,-5.08 a 31,31 0 0 1 3.61,-2.33 z"
           style="stroke-width:0.861356" />
        <path
           id="_Контур_14"
           data-name="&lt;Контур&gt;"
           class="cls-8"
           d="m 27.77,252.07 v 0 c -0.6,-3.9 -3.41,-6.86 -7.43,-6.64 a 7.74,7.74 0 0 0 -3.95,14.14 7.74,7.74 0 0 0 0.63,1.71 c 1.42,1.66 5.73,2.69 7,2.51 a 3.69,3.69 0 0 0 3.21,-2.62 c 1.29,-3.07 0.87,-7.17 0.54,-9.1 z"
           style="stroke-width:0.861356" />
        <path
           class="cls-14"
           d="m 16.39,259.57 v 0 l 0.37,-3.41 c 0,0 -2.76,-7.16 3.79,-5.82 4.34,0.92 5.43,1.31 6.75,-1.6 1.32,-2.91 -3.33,-5.53 -8.86,-4.8 a 7.64,7.64 0 0 0 -6.85,7.75 c 0.15,2.14 0.72,6.48 4.8,7.88 z"
           id="path1395"
           style="stroke-width:0.861356" />
        <path
           class="cls-8"
           d="m 8.69,271.07 c 1.91,-0.54 0.46,-0.09 1.91,-0.54 5,4.86 4.34,13.21 5.47,21.45 2.74,4.53 12.93,10.67 12.93,10.67 0.13,0.87 -0.18,1.13 -1.28,2.91 A 44,44 0 0 1 12.59,295.8 C 12.35,295.57 12,295.51 11.9,295.2 10.13,289.94 8.19,274.9 8.69,271.07 Z"
           id="path1397"
           style="stroke-width:0.861356" />
        <polygon
           class="cls-13"
           points="46.55,306.5 30.34,312.98 36.25,288.36 53.95,281.23 "
           id="polygon1399"
           style="stroke-width:0.861356" />
        <path
           class="cls-8"
           d="m 26.42,302.83 c 0.24,-0.86 0.87,-0.65 1.57,-0.43 a 4.2,4.2 0 0 0 2.4,0.21 7.37,7.37 0 0 0 1.72,-1.17 2.15,2.15 0 0 1 1.08,-0.3 c 0,0.21 -0.37,1.5 -0.37,1.5 0,0 3.55,0 3.92,0 a 0.6,0.6 0 0 1 0.56,1 h 0.24 c 0.73,-0.17 1,0.95 0.31,1.12 l -0.6,0.09 c 0.48,0.18 0.6,1 0,1.08 h -0.19 a 0.59,0.59 0 0 1 -0.26,0 h -0.11 a 0.64,0.64 0 0 1 -0.53,0.76 c -1.74,0.22 -4.29,0.91 -5.86,-0.52 a 9.75,9.75 0 0 1 -3.15,-0.85 c -0.99,-0.49 -1.02,-1.46 -0.73,-2.49 z"
           id="path1401"
           style="stroke-width:0.861356" />
        <path
           class="cls-8"
           d="m 44.17,300.76 h 0.24 a 0.6,0.6 0 0 1 0.34,-1.09 c 0.37,0 4,-0.76 4,-0.76 l 0.44,-1.5 c 0,-0.09 0.63,0.3 0.65,0.31 a 2.49,2.49 0 0 1 1.16,1.82 4,4 0 0 1 -1,2.83 3.66,3.66 0 0 1 -2.48,1.07 l -1.26,0.08 A 0.63,0.63 0 0 1 45.58,302.9 H 45.4 a 0.61,0.61 0 0 1 -0.26,0 H 45 c -0.62,0 -0.67,-0.78 -0.25,-1.06 -0.2,0 -0.4,0 -0.6,0 -0.79,0.08 -0.73,-1.08 0.02,-1.08 z"
           id="path1403"
           style="stroke-width:0.861356" />
        <path
           class="cls-9"
           d="m 32.23,272.2 a 3.93,3.93 0 0 0 2.65,-1.2 c -0.14,-1.87 -2.53,-9 -7.34,-9.49 a 8.89,8.89 0 0 1 3,3.63 47.27,47.27 0 0 1 1.69,7.06 z"
           id="path1405"
           style="stroke-width:0.861356" />
        <path
           class="cls-9"
           d="m 7.83,281.57 c 0,0 4.78,1.65 8.15,-1.12 0.37,-0.64 -2,-8.78 -2,-8.78 0,0 -2,-4.17 -5.15,-2.51 -3.15,1.66 -1,12.41 -1,12.41 z"
           id="path1407"
           style="stroke-width:0.861356" />
      </g>
    </g>
  </g>
</svg>
