<?xml version="1.0" encoding="UTF-8" standalone="no"?>
<svg
   xmlns:dc="http://purl.org/dc/elements/1.1/"
   xmlns:cc="http://creativecommons.org/ns#"
   xmlns:rdf="http://www.w3.org/1999/02/22-rdf-syntax-ns#"
   xmlns:svg="http://www.w3.org/2000/svg"
   xmlns="http://www.w3.org/2000/svg"
   xmlns:xlink="http://www.w3.org/1999/xlink"
   xmlns:sodipodi="http://sodipodi.sourceforge.net/DTD/sodipodi-0.dtd"
   xmlns:inkscape="http://www.inkscape.org/namespaces/inkscape"
   width="210mm"
   height="297mm"
   viewBox="0 0 210 297"
   version="1.1"
   id="svg1235"
   inkscape:version="1.0.2 (e86c870879, 2021-01-15)"
   sodipodi:docname="online_school_SVG.svg">
  <defs
     id="defs1229">
    <rect
       id="SVGID_1_"
       width="500"
       height="500" />
    <rect
       id="SVGID_3_"
       x="132.9"
       y="335.5"
       width="79.6"
       height="46" />
    <rect
       id="SVGID_5_"
       x="57.9"
       y="449.7"
       width="7.8"
       height="7.5" />
    <rect
       id="SVGID_7_"
       x="57.9"
       y="452"
       width="7.8"
       height="5.3" />
    <path
       id="SVGID_9_"
       d="M65.7,452l0,3c0,0.6-0.4,1.1-1.1,1.6c-1.5,0.9-4,0.9-5.5,0c-0.8-0.4-1.1-1-1.1-1.6l0-3         c0,0.6,0.4,1.2,1.1,1.6c1.5,0.9,4,0.9,5.5,0C65.3,453.1,65.7,452.6,65.7,452" />
    <rect
       id="SVGID_11_"
       x="57.9"
       y="452"
       width="7.8"
       height="5.3" />
    <rect
       id="rect1890"
       width="500"
       height="500"
       x="0"
       y="0" />
    <rect
       id="rect1897"
       x="132.89999"
       y="335.5"
       width="79.599998"
       height="46" />
    <rect
       id="rect1956"
       x="57.900002"
       y="449.70001"
       width="7.8000002"
       height="7.5" />
    <rect
       id="rect1961"
       x="57.900002"
       y="452"
       width="7.8000002"
       height="5.3000002" />
    <path
       id="path1966"
       d="m 65.7,452 v 3 c 0,0.6 -0.4,1.1 -1.1,1.6 -1.5,0.9 -4,0.9 -5.5,0 -0.8,-0.4 -1.1,-1 -1.1,-1.6 v -3 c 0,0.6 0.4,1.2 1.1,1.6 1.5,0.9 4,0.9 5.5,0 0.7,-0.5 1.1,-1 1.1,-1.6" />
    <rect
       id="rect1971"
       x="57.900002"
       y="452"
       width="7.8000002"
       height="5.3000002" />
    <rect
       id="rect727"
       width="500"
       height="500"
       x="0"
       y="0" />
    <rect
       id="rect734"
       x="132.89999"
       y="335.5"
       width="79.599998"
       height="46" />
    <rect
       id="rect794"
       x="57.900002"
       y="449.70001"
       width="7.8000002"
       height="7.5" />
    <rect
       id="rect799"
       x="57.900002"
       y="452"
       width="7.8000002"
       height="5.3000002" />
    <path
       id="path804"
       d="m 65.7,452 v 3 c 0,0.6 -0.4,1.1 -1.1,1.6 -1.5,0.9 -4,0.9 -5.5,0 -0.8,-0.4 -1.1,-1 -1.1,-1.6 v -3 c 0,0.6 0.4,1.2 1.1,1.6 1.5,0.9 4,0.9 5.5,0 0.7,-0.5 1.1,-1 1.1,-1.6" />
    <rect
       id="rect809"
       x="57.900002"
       y="452"
       width="7.8000002"
       height="5.3000002" />
  </defs>
  <sodipodi:namedview
     id="base"
     pagecolor="#ffffff"
     bordercolor="#666666"
     borderopacity="1.0"
     inkscape:pageopacity="0.0"
     inkscape:pageshadow="2"
     inkscape:zoom="0.98994949"
     inkscape:cx="400"
     inkscape:cy="560"
     inkscape:document-units="mm"
     inkscape:current-layer="g1874"
     inkscape:document-rotation="0"
     showgrid="false"
     inkscape:window-width="1536"
     inkscape:window-height="784"
     inkscape:window-x="0"
     inkscape:window-y="0"
     inkscape:window-maximized="1" />
  <metadata
     id="metadata1232">
    <rdf:RDF>
      <cc:Work
         rdf:about="">
        <dc:format>image/svg+xml</dc:format>
        <dc:type
           rdf:resource="http://purl.org/dc/dcmitype/StillImage" />
        <dc:title></dc:title>
      </cc:Work>
    </rdf:RDF>
  </metadata>
  <g
     inkscape:label="Layer 1"
     inkscape:groupmode="layer"
     id="layer1">
    <g
       id="g1874"
       transform="matrix(0.26458333,0,0,0.26458333,42.050982,82.034063)">
      <defs
         id="defs1589">
        <rect
           id="rect1972"
           width="500"
           height="500"
           x="0"
           y="0" />
      </defs>
      <clipPath
         id="SVGID_2_">
        <use
           xlink:href="#SVGID_1_"
           style="overflow:visible"
           id="use1591"
           x="0"
           y="0"
           width="100%"
           height="100%" />
      </clipPath>
      <path
         class="st0"
         d="m 230.4,175 c 0,-0.3 0.1,-0.6 0.2,-0.9 0,0 0,-0.1 0,-0.1 0.1,-0.3 0.2,-0.6 0.3,-0.9 0,0 0,0 0,0 0.1,-0.3 0.3,-0.6 0.5,-0.9 0,0 0,0 0,0 0.2,-0.3 0.4,-0.6 0.6,-0.9 0,0 0,-0.1 0.1,-0.1 0.2,-0.2 0.4,-0.5 0.6,-0.7 0,0 0.1,-0.1 0.1,-0.1 0.2,-0.2 0.3,-0.3 0.5,-0.5 0.1,-0.1 0.2,-0.1 0.2,-0.2 0.2,-0.2 0.5,-0.4 0.8,-0.5 0.3,-0.1 0.5,-0.3 0.7,-0.3 0,0 0.1,0 0.1,0 0.2,-0.1 0.4,-0.1 0.7,-0.1 0,0 0,0 0.1,0 0.2,0 0.4,0 0.6,0 0,0 0,0 0,0 0.2,0 0.4,0.1 0.6,0.2 l -4.5,-2.6 c 0,0 0,0 0,0 -0.1,0 -0.1,-0.1 -0.2,-0.1 -0.1,0 -0.1,-0.1 -0.2,-0.1 0,0 -0.1,0 -0.1,0 0,0 0,0 0,0 0,0 0,0 0,0 -0.1,0 -0.2,0 -0.2,0 -0.1,0 -0.2,0 -0.3,0 0,0 -0.1,0 -0.1,0 0,0 0,0 -0.1,0 -0.1,0 -0.1,0 -0.2,0 -0.1,0 -0.2,0 -0.4,0.1 0,0 -0.1,0 -0.2,0.1 0,0 -0.1,0 -0.1,0 -0.1,0 -0.1,0 -0.2,0.1 -0.2,0.1 -0.4,0.2 -0.6,0.3 -0.3,0.1 -0.5,0.3 -0.8,0.5 -0.1,0.1 -0.2,0.1 -0.2,0.2 -0.1,0.1 -0.2,0.2 -0.4,0.3 -0.1,0.1 -0.1,0.1 -0.2,0.2 0,0 -0.1,0.1 -0.1,0.1 -0.1,0.1 -0.1,0.1 -0.2,0.2 -0.1,0.1 -0.2,0.3 -0.3,0.4 0,0 -0.1,0.1 -0.1,0.1 0,0 0,0 -0.1,0.1 0,0 -0.1,0.1 -0.1,0.1 -0.1,0.1 -0.2,0.2 -0.2,0.3 -0.1,0.1 -0.1,0.2 -0.2,0.3 0,0 0,0 0,0 0,0 0,0 0,0 -0.1,0.1 -0.1,0.2 -0.2,0.3 -0.1,0.1 -0.1,0.2 -0.2,0.3 0,0.1 -0.1,0.2 -0.1,0.3 0,0 0,0 0,0 0,0 0,0 0,0 -0.1,0.1 -0.1,0.2 -0.1,0.4 0,0.1 -0.1,0.3 -0.1,0.4 0,0.1 0,0.1 -0.1,0.2 0,0 0,0.1 0,0.1 0,0 0,0.1 0,0.1 0,0.2 -0.1,0.3 -0.1,0.5 0,0.1 0,0.2 0,0.3 0,0 0,0.1 0,0.1 0,0 0,0.1 0,0.1 0,0.3 -0.1,0.5 -0.1,0.8 0,1.3 0.4,2.1 1.2,2.6 l 4.5,2.6 c -0.7,-0.4 -1.2,-1.3 -1.2,-2.6 0,-0.3 0,-0.6 0.1,-0.9 0,-0.1 0,-0.2 0,-0.2"
         clip-path="url(#SVGID_2_)"
         id="path1594" />
      <path
         class="st1"
         d="m 234.3,169.1 c 2.2,-1.3 4,-0.3 4,2.3 0,2.5 -1.8,5.6 -4,6.9 -2.2,1.3 -4,0.3 -4,-2.3 0,-2.5 1.8,-5.6 4,-6.9"
         clip-path="url(#SVGID_2_)"
         id="path1596" />
      <g
         class="st2"
         clip-path="url(#SVGID_2_)"
         id="g1606">
        <g
           id="g1604">
          <defs
             id="defs1599">
            <rect
               id="rect1979"
               x="132.89999"
               y="335.5"
               width="79.599998"
               height="46" />
          </defs>
          <clipPath
             id="SVGID_4_">
            <use
               xlink:href="#SVGID_3_"
               style="overflow:visible"
               id="use1601"
               x="0"
               y="0"
               width="100%"
               height="100%" />
          </clipPath>
        </g>
      </g>
      <path
         class="st3"
         d="m 202.8,376.8 c -15.5,9 -40.8,9 -56.3,0 -15.5,-9 -15.5,-23.5 0,-32.5 15.5,-9 40.8,-9 56.3,0 15.6,9 15.6,23.5 0,32.5"
         clip-path="url(#SVGID_2_)"
         id="path1608" />
      <path
         class="st4"
         d="m 337.6,239.3 c -0.1,0.1 -0.1,0.1 -0.2,0.2 0.1,0 0.1,-0.1 0.2,-0.2 0,0 0,0 0,0"
         clip-path="url(#SVGID_2_)"
         id="path1610" />
      <path
         class="st4"
         d="m 337.7,239.1 c 0,-0.1 0.1,-0.1 0.1,-0.2 0,0 0,0 0,0 0,0.1 -0.1,0.2 -0.1,0.2"
         clip-path="url(#SVGID_2_)"
         id="path1612" />
      <path
         class="st4"
         d="m 337.1,239.8 c 0,0 0,0 0,0 -0.1,0.1 -0.1,0.1 -0.2,0.2 0,-0.1 0.1,-0.1 0.2,-0.2"
         clip-path="url(#SVGID_2_)"
         id="path1614" />
      <path
         class="st4"
         d="m 330.6,238.7 c 0,0.1 0,0.1 0,0.2 0.1,-0.1 0.1,-0.1 0,-0.2"
         clip-path="url(#SVGID_2_)"
         id="path1616" />
      <path
         class="st4"
         d="m 330.8,239.1 c 0,0.1 0,0.1 0.1,0.2 -0.1,-0.1 -0.1,-0.1 -0.1,-0.2"
         clip-path="url(#SVGID_2_)"
         id="path1618" />
      <path
         class="st4"
         d="m 331.1,239.5 c 0,0 0.1,0.1 0.1,0.1 0,0 -0.1,0 -0.1,-0.1"
         clip-path="url(#SVGID_2_)"
         id="path1620" />
      <polygon
         class="st5"
         points="455.5,298.2 454.3,298.9 454.8,132.9 456,132.2 "
         clip-path="url(#SVGID_2_)"
         id="polygon1622" />
      <polygon
         class="st6"
         points="456,132.2 454.8,132.9 238.4,7.9 239.6,7.2 "
         clip-path="url(#SVGID_2_)"
         id="polygon1624" />
      <polygon
         class="st7"
         points="237.9,173.9 238.4,7.9 454.8,132.9 454.3,298.9 "
         clip-path="url(#SVGID_2_)"
         id="polygon1626" />
      <path
         class="st0"
         d="m 237.2,9 c 0,-0.3 0.1,-0.6 0.2,-0.9 0,0 0,-0.1 0,-0.1 0.1,-0.3 0.2,-0.6 0.3,-0.9 0,0 0,0 0,0 0.1,-0.3 0.3,-0.6 0.5,-0.9 0,0 0,0 0,0 0.2,-0.3 0.4,-0.6 0.6,-0.9 0,0 0,-0.1 0.1,-0.1 0.2,-0.2 0.4,-0.5 0.6,-0.7 0,0 0.1,-0.1 0.1,-0.1 0.2,-0.2 0.3,-0.3 0.5,-0.5 0.1,-0.1 0.2,-0.1 0.2,-0.2 0.2,-0.2 0.5,-0.4 0.8,-0.5 0.3,-0.1 0.5,-0.3 0.7,-0.3 0,0 0.1,0 0.1,0 0.2,-0.1 0.4,-0.1 0.7,-0.1 0,0 0,0 0.1,0 0.2,0 0.4,0 0.6,0 0,0 0,0 0,0 0.2,0 0.4,0.1 0.6,0.2 l -4.5,-2.6 c 0,0 0,0 0,0 -0.1,0 -0.1,-0.1 -0.2,-0.1 -0.1,0 -0.1,-0.1 -0.2,-0.1 0,0 -0.1,0 -0.1,0 0,0 0,0 0,0 0,0 0,0 0,0 -0.1,0 -0.2,0 -0.2,0 -0.1,0 -0.2,0 -0.3,0 0,0 -0.1,0 -0.1,0 0,0 0,0 -0.1,0 -0.1,0 -0.1,0 -0.2,0 -0.1,0 -0.2,0 -0.4,0.1 0,0 -0.1,0 -0.2,0.1 0,0 -0.1,0 -0.1,0 -0.1,0 -0.1,0 -0.2,0.1 -0.2,0.1 -0.4,0.2 -0.6,0.3 -0.3,0.1 -0.5,0.3 -0.8,0.5 -0.1,0.1 -0.2,0.1 -0.2,0.2 -0.1,0.1 -0.2,0.2 -0.4,0.3 -0.1,0.1 -0.1,0.1 -0.2,0.2 0,0 -0.1,0.1 -0.1,0.1 -0.1,0.1 -0.1,0.1 -0.2,0.2 -0.1,0.1 -0.2,0.3 -0.3,0.4 0,0 -0.1,0.1 -0.1,0.1 0,0 0,0 -0.1,0.1 0,0 -0.1,0.1 -0.1,0.1 -0.1,0.1 -0.2,0.2 -0.2,0.3 -0.1,0.1 -0.1,0.2 -0.2,0.3 0,0 0,0 0,0 0,0 0,0 0,0 -0.1,0.1 -0.1,0.2 -0.2,0.3 -0.1,0.1 -0.1,0.2 -0.2,0.3 0,0.1 -0.1,0.2 -0.1,0.3 0,0 0,0 0,0 0,0 0,0 0,0 -0.1,0.1 -0.1,0.2 -0.1,0.4 0,0.1 -0.1,0.3 -0.1,0.4 0,0.1 0,0.1 -0.1,0.2 0,0 0,0.1 0,0.1 0,0 0,0.1 0,0.1 0,0.2 -0.1,0.3 -0.1,0.5 0,0.1 0,0.2 0,0.3 0,0 0,0.1 0,0.1 0,0 0,0.1 0,0.1 0,0.3 -0.1,0.5 -0.1,0.8 0,1.3 0.5,2.1 1.2,2.6 l 4.5,2.6 c -0.7,-0.4 -1.2,-1.3 -1.2,-2.6 0,-0.3 0,-0.6 0.1,-0.9 0,-0.1 0,-0.1 0,-0.2"
         clip-path="url(#SVGID_2_)"
         id="path1628" />
      <path
         class="st1"
         d="m 241.1,3.2 c 2.2,-1.3 4,-0.3 4,2.3 0,2.5 -1.8,5.6 -4,6.9 -2.2,1.3 -4,0.3 -4,-2.3 0,-2.6 1.8,-5.7 4,-6.9"
         clip-path="url(#SVGID_2_)"
         id="path1630" />
      <path
         class="st8"
         d="M 451,133.5 241,12.3 c -1.8,-1 -2.4,-3.3 -1.4,-5.1 1,-1.8 3.3,-2.4 5.1,-1.4 l 210,121.2 c 1.8,1 2.4,3.3 1.4,5.1 -1.1,1.8 -3.4,2.4 -5.1,1.4"
         clip-path="url(#SVGID_2_)"
         id="path1632" />
      <path
         class="st1"
         d="m 454.8,134.9 c 0,-0.3 0.1,-0.6 0.2,-0.9 0,0 0,-0.1 0,-0.1 0.1,-0.3 0.2,-0.6 0.3,-0.9 0,0 0,0 0,0 0.1,-0.3 0.3,-0.6 0.5,-0.9 0,0 0,0 0,0 0.2,-0.3 0.4,-0.6 0.6,-0.9 0,0 0,-0.1 0.1,-0.1 0.2,-0.2 0.4,-0.5 0.6,-0.7 0,0 0.1,-0.1 0.1,-0.1 0.2,-0.2 0.3,-0.3 0.5,-0.5 0.1,-0.1 0.2,-0.1 0.2,-0.2 0.2,-0.2 0.5,-0.4 0.8,-0.5 0.3,-0.1 0.5,-0.3 0.7,-0.3 0,0 0.1,0 0.1,0 0.2,-0.1 0.4,-0.1 0.7,-0.1 0,0 0,0 0.1,0 0.2,0 0.4,0 0.6,0 0,0 0,0 0,0 0.2,0 0.4,0.1 0.6,0.2 l -4.5,-2.6 c 0,0 0,0 0,0 -0.1,0 -0.1,-0.1 -0.2,-0.1 -0.1,0 -0.1,-0.1 -0.2,-0.1 0,0 -0.1,0 -0.1,0 0,0 0,0 0,0 0,0 0,0 0,0 -0.1,0 -0.2,0 -0.2,0 -0.1,0 -0.2,0 -0.3,0 0,0 -0.1,0 -0.1,0 0,0 0,0 -0.1,0 -0.1,0 -0.1,0 -0.2,0 -0.1,0 -0.2,0 -0.4,0.1 0,0 -0.1,0 -0.2,0.1 0,0 -0.1,0 -0.1,0 -0.1,0 -0.1,0 -0.2,0.1 -0.2,0.1 -0.4,0.2 -0.6,0.3 -0.3,0.1 -0.5,0.3 -0.8,0.5 -0.1,0.1 -0.2,0.1 -0.2,0.2 -0.1,0.1 -0.2,0.2 -0.4,0.3 -0.1,0.1 -0.1,0.1 -0.2,0.2 0,0 -0.1,0.1 -0.1,0.1 -0.1,0.1 -0.1,0.1 -0.2,0.2 -0.1,0.1 -0.2,0.3 -0.3,0.4 0,0 -0.1,0.1 -0.1,0.1 0,0 0,0.1 -0.1,0.1 0,0 -0.1,0.1 -0.1,0.1 -0.1,0.1 -0.2,0.2 -0.2,0.3 -0.1,0.1 -0.1,0.2 -0.2,0.3 v 0 c 0,0 0,0 0,0 -0.1,0.1 -0.1,0.2 -0.2,0.3 -0.1,0.1 -0.1,0.2 -0.2,0.3 -0.1,0.1 -0.1,0.2 -0.1,0.3 0,0 0,0 0,0 0,0 0,0 0,0 -0.1,0.1 -0.1,0.2 -0.1,0.4 0,0.1 -0.1,0.3 -0.1,0.4 0,0.1 0,0.1 -0.1,0.2 0,0 0,0.1 0,0.1 0,0 0,0.1 0,0.1 0,0.2 -0.1,0.3 -0.1,0.5 0,0.1 0,0.2 0,0.3 0,0 0,0.1 0,0.1 0,0 0,0.1 0,0.1 0,0.3 -0.1,0.5 -0.1,0.8 0,1.3 0.4,2.1 1.2,2.6 l 4.5,2.6 c -0.7,-0.4 -1.2,-1.3 -1.2,-2.6 0,-0.3 0,-0.6 0.1,-0.9 0,-0.1 0,-0.1 0,-0.2"
         clip-path="url(#SVGID_2_)"
         id="path1634" />
      <path
         class="st0"
         d="m 458.7,129 c 2.2,-1.3 4,-0.3 4,2.3 0,2.5 -1.8,5.6 -4,6.9 -2.2,1.3 -4,0.3 -4,-2.3 0,-2.5 1.8,-5.6 4,-6.9"
         clip-path="url(#SVGID_2_)"
         id="path1636" />
      <g
         class="st9"
         clip-path="url(#SVGID_2_)"
         id="g1666">
        <g
           id="g1664">
          <path
             class="st10"
             style="fill:orange"
             d="M 322.2,124.6 264.9,91.5 c -3.4,-1.9 -6.1,-0.4 -6.1,3.5 v 48.8 c 0,3.9 2.7,8.6 6.1,10.6 l 22.4,12.9 6.2,16 6.2,-8.8 22.4,12.9 c 3.4,1.9 6.1,0.4 6.1,-3.5 v -48.8 c 0.1,-3.9 -2.6,-8.6 -6,-10.5"
             id="path1638" >
             <animate attributeName="opacity" from="0" to="1" dur="1.3s" begin=".3s" fill="freeze" repeatCount="indefinite"/>
             </path>
          <polygon
             class="st11"
             points="279.1,73 279.2,50.3 283.6,52.9 283.6,71.4 290.9,75.6 290.9,79.8 "
             id="polygon1640" />
          <polygon
             class="st11"
             points="293.5,81.3 293.6,58.6 305,65.2 305,69.4 298,65.3 298,70.4 304.5,74.1 304.5,78.3 298,74.5 298,79.7 305.4,84 305.4,88.2 "
             id="polygon1642" />
          <path
             class="st11"
             d="m 315.4,70.8 c 1,0.6 1.9,1.2 2.7,1.8 0.8,0.6 1.5,1.2 2.2,1.9 v 4.7 c -0.3,-0.5 -0.7,-0.9 -1.1,-1.3 -0.4,-0.4 -0.8,-0.8 -1.2,-1.2 -0.4,-0.4 -0.8,-0.7 -1.2,-1 -0.4,-0.3 -0.8,-0.6 -1.2,-0.8 -0.5,-0.3 -1,-0.5 -1.4,-0.6 -0.4,-0.1 -0.8,-0.2 -1,-0.1 -0.3,0 -0.5,0.1 -0.7,0.3 -0.2,0.2 -0.2,0.5 -0.2,0.8 0,0.4 0.1,0.8 0.3,1.2 0.2,0.4 0.4,0.8 0.7,1.3 0.3,0.5 0.7,0.9 1.2,1.5 0.5,0.5 1,1.1 1.6,1.7 0.8,0.8 1.5,1.7 2.1,2.4 0.6,0.8 1.2,1.6 1.6,2.4 0.4,0.8 0.8,1.6 1,2.4 0.2,0.8 0.4,1.7 0.4,2.6 0,1.3 -0.2,2.2 -0.6,2.8 -0.4,0.6 -1,1 -1.7,1.1 -0.7,0.1 -1.6,0 -2.5,-0.3 -1,-0.3 -2,-0.8 -3,-1.4 -1.1,-0.6 -2.1,-1.3 -3.1,-2.1 -1,-0.8 -1.8,-1.6 -2.5,-2.4 v -5.1 c 0.8,1.2 1.7,2.3 2.6,3.2 0.9,0.9 1.9,1.7 2.8,2.2 0.6,0.3 1.1,0.6 1.5,0.7 0.4,0.1 0.8,0.2 1,0.1 0.3,0 0.5,-0.2 0.6,-0.4 0.1,-0.2 0.2,-0.5 0.2,-0.8 0,-0.4 -0.1,-0.9 -0.3,-1.4 -0.2,-0.5 -0.5,-1 -0.9,-1.5 -0.4,-0.5 -0.8,-1.1 -1.4,-1.6 -0.5,-0.6 -1.1,-1.2 -1.7,-1.8 -1.5,-1.6 -2.7,-3.2 -3.4,-4.7 -0.8,-1.5 -1.1,-3 -1.1,-4.5 0,-1.2 0.2,-2.1 0.6,-2.7 0.4,-0.6 1,-1 1.7,-1.1 0.7,-0.1 1.5,-0.1 2.5,0.2 1,0.3 1.8,0.9 2.9,1.5"
             id="path1644" />
          <path
             class="st11"
             d="m 331.2,79.9 c 1,0.6 1.9,1.2 2.7,1.8 0.8,0.6 1.5,1.2 2.2,1.9 v 4.7 c -0.3,-0.5 -0.7,-0.9 -1.1,-1.3 -0.4,-0.4 -0.8,-0.8 -1.2,-1.2 -0.4,-0.4 -0.8,-0.7 -1.2,-1 -0.4,-0.3 -0.8,-0.6 -1.2,-0.8 -0.5,-0.3 -1,-0.5 -1.4,-0.6 -0.4,-0.1 -0.8,-0.2 -1,-0.1 -0.3,0 -0.5,0.1 -0.7,0.3 -0.2,0.2 -0.2,0.5 -0.2,0.8 0,0.4 0.1,0.8 0.3,1.2 0.2,0.4 0.4,0.8 0.7,1.3 0.3,0.5 0.7,0.9 1.2,1.5 0.5,0.5 1,1.1 1.6,1.7 0.8,0.8 1.5,1.7 2.1,2.4 0.6,0.8 1.2,1.6 1.6,2.4 0.5,0.8 0.8,1.6 1,2.4 0.2,0.8 0.4,1.7 0.4,2.6 0,1.3 -0.2,2.2 -0.6,2.8 -0.4,0.6 -1,1 -1.7,1.1 -0.7,0.1 -1.5,0 -2.5,-0.3 -1,-0.3 -2,-0.8 -3,-1.4 -1.1,-0.6 -2.1,-1.3 -3.1,-2.1 -1,-0.8 -1.8,-1.6 -2.5,-2.4 v -5.1 c 0.8,1.2 1.7,2.3 2.6,3.2 0.9,0.9 1.9,1.7 2.8,2.2 0.6,0.3 1,0.6 1.5,0.7 0.4,0.1 0.8,0.2 1,0.1 0.3,0 0.5,-0.2 0.6,-0.4 0.1,-0.2 0.2,-0.5 0.2,-0.8 0,-0.4 -0.1,-0.9 -0.3,-1.4 -0.2,-0.5 -0.5,-1 -0.9,-1.5 -0.4,-0.5 -0.8,-1.1 -1.4,-1.6 -0.5,-0.6 -1.1,-1.2 -1.7,-1.8 -1.5,-1.6 -2.7,-3.2 -3.4,-4.7 -0.8,-1.5 -1.1,-3 -1.1,-4.5 0,-1.2 0.2,-2.1 0.6,-2.7 0.4,-0.6 1,-1 1.7,-1.1 0.7,-0.1 1.5,-0.1 2.5,0.2 0.9,0.5 1.9,0.9 2.9,1.5"
             id="path1646" />
          <path
             class="st11"
             d="m 355.8,97.3 c 1.7,3.1 2.6,6.4 2.6,9.9 0,3.6 -0.9,5.9 -2.7,7.1 -1.8,1.1 -4.2,0.9 -7.1,-0.8 -2.8,-1.6 -5.1,-4 -6.9,-7.2 -1.8,-3.1 -2.7,-6.4 -2.7,-9.8 0,-3.6 0.9,-6 2.7,-7.1 1.8,-1.2 4.2,-0.9 7.2,0.8 2.9,1.6 5.1,4 6.9,7.1 m -3.5,12 c 0.9,-0.8 1.4,-2.3 1.4,-4.5 0,-2.4 -0.4,-4.4 -1.3,-6.3 -0.9,-1.8 -2.1,-3.2 -3.6,-4 -1.6,-0.9 -2.8,-0.9 -3.7,-0.1 -0.9,0.8 -1.4,2.3 -1.4,4.5 0,2.3 0.4,4.3 1.4,6.1 0.9,1.8 2.1,3.2 3.6,4 1.5,1 2.7,1.1 3.6,0.3"
             id="path1648" />
          <path
             class="st11"
             d="m 379.5,108.2 -0.1,22.7 -4.5,-2.6 -8.1,-19 c -0.5,-1.1 -0.8,-1.9 -1,-2.5 0,0.8 0.1,2.1 0,3.7 V 123 l -4.2,-2.4 0.1,-22.7 4.8,2.8 7.8,18.4 c 0.4,0.8 0.7,1.6 1,2.4 0,-0.5 0,-1.6 0,-3.1 v -12.6 z"
             id="path1650" />
          <polygon
             class="st11"
             points="400.3,119.8 400.2,139 404.3,141.3 404.3,145.3 391.8,138 391.8,134.1 395.9,136.5 395.9,122.3 391.7,120.9 391.7,116.9 "
             id="polygon1652" />
          <polygon
             class="st12"
             points="348.4,196.9 348.4,191.2 406.6,224.8 406.6,230.5 "
             id="polygon1654" />
          <polygon
             class="st12"
             style="fill:orange"
             points="348.4,186 348.4,180.3 416.5,219.6 416.5,225.4 "
             id="polygon1656" >
             <animate attributeName="opacity" from="0" to="1" dur="1s" begin=".1s" fill="freeze" repeatCount="indefinite"/>
             </polygon>
          <polygon
             class="st12"
             style="fill:orange"
             points="348.5,164.3 348.5,158.6 427.2,204.1 427.2,209.8 "
             id="polygon1658" >
             <animate attributeName="opacity" from="0" to="1" dur="1s" begin=".4s" fill="freeze" repeatCount="indefinite"/>
             </polygon>
          <polygon
             class="st12"
             points="427.3,183.7 427.3,195.1 348.5,149.6 348.5,138.2 "
             id="polygon1660"
             transform="translate(6.8815e-5)"
             style="stroke-width:0.99998" >
             <animate attributeName="opacity" from="0" to="1" dur="1.5s" begin=".5s" fill="freeze" repeatCount="indefinite"/>
             </polygon>
          <polygon
             class="st12"
             style="fill:purple"
             points="348.4,175.2 348.5,169.5 427.2,214.9 427.2,220.6 "
             id="polygon1662" >
             <animate attributeName="opacity" from="0" to="1" dur="1.3s" begin=".3s" fill="freeze" repeatCount="indefinite"/>
             
             </polygon>
          <polygon
             class="st11"
             points="404.3,145.3 391.8,138 391.8,134.1 395.9,136.5 395.9,122.3 391.7,120.9 391.7,116.9 400.3,119.8 400.2,139 404.3,141.3 "
             id="polygon2046"
             transform="translate(16,10)" />
        </g>
      </g>
      <path
         class="st13"
         d="m 189.3,144.8 c 3.8,4.2 7.6,8.4 11.4,12.5 4,4.4 8.2,9 13.8,11.2 9.3,3.8 20,0.3 29,-4.1 3.7,-1.8 7.3,-3.7 10.8,-5.8 4,-2.4 3.7,-2.6 7.5,-5.2 2.4,-1.6 4.8,-3.2 7.3,-4.6 2.4,-1.3 5.4,-2.3 7.2,-4.3 1.1,-1.3 1.8,-2.8 2.5,-4.3 1.7,-3.7 4.2,-8.3 3.2,-12.5 -0.1,-0.5 -0.3,-1 -0.3,-1.6 0,-0.9 0.4,-1.7 0.5,-2.6 0,-0.9 -0.7,-2 -1.6,-1.6 -0.3,0.1 -0.6,0.5 -0.8,0.8 -1,1.2 -2.3,2 -3.6,2.8 -5.3,3.3 -10.1,7.4 -14.5,11.8 -6.6,6.6 -9.6,9.2 -18.3,12.7 -5.7,2.3 -4.6,1.5 -10.7,2 -6.1,0.5 -12.6,-1 -17.1,-5.1 -2.3,-2.1 -4,-4.8 -5.6,-7.5 l -7.4,-12 z"
         clip-path="url(#SVGID_2_)"
         id="path1668" />
      <path
         class="st14"
         d="m 146.4,353.4 c 3.8,3.1 9.4,0.3 9.7,0.5 3.9,3.9 9.7,8.3 14,11.6 2.4,1.9 6,4.3 5.4,7.9 -1.2,6.4 -11.4,4.4 -15.3,2.5 -3.8,-1.9 -7,-5.2 -10.7,-7.5 -2.6,-1.6 -5.2,-2.5 -5.6,-5.7 -0.2,-1.9 1.8,-9.4 2.5,-9.3"
         clip-path="url(#SVGID_2_)"
         id="path1670" />
      <path
         class="st15"
         d="m 144,361.5 c 0.5,3.1 3,4 5.6,5.6 3.7,2.3 7,5.6 10.8,7.6 3.6,1.8 12.5,3.6 15,-1 -1.4,6.2 -11.4,4.2 -15.2,2.3 -3.8,-1.9 -7,-5.2 -10.7,-7.5 -2.6,-1.6 -5.2,-2.5 -5.6,-5.7 0,-0.3 0,-0.8 0.1,-1.3"
         clip-path="url(#SVGID_2_)"
         id="path1672" />
      <path
         class="st14"
         d="m 179.3,341.2 c 3.8,3.1 10.4,-0.3 10.7,0 3.9,3.9 8.2,7.9 12.5,11.3 2.4,1.9 6,4.3 5.4,7.9 -1.2,6.4 -11.4,4.4 -15.3,2.5 -3.8,-1.9 -7,-5.2 -10.7,-7.5 -2.6,-1.6 -5.2,-2.5 -5.6,-5.7 -0.2,-2 2.3,-8.6 3,-8.5"
         clip-path="url(#SVGID_2_)"
         id="path1674" />
      <path
         class="st15"
         d="m 176.5,348.8 c 0.5,3.1 3,4 5.6,5.6 3.7,2.3 7,5.6 10.8,7.6 3.6,1.8 12.5,3.6 15,-1 -1.4,6.2 -11.4,4.2 -15.2,2.3 -3.8,-1.9 -7,-5.2 -10.7,-7.5 -2.6,-1.6 -5.2,-2.5 -5.6,-5.7 0,-0.3 0,-0.8 0.1,-1.3"
         clip-path="url(#SVGID_2_)"
         id="path1676" />
      <path
         class="st16"
         d="m 146.2,213.5 c 0.2,5.7 2,30.6 2.8,43.8 0.8,13.2 1,29.3 1,29.3 0,0 -2.3,9.6 -3.7,20.9 -1.5,11.3 0,46.9 0,46.9 0,0 4.3,3.2 9.7,0 0,0 6.1,-28.5 8.9,-41.3 2.8,-12.8 3.3,-20.2 4.8,-28.2 1.8,-9.6 5.6,-54.5 5.6,-54.5 l 1.5,0.1 4.1,50.7 c 0,0 -1.6,4.2 -2.6,11.5 -1.1,8.3 1.2,49.8 1.2,49.8 0,0 4.7,3.1 10.5,-0.4 0,0 10.1,-55 10.1,-63.4 0,-5.5 -0.9,-78.6 -0.9,-78.6 z"
         clip-path="url(#SVGID_2_)"
         id="path1678" />
      <path
         class="st13"
         d="m 159.9,102.8 c 0,0 0.6,12.5 0.4,13.6 -0.3,1.1 -5.7,4.8 -7.3,6.1 -1.6,1.3 8.6,11.4 13.6,13.7 5,2.3 20.7,-3.7 21,-11.5 0.3,-7.7 -2.7,-14.2 -5.1,-14.6 -2.5,-0.3 -22.6,-7.3 -22.6,-7.3"
         clip-path="url(#SVGID_2_)"
         id="path1680" />
      <path
         class="st17"
         d="m 158.5,118.5 c 0,0 9.1,13.5 21.7,14.8 4,-3.9 4.4,-17.9 -1.2,-22.4 0,0 5.1,-4.1 8.5,-3.3 0,0 5.5,2.8 7.8,10 2.3,7.1 4.7,15.7 4.5,28.9 -0.2,13.3 0,53.8 0,53.8 0,0 -1.8,8.6 -13.2,14.9 -11.4,6.4 -19.9,7 -27.7,5.2 -6.4,-1.5 -11.7,-3.8 -13.9,-8.4 0.6,-9.3 4.7,-33.5 3.2,-45.2 -1.5,-11.7 -4,-20.4 -4.7,-29.9 -0.6,-9.4 1.2,-9.3 6,-12.6 6.4,-4.5 9,-5.8 9,-5.8"
         clip-path="url(#SVGID_2_)"
         id="path1682" />
      <path
         class="st13"
         d="m 166.1,223.6 c -2,-1.2 -3.5,-2.9 -6.5,-4.3 -2.6,-1.3 -4.5,-1.8 -6.3,-3.8 -2,-2.2 -4.1,-10.3 -6.1,-18 -2.3,-9.2 -2,-21.4 -1.1,-26.6 1.8,-10.6 6.6,-25.3 8,-31.4 1.4,-6.1 -0.4,-8.7 -3.1,-11.1 -3.2,-2.9 -7.9,-2 -10.9,6.4 -3.1,8.4 -6.9,23.9 -8,36.1 -0.5,5.9 -0.6,15.4 2.4,27.2 2,8.2 5,14.3 8.9,21.9 1,2.1 1.3,3.9 2.8,8 1.5,4.2 4.3,8.6 7.2,11 2.9,2.4 4.3,2.8 5,2.4 0.9,-0.5 0.8,-1.4 -0.4,-2.7 -1.2,-1.2 -3.4,-3.1 -5,-6.4 0,0 2.5,2.8 4.1,4.4 1.6,1.6 3.4,2.8 4.8,3.5 1.7,0.9 4.3,-0.4 3.1,-1.7 -1.2,-1.3 -2.4,-1.9 -4.8,-4.3 -2.2,-2.1 -3.3,-4.1 -3.3,-4.1 0,0 2.7,2.4 5.3,4 2.6,1.6 4.1,1.7 5,1.7 0.9,0 2.2,-1.2 0.5,-2.6 -1.5,-1.2 -3.9,-2.2 -6.4,-5 -1.8,-2 -2.8,-3.7 -2.2,-3.7 0.5,0 1.5,1.3 3.7,2.1 2.1,0.8 4.7,0.4 5,-0.8 0.4,-1.3 0.3,-1 -1.7,-2.2"
         clip-path="url(#SVGID_2_)"
         id="path1684" />
      <path
         class="st13"
         d="m 188.2,84.2 v 0 c -1.5,-9.7 -8.5,-17 -18.5,-16.5 -10.6,0.6 -18.8,9.7 -18.2,20.3 0.3,6.2 3.6,11.5 8.4,14.8 0,0 0.9,3.5 1.5,4.2 3.5,4.1 14.2,6.7 17.3,6.3 3.9,-0.6 6.1,-2.2 8,-6.5 3.3,-7.7 2.3,-17.8 1.5,-22.6"
         clip-path="url(#SVGID_2_)"
         id="path1686" />
      <path
         class="st18"
         d="m 159.9,102.8 v 0 l 0.9,-8.5 c 0,0 -6.9,-17.9 9.4,-14.5 10.8,2.3 13.5,3.3 16.8,-4 3.3,-7.2 -8.3,-13.7 -22,-11.9 -13.7,1.8 -17.4,13.9 -17,19.3 0.3,5.3 1.8,16.1 11.9,19.6"
         clip-path="url(#SVGID_2_)"
         id="path1688" />
      <path
         class="st19"
         d="m 131.9,151.4 c 0,0 8.9,8.9 19.5,6.3 1.5,-1 5.1,-21.8 5.1,-21.8 0,0 0,-11.5 -8.8,-11.2 -8.8,0.3 -15.8,26.7 -15.8,26.7"
         clip-path="url(#SVGID_2_)"
         id="path1690" />
      <path
         class="st19"
         d="m 199.3,134.2 c 0,0 4.7,-0.2 6.6,-2.9 -0.4,-4.6 -6.3,-22.3 -18.2,-23.6 0,0 5.2,3.4 7.5,9 2,5.3 4.1,17.5 4.1,17.5"
         clip-path="url(#SVGID_2_)"
         id="path1692" />
      <polygon
         class="st20"
         points="272,147 270.3,152.5 266.5,151.1 269,145.8 "
         clip-path="url(#SVGID_2_)"
         id="polygon1694" />
      <polygon
         class="st20"
         points="295.4,82.1 279.1,129.7 275.4,128.3 293.9,81.5 "
         clip-path="url(#SVGID_2_)"
         id="polygon1696" />
      <polyline
         class="st21"
         points="43.8,439.9 61.8,456.3 78.8,440.4  "
         clip-path="url(#SVGID_2_)"
         id="polyline1698" />
      <polygon
         class="st22"
         points="95.9,465.6 61.8,420.7 65.7,417.8 98.9,463.4 "
         clip-path="url(#SVGID_2_)"
         id="polygon1700" />
      <path
         class="st4"
         d="m 96.8,460.6 c 0.1,0 0.1,0 0,0 0,0.1 0,0.1 0,0.1 0,0 0,0 0,0 0,0.1 0,0.1 0,0.2 0,0 0,0 0,0 0,0.1 0,0.1 0,0.2 0,0 0,0.1 0,0.1 0,0 0,0 0,0 0,0.1 -0.1,0.3 -0.2,0.4 0,0 0,0 0,0 0,0 0,0.1 -0.1,0.1 0,0.1 -0.1,0.1 -0.1,0.2 0,0 0,0 0,0.1 0,0 -0.1,0.1 -0.1,0.1 0,0 0,0 0,0 0,0 0,0 0,0 -0.1,0.1 -0.1,0.1 -0.2,0.1 l -0.2,0.1 c -0.1,0 -0.1,0.1 -0.2,0.1 0,0 0,0 -0.1,0 0,0 0,0 0,0 0,0 0,0 -0.1,0 -0.1,0 -0.1,0.1 -0.2,0.1 0,0 0,0 -0.1,0 0,0 0,0 -0.1,0 0,0 -0.1,0 -0.1,0 -0.1,0 -0.1,0 -0.2,0.1 0,0 0,0 -0.1,0 -0.1,0 -0.2,0 -0.3,0.1 -0.2,0 -0.4,0 -0.6,-0.1 l 1.9,2.7 c 0.2,0.3 0.5,0.4 1,0.4 0.1,0 0.2,0 0.3,0 0,0 0,0 0,0 0.1,0 0.1,0 0.2,0 0,0 0.1,0 0.1,0 0,0 0,0 0,0 0,0 0,0 0,0 0.1,0 0.1,-0.1 0.2,-0.1 0,0 0,0 0.1,0 0,0 0,0 0,0 0,0 0,0 0.1,0 0.1,0 0.1,-0.1 0.2,-0.1 l 0.2,-0.1 c 0.1,0 0.1,-0.1 0.2,-0.2 0,0 0,0 0,0 0,0 0.1,-0.1 0.1,-0.1 0,0 0,0 0,-0.1 0.1,-0.2 0.2,-0.3 0.3,-0.5 0.1,-0.2 0.2,-0.5 0.2,-0.7 0,-0.4 -0.3,-0.6 -0.5,-0.9 -0.2,-0.3 -0.4,-0.6 -0.7,-0.9 -0.2,-0.5 -0.5,-1 -0.9,-1.4 0,-0.1 0,0 0,0"
         clip-path="url(#SVGID_2_)"
         id="path1702" />
      <polygon
         class="st22"
         points="19.6,468.9 56.1,418.2 60,421.1 22.6,471.1 "
         clip-path="url(#SVGID_2_)"
         id="polygon1704" />
      <path
         class="st4"
         d="m 24.6,468.3 c 0,0 0,0 0,0 -0.1,0 -0.1,0 -0.1,0 0,0 0,0 0,0 -0.1,0 -0.1,0 -0.2,0 0,0 0,0 0,0 -0.1,0 -0.1,0 -0.2,0 0,0 -0.1,0 -0.1,0 0,0 0,0 0,0 -0.1,0 -0.3,0 -0.4,-0.1 0,0 0,0 0,0 0,0 -0.1,0 -0.1,0 -0.1,0 -0.1,0 -0.2,-0.1 0,0 0,0 -0.1,0 -0.1,0 -0.1,0 -0.2,-0.1 0,0 0,0 -0.1,0 0,0 0,0 0,0 -0.1,0 -0.1,-0.1 -0.2,-0.1 l -0.2,-0.1 c -0.1,0 -0.1,-0.1 -0.2,-0.1 0,0 0,0 -0.1,0 0,0 0,0 0,0 0,0 0,0 -0.1,0 -0.1,0 -0.1,-0.1 -0.1,-0.1 0,0 0,0 0,0 0,0 0,0 0,0 0,0 0,-0.1 -0.1,-0.1 0,0 -0.1,-0.1 -0.1,-0.2 0,0 0,0 0,-0.1 -0.1,-0.1 -0.1,-0.2 -0.1,-0.3 -0.1,-0.2 -0.1,-0.4 -0.1,-0.6 l -2,2.6 c -0.2,0.3 -0.2,0.6 -0.1,1.1 0,0.1 0.1,0.2 0.1,0.3 0,0 0,0 0,0 0,0 0.1,0.1 0.1,0.2 0,0 0,0 0.1,0.1 0,0 0,0 0,0 0,0 0,0 0,0 0,0 0.1,0.1 0.1,0.1 0,0 0,0 0.1,0 0,0 0,0 0,0 0,0 0,0 0.1,0 0,0 0.1,0.1 0.1,0.1 l 0.2,0.1 c 0.1,0 0.1,0.1 0.2,0.1 0,0 0,0 0,0 0.1,0 0.1,0.1 0.1,0.1 0,0 0,0 0.1,0 0.2,0.1 0.4,0.1 0.6,0.2 0.3,0 0.5,0 0.8,0 0.3,-0.1 0.5,-0.5 0.7,-0.7 0.2,-0.3 0.4,-0.6 0.7,-0.9 0.4,-0.5 0.7,-0.9 1,-1.4 0.1,0 0.1,0 0,0"
         clip-path="url(#SVGID_2_)"
         id="path1706" />
      <path
         class="st23"
         d="m 53.6,422.3 c 0,0 0.5,1.2 1.5,2 1,0.8 2.2,1 2.2,1 l 1.3,-1.7 c 0,0 0.6,-0.8 0.9,-1.2 0.4,-0.5 0.8,-1 1.2,-1.6 0.3,-0.4 0.5,-1 0.3,-1.6 0,-0.1 -0.1,-0.3 -0.1,-0.4 0,0 0,0 0,-0.1 0,-0.1 -0.1,-0.1 -0.1,-0.2 0,0 -0.1,-0.1 -0.1,-0.1 0,0 0,0 0,-0.1 0,0 0,0 0,-0.1 0,-0.1 -0.1,-0.1 -0.2,-0.2 0,0 0,0 -0.1,-0.1 0,0 0,0 0,0 0,0 0,0 -0.1,-0.1 -0.1,-0.1 -0.1,-0.1 -0.2,-0.1 l -0.2,-0.1 c -0.1,-0.1 -0.2,-0.1 -0.3,-0.2 0,0 0,0 -0.1,0 -0.1,0 -0.1,-0.1 -0.2,-0.1 0,0 -0.1,0 -0.1,0 -0.3,0 -0.5,-0.1 -0.8,-0.1 -0.4,0 -0.7,0 -1.1,0.2 -0.5,0.3 -0.8,0.8 -1.1,1.2 -0.4,0.5 -0.7,1 -1.1,1.5 l -0.9,1.2 c -0.1,0.1 -0.6,1 -0.6,1"
         clip-path="url(#SVGID_2_)"
         id="path1708" />
      <path
         class="st23"
         d="m 65.3,425.1 c 0,0 1.3,-0.1 2.3,-0.9 1,-0.7 1.6,-1.9 1.6,-1.9 l -1.3,-1.7 c 0,0 -0.6,-0.8 -0.9,-1.2 -0.4,-0.5 -0.8,-1.1 -1.2,-1.6 -0.3,-0.4 -0.8,-0.7 -1.5,-0.8 -0.1,0 -0.3,0 -0.5,0 0,0 0,0 -0.1,0 -0.1,0 -0.2,0 -0.2,0 0,0 -0.1,0 -0.1,0 0,0 0,0 -0.1,0 0,0 0,0 -0.1,0 -0.1,0 -0.1,0.1 -0.2,0.1 0,0 0,0 -0.1,0 0,0 0,0 -0.1,0 0,0 -0.1,0 -0.1,0 -0.1,0 -0.1,0.1 -0.2,0.1 l -0.2,0.2 c -0.1,0.1 -0.1,0.1 -0.2,0.2 0,0 0,0 0,0.1 -0.1,0.1 -0.1,0.1 -0.1,0.2 0,0 0,0.1 0,0.1 -0.1,0.3 -0.3,0.5 -0.3,0.7 -0.1,0.4 -0.2,0.7 -0.1,1.1 0.1,0.6 0.5,1 0.9,1.4 0.4,0.5 0.7,0.9 1.1,1.4 0.3,0.4 0.6,0.8 0.9,1.2 0.1,0.5 0.8,1.3 0.8,1.3"
         clip-path="url(#SVGID_2_)"
         id="path1710" />
      <g
         class="st24"
         clip-path="url(#SVGID_2_)"
         id="g1786">
        <g
           id="g1784">
          <defs
             id="defs1713">
            <rect
               id="rect2039"
               x="57.900002"
               y="449.70001"
               width="7.8000002"
               height="7.5" />
          </defs>
          <clipPath
             id="SVGID_6_">
            <use
               xlink:href="#SVGID_5_"
               style="overflow:visible"
               id="use1715"
               x="0"
               y="0"
               width="100%"
               height="100%" />
          </clipPath>
          <g
             class="st25"
             clip-path="url(#SVGID_6_)"
             id="g1780">
            <g
               id="g1778">
              <defs
                 id="defs1719">
                <rect
                   id="rect2044"
                   x="57.900002"
                   y="452"
                   width="7.8000002"
                   height="5.3000002" />
              </defs>
              <clipPath
                 id="SVGID_8_">
                <use
                   xlink:href="#SVGID_7_"
                   style="overflow:visible"
                   id="use1721"
                   x="0"
                   y="0"
                   width="100%"
                   height="100%" />
              </clipPath>
              <g
                 class="st26"
                 clip-path="url(#SVGID_8_)"
                 id="g1776">
                <defs
                   id="defs1725">
                  <path
                     id="path2049"
                     d="m 65.7,452 v 3 c 0,0.6 -0.4,1.1 -1.1,1.6 -1.5,0.9 -4,0.9 -5.5,0 -0.8,-0.4 -1.1,-1 -1.1,-1.6 v -3 c 0,0.6 0.4,1.2 1.1,1.6 1.5,0.9 4,0.9 5.5,0 0.7,-0.5 1.1,-1 1.1,-1.6" />
                </defs>
                <clipPath
                   id="SVGID_10_">
                  <use
                     xlink:href="#SVGID_9_"
                     style="overflow:visible"
                     id="use1727"
                     x="0"
                     y="0"
                     width="100%"
                     height="100%" />
                </clipPath>
                <g
                   class="st27"
                   clip-path="url(#SVGID_10_)"
                   id="g1774">
                  <g
                     id="g1772">
                    <defs
                       id="defs1731">
                      <rect
                         id="rect2054"
                         x="57.900002"
                         y="452"
                         width="7.8000002"
                         height="5.3000002" />
                    </defs>
                    <clipPath
                       id="SVGID_12_">
                      <use
                         xlink:href="#SVGID_11_"
                         style="overflow:visible"
                         id="use1733"
                         x="0"
                         y="0"
                         width="100%"
                         height="100%" />
                    </clipPath>
                    <path
                       class="st28"
                       d="m 65.7,452 v 3 c 0,0 0,0 0,0 v -3 c 0,0 0,0 0,0"
                       clip-path="url(#SVGID_12_)"
                       id="path1736" />
                    <path
                       class="st29"
                       d="m 65.7,452 v 3 c 0,0.1 0,0.1 0,0.2 v -3 c 0,0 0,-0.1 0,-0.2"
                       clip-path="url(#SVGID_12_)"
                       id="path1738" />
                    <path
                       class="st30"
                       d="m 65.7,452.3 v 3 c 0,0.1 0,0.1 -0.1,0.2 v -3 c 0.1,-0.1 0.1,-0.2 0.1,-0.2"
                       clip-path="url(#SVGID_12_)"
                       id="path1740" />
                    <path
                       class="st31"
                       d="m 65.6,452.5 v 3 c 0,0.1 -0.1,0.1 -0.1,0.2 v -3 c 0.1,-0.1 0.1,-0.2 0.1,-0.2"
                       clip-path="url(#SVGID_12_)"
                       id="path1742" />
                    <path
                       class="st32"
                       d="m 65.5,452.7 v 3 c 0,0.1 -0.1,0.2 -0.2,0.2 v -3 c 0.1,-0.1 0.2,-0.1 0.2,-0.2"
                       clip-path="url(#SVGID_12_)"
                       id="path1744" />
                    <path
                       class="st33"
                       d="m 65.4,452.9 v 3 c -0.1,0.1 -0.2,0.2 -0.2,0.3 v -3 c 0,-0.1 0.1,-0.2 0.2,-0.3"
                       clip-path="url(#SVGID_12_)"
                       id="path1746" />
                    <path
                       class="st34"
                       d="m 65.1,453.2 v 3 c -0.1,0.1 -0.3,0.3 -0.5,0.4 v -3 c 0.2,-0.2 0.4,-0.3 0.5,-0.4"
                       clip-path="url(#SVGID_12_)"
                       id="path1748" />
                    <path
                       class="st35"
                       d="m 64.6,453.6 v 3 c 0,0 0,0 0,0 -0.3,0.2 -0.5,0.3 -0.8,0.4 v -3 c 0.2,-0.1 0.5,-0.3 0.8,-0.4 0,0 0,0 0,0"
                       clip-path="url(#SVGID_12_)"
                       id="path1750" />
                    <path
                       class="st34"
                       d="m 63.7,454 v 3 c -0.2,0.1 -0.5,0.1 -0.7,0.2 v -3 c 0.3,-0.1 0.5,-0.2 0.7,-0.2"
                       clip-path="url(#SVGID_12_)"
                       id="path1752" />
                    <path
                       class="st33"
                       d="m 63,454.1 v 3 c -0.2,0 -0.3,0.1 -0.5,0.1 v -3 c 0.2,0 0.3,0 0.5,-0.1"
                       clip-path="url(#SVGID_12_)"
                       id="path1754" />
                    <path
                       class="st32"
                       d="m 62.5,454.2 v 3 c -0.1,0 -0.3,0 -0.4,0 v -3 c 0.1,0 0.3,0 0.4,0"
                       clip-path="url(#SVGID_12_)"
                       id="path1756" />
                    <path
                       class="st31"
                       d="m 62.1,454.2 v 3 c -0.1,0 -0.3,0 -0.4,0 v -3 c 0.1,0 0.2,0 0.4,0"
                       clip-path="url(#SVGID_12_)"
                       id="path1758" />
                    <path
                       class="st30"
                       d="m 61.7,454.2 v 3 c -0.1,0 -0.3,0 -0.4,0 v -3 c 0.1,0 0.3,0 0.4,0"
                       clip-path="url(#SVGID_12_)"
                       id="path1760" />
                    <path
                       class="st29"
                       d="m 61.3,454.2 v 3 c -0.1,0 -0.3,0 -0.4,0 v -3 c 0.1,0 0.3,0 0.4,0"
                       clip-path="url(#SVGID_12_)"
                       id="path1762" />
                    <path
                       class="st28"
                       d="m 60.9,454.2 v 3 c -0.1,0 -0.3,0 -0.4,-0.1 v -3 c 0.2,0 0.3,0.1 0.4,0.1"
                       clip-path="url(#SVGID_12_)"
                       id="path1764" />
                    <path
                       class="st36"
                       d="m 60.5,454.1 v 3 c -0.1,0 -0.3,-0.1 -0.4,-0.1 v -3 c 0.2,0 0.3,0.1 0.4,0.1"
                       clip-path="url(#SVGID_12_)"
                       id="path1766" />
                    <path
                       class="st37"
                       d="m 60.1,454 v 3 c -0.2,0 -0.3,-0.1 -0.5,-0.2 v -3 c 0.2,0.1 0.4,0.2 0.5,0.2"
                       clip-path="url(#SVGID_12_)"
                       id="path1768" />
                    <path
                       class="st38"
                       d="m 59.7,453.8 v 3 c -0.2,-0.1 -0.4,-0.2 -0.6,-0.3 -0.8,-0.4 -1.1,-1 -1.1,-1.6 v -3 c 0,0.6 0.4,1.2 1.1,1.6 0.2,0.2 0.4,0.3 0.6,0.3"
                       clip-path="url(#SVGID_12_)"
                       id="path1770" />
                  </g>
                </g>
              </g>
            </g>
          </g>
          <path
             class="st39"
             d="m 64.6,450.4 c 1.5,0.9 1.5,2.3 0,3.2 -1.5,0.9 -4,0.9 -5.5,0 -1.5,-0.9 -1.5,-2.3 0,-3.2 1.5,-0.9 4,-0.9 5.5,0"
             clip-path="url(#SVGID_6_)"
             id="path1782" />
        </g>
      </g>
      <path
         class="st22"
         d="M 64.1,281.7 64,414.4 v 6.9 30.9 0 c 0,0 0,0.1 0,0.1 0,0 0,0 0,0.1 0,0 0,0 0,0 v 0 c 0,0.1 0,0.1 -0.1,0.1 0,0 0,0 0,0.1 0,0 0,0 0,0 0,0 0,0 0,0 0,0.1 -0.1,0.1 -0.1,0.1 0,0 0,0 0,0 0,0 -0.1,0.1 -0.2,0.1 0,0 -0.1,0 -0.1,0.1 0,0 0,0 0,0 -0.1,0.1 -0.3,0.1 -0.4,0.2 0,0 0,0 0,0 0,0 -0.1,0 -0.1,0 -0.1,0 -0.1,0 -0.2,0 0,0 0,0 -0.1,0 -0.1,0 -0.1,0 -0.2,0 0,0 0,0 -0.1,0 v 0 c -0.1,0 -0.2,0 -0.2,0 H 62 c -0.1,0 -0.2,0 -0.2,0 0,0 0,0 -0.1,0 0,0 0,0 0,0 0,0 0,0 -0.1,0 h -0.2 c 0,0 0,0 -0.1,0 0,0 0,0 -0.1,0 0,0 -0.1,0 -0.1,0 -0.1,0 -0.1,0 -0.2,-0.1 0,0 0,0 -0.1,0 v 0 c -0.1,0 -0.2,-0.1 -0.3,-0.1 -0.4,-0.3 -0.6,-0.6 -0.6,-0.9 v -30.9 0 -6.8 L 60,281.5 c 0,-0.3 0.2,-0.6 0.6,-0.9 0.8,-0.5 2.2,-0.5 3.1,0 0.5,0.3 0.7,0.7 0.6,1 -0.2,0.2 -0.2,0.1 -0.2,0.1"
         clip-path="url(#SVGID_2_)"
         id="path1788" />
      <path
         class="st40"
         d="m 64,414.4 v 6.9 c 0,0 0,0.1 0,0.1 0,0 0,0.1 0,0.1 0,0 0,0 0,0 0,0 0,0 0,0 0,0 0,0.1 0,0.1 0,0 0,0 0,0.1 0,0 0,0 0,0 0,0 0,0 0,0 0,0 -0.1,0.1 -0.1,0.1 v 0 c 0,0 -0.1,0.1 -0.1,0.1 0,0 -0.1,0.1 -0.1,0.1 0,0 0,0 0,0 -0.1,0.1 -0.4,0.2 -0.4,0.2 0,0 0,0 -0.1,0 0,0 -0.1,0 -0.1,0 -0.1,0 -0.1,0 -0.2,0.1 0,0 0,0 -0.1,0 -0.1,0 -0.1,0 -0.2,0 0,0 0,0 -0.1,0 v 0 c -0.1,0 -0.2,0 -0.2,0 h -0.2 c -0.1,0 -0.2,0 -0.2,0 0,0 0,0 -0.1,0 0,0 0,0 0,0 h -0.1 c -0.1,0 -0.1,0 -0.2,0 0,0 0,0 -0.1,0 0,0 0,0 -0.1,0 0,0 -0.1,0 -0.1,0 -0.1,0 -0.1,0 -0.2,-0.1 0,0 0,0 -0.1,0 0,0 0,0 0,0 -0.1,0 -0.2,-0.1 -0.3,-0.1 -0.4,-0.2 -0.6,-0.6 -0.6,-0.9 v 0 -6.8 c 0.1,0.1 0.3,0.3 0.6,0.4 0.1,0.1 0.2,0.1 0.3,0.1 0,0 0,0 0,0 0,0 0,0 0.1,0 0.1,0 0.1,0 0.2,0.1 0,0 0.1,0 0.1,0 0,0 0,0 0.1,0 0.1,0 0,0 0.1,0 0.1,0 0.1,0 0.2,0 h 0.1 c 0,0 0,0 0.1,0 0,0 0,0 0.1,0 0.1,0 0.2,0 0.2,0 H 62 c 0.1,0 0.2,0 0.3,0 0,0 0,0 0,0 0,0 0.1,0 0.1,0 0.1,0 0.1,0 0.2,0 0,0 0,0 0.1,0 0.1,0 0.1,0 0.2,-0.1 0,0 0.1,0 0.1,0 0,0 0,0 0,0 0.2,-0.1 0.3,-0.1 0.5,-0.2 0,0 0,0 0,0 0,0 0.1,0 0.1,-0.1 0,0 0.1,-0.1 0.1,-0.1 0,0 0,0 0,0 0,0 0.1,-0.1 0.1,-0.1 0.1,0.1 0.1,0.1 0.2,0 0,0.1 0,0.1 0,0 0,0.1 0,0.1 0,0"
         clip-path="url(#SVGID_2_)"
         id="path1790" />
      <polygon
         class="st22"
         points="71.7,499.1 59.8,421.3 64.6,420.6 75.4,498.5 "
         clip-path="url(#SVGID_2_)"
         id="polygon1792" />
      <path
         class="st4"
         d="m 74.9,495.1 c 0,0 0,0.1 0,0 0,0.1 0,0.1 0,0.1 0,0 0,0 0,0 0,0.1 -0.1,0.1 -0.1,0.2 0,0 0,0 0,0 0,0 -0.1,0.1 -0.1,0.1 0,0 -0.1,0.1 -0.1,0.1 0,0 0,0 0,0 -0.1,0.1 -0.2,0.2 -0.4,0.2 0,0 0,0 0,0 0,0 -0.1,0 -0.1,0 -0.1,0 -0.1,0.1 -0.2,0.1 0,0 0,0 -0.1,0 -0.1,0 -0.1,0 -0.2,0.1 0,0 0,0 -0.1,0 0,0 0,0 0,0 -0.1,0 -0.1,0 -0.2,0 h -0.2 c -0.1,0 -0.1,0 -0.2,0 0,0 0,0 -0.1,0 0,0 0,0 -0.1,0 0,0 0,0 -0.1,0 -0.1,0 -0.1,0 -0.2,0 0,0 0,0 -0.1,0 0,0 0,0 -0.1,0 0,0 -0.1,0 -0.1,0 -0.1,0 -0.1,0 -0.2,0 0,0 0,0 -0.1,0 -0.1,0 -0.2,-0.1 -0.3,-0.1 -0.2,-0.1 -0.4,-0.2 -0.5,-0.4 l 0.4,3.3 c 0,0.3 0.3,0.6 0.7,0.8 0.1,0 0.2,0.1 0.3,0.1 0,0 0,0 0,0 0.1,0 0.1,0 0.2,0 0,0 0.1,0 0.1,0 0,0 0,0 0.1,0 0,0 0,0 0.1,0 0.1,0 0.1,0 0.2,0 0,0 0,0 0.1,0 0,0 0,0 0,0 0,0 0,0 0.1,0 0.1,0 0.1,0 0.2,0 h 0.2 c 0.1,0 0.1,0 0.2,0 0,0 0,0 0,0 0.1,0 0.1,0 0.2,0 0,0 0,0 0.1,0 0.2,-0.1 0.4,-0.2 0.5,-0.3 0.2,-0.2 0.4,-0.3 0.5,-0.6 0.2,-0.3 0.1,-0.7 0,-1 -0.1,-0.4 -0.1,-0.7 -0.2,-1.1 0.1,-0.5 0,-1.1 -0.1,-1.6 0.1,0 0,0 0,0"
         clip-path="url(#SVGID_2_)"
         id="path1794" />
      <path
         class="st23"
         d="m 60.4,424.9 c 0,0 0,-0.1 0,-0.1 0,0 0,0 0,-0.1 0,0 0,0 0,-0.1 0,-0.1 0.1,-0.2 0.1,-0.2 0,0 0,0 0,0 0,-0.1 0.1,-0.1 0.1,-0.2 0,-0.1 0.1,-0.1 0.1,-0.1 0,0 0,0 0,0 0.1,-0.1 0.3,-0.3 0.4,-0.4 0,0 0,0 0.1,0 0,0 0.1,0 0.1,-0.1 0.1,0 0.1,-0.1 0.2,-0.1 0,0 0.1,0 0.1,0 0.1,0 0.1,-0.1 0.2,-0.1 0,0 0,0 0.1,0 0,0 0,0 0,0 0.1,0 0.2,0 0.3,-0.1 h 0.3 c 0.1,0 0.2,0 0.3,0 0,0 0.1,0 0.1,0 0,0 0,0 0.1,0 0,0 0.1,0 0.1,0 0.1,0 0.2,0 0.3,0 0,0 0,0 0.1,0 0,0 0,0 0.1,0 0,0 0.1,0 0.1,0 0.1,0 0.2,0 0.2,0.1 0,0 0.1,0 0.1,0 0.1,0.1 0.3,0.1 0.4,0.2 0.3,0.2 0.5,0.4 0.7,0.6 L 64.4,419 c -0.1,-0.5 -0.4,-1 -0.9,-1.4 -0.1,-0.1 -0.2,-0.1 -0.4,-0.2 0,0 0,0 -0.1,0 -0.1,0 -0.1,-0.1 -0.2,-0.1 0,0 -0.1,0 -0.1,0 0,0 0,0 -0.1,0 0,0 0,0 -0.1,0 -0.1,0 -0.2,0 -0.2,0 0,0 -0.1,0 -0.1,0 0,0 0,0 -0.1,0 0,0 -0.1,0 -0.1,0 -0.1,0 -0.2,0 -0.2,0 h -0.2 c -0.1,0 -0.2,0 -0.3,0.1 0,0 0,0 -0.1,0 -0.1,0 -0.1,0 -0.2,0.1 0,0 -0.1,0 -0.1,0 -0.2,0.2 -0.5,0.3 -0.7,0.5 -0.3,0.3 -0.5,0.5 -0.6,0.9 -0.2,0.5 0,1.1 0.1,1.7 0.1,0.6 0.2,1.2 0.3,1.8 0.1,0.9 0.3,1.9 0.4,2.8 0,-0.2 0,-0.2 0,-0.3"
         clip-path="url(#SVGID_2_)"
         id="path1796" />
      <path
         class="st23"
         d="m 91.4,274 c 0,-0.1 0,-0.2 0,-0.4 0,-0.1 0,-0.1 0,-0.2 v -0.1 c 0,0 0,-0.1 0,-0.1 0,-0.1 0,-0.2 0,-0.4 0,-0.1 0,-0.2 -0.1,-0.4 0,0 0,0 0,0 0,0 0,0 0,0 0,-0.1 0,-0.2 -0.1,-0.3 0,-0.1 0,-0.3 -0.1,-0.4 0,0 0,-0.1 0,-0.1 0,0 0,-0.1 0,-0.1 0,-0.1 0,-0.1 0,-0.2 0,-0.1 -0.1,-0.3 -0.1,-0.4 0,-0.1 -0.1,-0.2 -0.1,-0.3 0,0 0,0 0,-0.1 0,0 0,0 0,0 0,-0.1 -0.1,-0.3 -0.1,-0.4 0,-0.1 -0.1,-0.2 -0.1,-0.4 v -0.1 c 0,0 0,0 0,-0.1 0,-0.1 -0.1,-0.2 -0.1,-0.2 0,-0.1 -0.1,-0.2 -0.1,-0.4 0,-0.1 -0.1,-0.2 -0.1,-0.3 0,0 0,0 0,0 0,0 0,0 0,0 -0.1,-0.1 -0.1,-0.2 -0.2,-0.4 -0.1,-0.1 -0.1,-0.3 -0.2,-0.4 0,0 0,0 0,-0.1 0,0 0,-0.1 0,-0.1 -0.1,-0.1 -0.1,-0.2 -0.2,-0.3 -0.1,-0.1 -0.1,-0.3 -0.2,-0.4 0,-0.1 -0.1,-0.1 -0.1,-0.2 0,0 0,0 0,-0.1 -0.1,-0.1 -0.1,-0.2 -0.2,-0.3 -0.1,-0.2 -0.2,-0.3 -0.3,-0.5 0,0 0,-0.1 0,-0.1 -0.1,-0.2 -0.3,-0.4 -0.5,-0.7 0,0 0,0 0,0 -0.1,-0.1 -0.2,-0.3 -0.3,-0.4 -0.1,-0.1 -0.2,-0.2 -0.3,-0.3 0,0 0,0 0,0 0,0 0,0 0,0 -0.1,-0.1 -0.2,-0.2 -0.3,-0.3 -0.1,-0.1 -0.2,-0.2 -0.3,-0.3 0,0 0,0 0,0 0,0 0,0 0,-0.1 -0.1,-0.1 -0.1,-0.1 -0.2,-0.2 -0.1,-0.1 -0.2,-0.2 -0.3,-0.3 0,0 -0.1,-0.1 -0.1,-0.1 0,0 0,0 -0.1,-0.1 -0.1,0 -0.1,-0.1 -0.2,-0.1 -0.1,-0.1 -0.2,-0.2 -0.3,-0.3 0,0 -0.1,-0.1 -0.1,-0.1 0,0 0,0 -0.1,-0.1 0,0 -0.1,-0.1 -0.1,-0.1 -0.1,-0.1 -0.2,-0.2 -0.3,-0.2 -0.1,-0.1 -0.2,-0.1 -0.2,-0.2 0,0 0,0 0,0 0,0 0,0 0,0 -0.1,-0.1 -0.2,-0.1 -0.3,-0.2 -0.1,-0.1 -0.2,-0.1 -0.3,-0.2 0,0 0,0 -0.1,0 -0.1,0 -0.2,-0.1 -0.2,-0.1 -0.1,-0.1 -0.2,-0.1 -0.3,-0.2 -0.1,0 -0.1,-0.1 -0.2,-0.1 0,0 0,0 0,0 0,0 0,0 -0.1,0 -0.1,0 -0.2,-0.1 -0.3,-0.1 -0.1,0 -0.2,-0.1 -0.3,-0.1 0,0 0,0 -0.1,0 0,0 0,0 0,0 -0.1,0 -0.1,0 -0.2,-0.1 -0.1,0 -0.2,-0.1 -0.3,-0.1 0,0 -0.1,0 -0.1,0 0,0 0,0 -0.1,0 0,0 -0.1,0 -0.1,0 -0.1,0 -0.2,0 -0.3,-0.1 -0.1,0 -0.1,0 -0.2,0 0,0 0,0 -0.1,0 0,0 0,0 -0.1,0 -0.1,0 -0.2,0 -0.3,0 0,0 -0.1,0 -0.1,0 0,0 -0.1,0 -0.1,0 0,0 -0.1,0 -0.1,0 -0.1,0 -0.3,0 -0.4,0.1 0,0 0,0 0,0 0,0 -0.1,0 -0.1,0 -0.1,0 -0.3,0.1 -0.4,0.1 0,0 0,0 0,0 -0.2,0.1 -0.4,0.2 -0.6,0.3 0,0 0,0 0,0 l -6,3.5 c 0.2,-0.1 0.4,-0.2 0.6,-0.3 0.1,-0.1 0.3,-0.1 0.4,-0.1 0,0 0.1,0 0.1,0 0.2,0 0.4,-0.1 0.5,-0.1 0,0 0.1,0 0.1,0 0.2,0 0.4,0 0.6,0 0,0 0,0 0.1,0 0.2,0 0.4,0.1 0.6,0.1 0,0 0,0 0.1,0 0.2,0 0.4,0.1 0.6,0.2 0,0 0,0 0,0 0.2,0.1 0.5,0.2 0.7,0.3 0,0 0,0 0,0 0.2,0.1 0.5,0.2 0.7,0.4 0.2,0.1 0.5,0.3 0.7,0.5 0,0 0,0 0,0 0.2,0.2 0.4,0.3 0.7,0.5 0,0 0,0 0.1,0.1 0.2,0.2 0.4,0.4 0.6,0.5 0,0 0,0 0.1,0.1 0.2,0.2 0.4,0.4 0.6,0.6 0,0 0,0 0.1,0.1 0.2,0.2 0.4,0.5 0.6,0.7 0,0 0,0 0,0 0.2,0.2 0.4,0.5 0.6,0.8 v 0 c 0.2,0.2 0.3,0.5 0.5,0.7 0.1,0.2 0.2,0.3 0.3,0.5 0.1,0.1 0.2,0.3 0.2,0.4 0,0.1 0.1,0.1 0.1,0.2 0.1,0.2 0.3,0.5 0.4,0.7 0,0 0,0 0,0.1 0.1,0.3 0.3,0.6 0.4,0.8 v 0 c 0.1,0.3 0.2,0.6 0.3,0.8 0,0 0,0 0,0.1 0.1,0.3 0.2,0.6 0.3,0.9 0,0 0,0 0,0.1 0.1,0.3 0.2,0.6 0.2,0.8 0,0 0,0.1 0,0.1 0.1,0.3 0.1,0.6 0.2,0.9 0,0 0,0 0,0 0,0.3 0.1,0.6 0.1,0.9 0,0 0,0 0,0.1 0,0.3 0,0.6 0,0.8 0,0.2 0,0.5 0,0.8 0,0 0,0 0,0.1 0,0.2 -0.1,0.5 -0.1,0.7 0,0 0,0.1 0,0.1 0,0.2 -0.1,0.4 -0.2,0.6 0,0 0,0.1 0,0.1 -0.1,0.2 -0.1,0.4 -0.2,0.5 0,0 0,0 0,0.1 -0.1,0.2 -0.2,0.4 -0.3,0.5 0,0 0,0 0,0.1 -0.1,0.1 -0.2,0.3 -0.3,0.4 0,0 -0.1,0.1 -0.1,0.1 -0.1,0.1 -0.2,0.2 -0.3,0.3 0,0 -0.1,0.1 -0.1,0.1 -0.1,0.1 -0.3,0.2 -0.4,0.3 l 6,-3.5 c 0.1,-0.1 0.3,-0.2 0.4,-0.3 0,0 0.1,-0.1 0.1,-0.1 0.1,-0.1 0.2,-0.2 0.3,-0.3 0,0 0.1,-0.1 0.1,-0.1 0.1,-0.1 0.2,-0.2 0.3,-0.4 0,0 0,0 0,-0.1 0,0 0,0 0,0 0.1,-0.2 0.2,-0.3 0.3,-0.5 0,0 0,0 0,0 0,0 0,0 0,-0.1 0.1,-0.1 0.1,-0.2 0.1,-0.3 0,-0.1 0,-0.1 0.1,-0.2 0,0 0,-0.1 0,-0.1 0,0 0,-0.1 0,-0.1 0,-0.1 0.1,-0.2 0.1,-0.4 0,0 0,-0.1 0,-0.1 0,0 0,-0.1 0,-0.1 0,0 0,-0.1 0,-0.1 0,-0.1 0,-0.2 0.1,-0.3 0,-0.1 0,-0.1 0,-0.2 0,0 0,0 0,-0.1 0,0 0,-0.1 0,-0.1 0,-0.1 0,-0.2 0,-0.3 0,-0.1 0,-0.2 0,-0.4 v 0 c -0.2,-0.2 -0.2,-0.3 -0.2,-0.4"
         clip-path="url(#SVGID_2_)"
         id="path1798" />
      <path
         class="st41"
         d="m 78.1,265.1 c 4,2.3 7.3,8 7.3,12.6 0,4.6 -3.3,6.5 -7.3,4.2 -4,-2.3 -7.3,-8 -7.3,-12.6 0,-4.6 3.3,-6.5 7.3,-4.2"
         clip-path="url(#SVGID_2_)"
         id="path1800" />
      <path
         class="st23"
         d="m 82.3,277.3 c 0,-0.1 0,-0.2 0,-0.3 0,0 0,-0.1 0,-0.1 0,0 0,0 0,-0.1 0,0 0,-0.1 0,-0.1 0,-0.1 0,-0.2 0,-0.3 0,-0.1 0,-0.2 0,-0.3 0,0 0,0 0,0 0,0 0,0 0,0 0,-0.1 0,-0.2 0,-0.3 0,-0.1 0,-0.2 -0.1,-0.3 0,0 0,-0.1 0,-0.1 0,0 0,0 0,-0.1 0,0 0,-0.1 0,-0.1 0,-0.1 -0.1,-0.2 -0.1,-0.3 0,-0.1 0,-0.1 -0.1,-0.2 v 0 c 0,0 0,0 0,0 0,-0.1 -0.1,-0.2 -0.1,-0.3 0,-0.1 -0.1,-0.2 -0.1,-0.3 0,0 0,0 0,-0.1 0,0 0,0 0,0 0,-0.1 0,-0.1 -0.1,-0.2 0,-0.1 -0.1,-0.2 -0.1,-0.3 0,-0.1 -0.1,-0.1 -0.1,-0.2 0,0 0,0 0,0 0,0 0,0 0,0 0,-0.1 -0.1,-0.2 -0.1,-0.3 0,-0.1 -0.1,-0.2 -0.1,-0.3 0,0 0,0 0,0 0,0 0,0 0,-0.1 0,-0.1 -0.1,-0.2 -0.1,-0.2 -0.1,-0.1 -0.1,-0.2 -0.2,-0.3 0,0 -0.1,-0.1 -0.1,-0.1 0,0 0,0 0,-0.1 -0.1,-0.1 -0.1,-0.2 -0.2,-0.2 -0.1,-0.1 -0.1,-0.2 -0.2,-0.4 0,0 0,0 0,-0.1 -0.1,-0.2 -0.2,-0.3 -0.4,-0.5 0,0 0,0 0,0 0,0 0,0 0,0 -0.1,-0.1 -0.2,-0.2 -0.3,-0.3 -0.1,-0.1 -0.1,-0.2 -0.2,-0.3 0,0 0,0 0,0 0,0 0,0 0,0 -0.1,-0.1 -0.1,-0.2 -0.2,-0.3 -0.1,-0.1 -0.1,-0.2 -0.2,-0.2 0,0 0,0 0,0 0,0 0,0 0,0 -0.1,-0.1 -0.1,-0.1 -0.2,-0.2 -0.1,-0.1 -0.2,-0.2 -0.2,-0.2 0,0 -0.1,0 -0.1,-0.1 0,0 0,0 -0.1,-0.1 0,0 -0.1,-0.1 -0.1,-0.1 -0.1,-0.1 -0.2,-0.1 -0.3,-0.2 0,0 -0.1,-0.1 -0.1,-0.1 0,0 0,0 -0.1,0 0,0 -0.1,0 -0.1,-0.1 -0.1,-0.1 -0.2,-0.1 -0.3,-0.2 -0.1,0 -0.1,-0.1 -0.2,-0.1 0,0 0,0 0,0 0,0 0,0 0,0 -0.1,-0.1 -0.2,-0.1 -0.2,-0.2 -0.1,-0.1 -0.2,-0.1 -0.2,-0.1 0,0 0,0 -0.1,0 -0.1,0 -0.1,-0.1 -0.2,-0.1 -0.1,0 -0.2,-0.1 -0.2,-0.1 -0.1,0 -0.1,0 -0.2,-0.1 0,0 0,0 0,0 0,0 0,0 0,0 -0.1,0 -0.2,-0.1 -0.2,-0.1 -0.1,0 -0.2,-0.1 -0.2,-0.1 0,0 0,0 0,0 0,0 0,0 0,0 -0.1,0 -0.1,0 -0.2,-0.1 -0.1,0 -0.2,0 -0.2,-0.1 0,0 -0.1,0 -0.1,0 0,0 0,0 0,0 0,0 0,0 -0.1,0 -0.1,0 -0.2,0 -0.2,0 -0.1,0 -0.1,0 -0.2,0 0,0 0,0 -0.1,0 0,0 0,0 0,0 -0.1,0 -0.2,0 -0.3,0 0,0 -0.1,0 -0.1,0 0,0 -0.1,0 -0.1,0 0,0 -0.1,0 -0.1,0 -0.1,0 -0.2,0 -0.3,0 0,0 0,0 0,0 0,0 0,0 -0.1,0 -0.1,0 -0.2,0.1 -0.3,0.1 0,0 0,0 0,0 -0.2,0.1 -0.3,0.1 -0.4,0.2 l -20.9,12.1 c 0.1,-0.1 0.3,-0.1 0.4,-0.2 0.1,0 0.2,-0.1 0.3,-0.1 0,0 0,0 0.1,0 0.1,0 0.3,0 0.4,-0.1 0,0 0.1,0 0.1,0 0.1,0 0.3,0 0.4,0 0,0 0,0 0.1,0 0.2,0 0.3,0 0.5,0.1 0,0 0,0 0,0 0.2,0 0.3,0.1 0.5,0.1 0,0 0,0 0,0 0.2,0.1 0.4,0.1 0.5,0.2 0,0 0,0 0,0 0.2,0.1 0.4,0.2 0.6,0.3 0.2,0.1 0.4,0.2 0.6,0.4 0,0 0,0 0,0 0.2,0.1 0.3,0.3 0.5,0.4 0,0 0,0 0.1,0 0.2,0.1 0.3,0.3 0.5,0.4 0,0 0,0 0.1,0.1 0.2,0.2 0.3,0.3 0.5,0.5 0,0 0,0 0,0 0.2,0.2 0.3,0.4 0.5,0.5 0,0 0,0 0,0 0.2,0.2 0.3,0.4 0.5,0.6 0,0 0,0 0,0 0.1,0.2 0.3,0.4 0.4,0.6 0.1,0.1 0.2,0.2 0.2,0.4 0.1,0.1 0.1,0.2 0.2,0.3 0,0 0.1,0.1 0.1,0.1 0.1,0.2 0.2,0.3 0.3,0.5 0,0 0,0 0,0.1 0.1,0.2 0.2,0.4 0.3,0.7 0,0 0,0 0,0 0.1,0.2 0.2,0.4 0.3,0.7 0,0 0,0 0,0 0.1,0.2 0.2,0.5 0.2,0.7 0,0 0,0 0,0 0.1,0.2 0.1,0.4 0.2,0.7 0,0 0,0 0,0.1 0.1,0.2 0.1,0.4 0.1,0.7 v 0 c 0,0.2 0.1,0.4 0.1,0.7 0,0 0,0 0,0.1 0,0.2 0,0.4 0,0.7 0,0.2 0,0.4 0,0.6 0,0 0,0 0,0.1 0,0.2 0,0.4 -0.1,0.5 0,0 0,0 0,0.1 0,0.2 -0.1,0.3 -0.1,0.5 0,0 0,0.1 0,0.1 0,0.1 -0.1,0.3 -0.2,0.4 0,0 0,0 0,0 -0.1,0.1 -0.1,0.3 -0.2,0.4 0,0 0,0 0,0.1 -0.1,0.1 -0.1,0.2 -0.2,0.3 0,0 -0.1,0.1 -0.1,0.1 -0.1,0.1 -0.1,0.1 -0.2,0.2 0,0 -0.1,0.1 -0.1,0.1 -0.1,0.1 -0.2,0.2 -0.3,0.2 l 20.9,-12.1 c 0.1,-0.1 0.2,-0.1 0.3,-0.2 0,0 0.1,-0.1 0.1,-0.1 0.1,-0.1 0.1,-0.1 0.2,-0.2 0,0 0.1,-0.1 0.1,-0.1 0.1,-0.1 0.2,-0.2 0.2,-0.3 0,0 0,0 0,-0.1 0,0 0,0 0,0 0.1,-0.1 0.1,-0.3 0.2,-0.4 0,0 0,0 0,0 0,0 0,0 0,0 0,-0.1 0.1,-0.2 0.1,-0.3 0,0 0,-0.1 0,-0.1 0,0 0,-0.1 0,-0.1 0,0 0,0 0,-0.1 0,-0.1 0.1,-0.2 0.1,-0.3 0,0 0,-0.1 0,-0.1 0,0 0,0 0,-0.1 0,0 0,-0.1 0,-0.1 0,-0.1 0,-0.2 0,-0.3 0,-0.1 0,-0.1 0,-0.2 0,0 0,0 0,-0.1 0,0 0,0 0,-0.1 0,-0.1 0,-0.2 0,-0.3 0,-0.1 0,-0.2 0,-0.3 0,0 0,0 0,0 -0.2,-0.1 -0.2,-0.2 -0.2,-0.3"
         clip-path="url(#SVGID_2_)"
         id="path1802" />
      <path
         class="st41"
         d="m 55.7,279.9 c 3.1,1.8 5.7,6.2 5.7,9.8 0,3.6 -2.6,5.1 -5.7,3.2 -3.1,-1.8 -5.7,-6.2 -5.7,-9.8 0,-3.6 2.6,-5 5.7,-3.2"
         clip-path="url(#SVGID_2_)"
         id="path1804" />
      <path
         class="st40"
         d="m 84.2,277.3 c 0,0 0,0 0,0 0,0.1 0,0.1 -0.1,0.1 0,0 0,0 0,0 0,0 -0.1,0.1 -0.1,0.1 0,0 -0.1,0 -0.1,0.1 0,0 -0.1,0 -0.1,0.1 l -7.2,4.2 -0.1,27.7 7.2,-4.2 c 0,0 0,0 0,0 0,0 0,0 0.1,-0.1 0,0 0.1,0 0.1,-0.1 0,0 0,0 0,0 0,0 0.1,-0.1 0.1,-0.1 0,0 0,0 0,0 0,0 0,0 0,0 0,0 0,0 0,0 0,0 0,-0.1 0,-0.1 0,0 0,0 0,0 0,0 0,0 0,0 0,0 0,0 0,0 0,0 0,-0.1 0,-0.1 v 0 l 0.1,-27.7 c 0.2,0 0.2,0.1 0.1,0.1"
         clip-path="url(#SVGID_2_)"
         id="path1806" />
      <path
         class="st41"
         d="m 76.4,282 c 0,0 -0.1,0 -0.1,0 0,0 -0.1,0 -0.1,0 -0.1,0 -0.1,0 -0.2,0 0,0 0,0 0,0 -0.1,0 -0.2,0 -0.2,0 0,0 0,0 0,0 -0.1,0 -0.2,0 -0.2,0 0,0 0,0 0,0 -0.1,0 -0.1,0 -0.2,0 0,0 0,0 0,0 -0.1,0 -0.1,0 -0.2,-0.1 0,0 0,0 0,0 -0.1,0 -0.1,-0.1 -0.2,-0.1 L 43.1,263.4 c -0.1,0 -0.1,-0.1 -0.2,-0.1 -0.2,-0.1 -0.2,-0.3 -0.2,-0.4 l -0.1,27.7 c 0,0.2 0.1,0.4 0.4,0.6 l 31.9,18.4 c 0.1,0 0.1,0.1 0.2,0.1 0,0 0,0 0,0 0,0 0,0 0,0 0,0 0.1,0 0.1,0 0,0 0,0 0.1,0 0,0 0,0 0,0 0,0 0,0 0,0 0,0 0.1,0 0.1,0 0,0 0,0 0.1,0 0,0 0,0 0,0 0,0 0,0 0.1,0 0,0 0.1,0 0.1,0 0,0 0,0 0,0 v 0 h 0.1 c 0.1,0 0.1,0 0.2,0 0,0 0,0 0,0 0,0 0,0 0,0 0,0 0.1,0 0.1,0 0,0 0,0 0,0 0,0 0.1,0 0.1,0 0,0 0,0 0.1,0 0,0 0,0 0,0 0.1,0 0.2,-0.1 0.3,-0.1 l 0.1,-27.7 c -0.1,0.1 -0.2,0.1 -0.3,0.1"
         clip-path="url(#SVGID_2_)"
         id="path1808" />
      <path
         class="st4"
         d="m 83.9,276.6 c 0.5,0.3 0.5,0.8 0,1.1 l -7.2,4.2 c -0.5,0.3 -1.4,0.3 -1.9,0 L 42.9,263.5 c -0.5,-0.3 -0.5,-0.8 0,-1.1 l 7.2,-4.2 c 0.5,-0.3 1.4,-0.3 1.9,0 z"
         clip-path="url(#SVGID_2_)"
         id="path1810" />
      <path
         class="st42"
         d="m 58.2,297.7 c 0,0 0,0 0,0 0,0 0,0 0,0 0,0 0,0 0,0 0,0 0,0 0,0 0,-0.1 0,-0.1 0,-0.1 0,0 0,0 0,0 0,0 0,0 0,0 0,0 0,0 0,0 0,0 0,0 0,0 v 0 0 c 0,0 0,0 0,0 v 0 0 c 0,0 0,0 0,0 0,0 0,0 0,0 0,0 0,0 0,0 0,0 0,0 0,0 0,0 0,0 0,0 0,0 0,0 0,0 v 0 c 0,0 0,0 0,0 0,0 0,0 0,0 0,0 0,0 0,0 0,0 0,0 0,0 0,0 0,0 0,0 0,0 0,0 0,0 0,0 0,0 0,0 0,0 0,0 0,0 0,0 0,0 0,0 0,0 0,0 0,0 0,0 0,0 0,0 0,0 0,0 0,0 0,0 0,0 0,0 0,0 0,0 0,0 0,0 0,0 0,0 0,0 0,0 0,0 0,0 0,0 0,0 0,0 0,0 0,0 l -4,-2.3 c 0,0 0,0 0,0 0,0 0,0 0,0 0,0 0,0 0,0 0,0 0,0 0,0 0,0 0,0 0,0 0,0 0,0 0,0 0,0 0,0 0,0 0,0 0,0 0,0 v 0 c 0,0 0,0 0,0 v 0 c 0,0 0,0 0,0 v 0 c 0,0 0,0 0,0 0,0 0,0 0,0 0,0 0,0 0,0 0,0 0,0 0,0 l -0.4,0.2 c 0,0 0.1,0 0.1,0 0,0 0.1,0 0.2,0.1 l 4,2.3 c 0.1,0 0.1,0.1 0.2,0.1 0,0.1 0.1,0.1 0.1,0.2 v 0 c 0,0.1 0.1,0.1 0.1,0.2 v 0 c 0,0.1 0,0.1 0,0.2 v 0.6 c 0,0.1 0,0.1 0,0.2 v 0 c 0,0 0,0.1 -0.1,0.1 l 0.4,-0.2 c 0,0 0.1,0 0.1,-0.1 0,0 0,0 0,0 0,0 0,0 0,0 0,0 0,0 0,0 0,0 0,0 0,0 0,0 0,0 0,0 0,0 0,0 0,0 0,0 0,0 0,0 0,0 0,0 0,0 0,0 0,0 0,0 0,0 0,0 0,0 0,0 0,0 0,0 v 0 l -0.7,-1.5 c 0,0.1 0,0.1 0,0"
         clip-path="url(#SVGID_2_)"
         id="path1812" />
      <path
         class="st43"
         d="m 57.5,297.3 c 0.2,0.1 0.4,0.4 0.4,0.7 v 0.6 c 0,0.3 -0.2,0.4 -0.4,0.2 l -4,-2.3 c -0.2,-0.1 -0.4,-0.4 -0.4,-0.7 v -0.6 c 0,-0.3 0.2,-0.4 0.4,-0.2 z"
         clip-path="url(#SVGID_2_)"
         id="path1814" />
      <path
         class="st44"
         d="m 66.2,271 c 0,0 0,0 0,0 0,0 -0.1,0.1 -0.1,0.1 l -0.7,0.4 c -0.1,0.1 -0.2,0.1 -0.3,0.1 v 0 c -0.1,0 -0.2,0 -0.3,-0.1 l -4.2,-2.4 C 60.5,269 60.5,269 60.5,268.9 v 0.4 c 0,0.1 0,0.1 0.1,0.2 l 4.1,2.4 c 0,0 0,0 0.1,0 0,0 0,0 0.1,0 0,0 0,0 0.1,0 0,0 0,0 0,0 0,0 0,0 0,0 0,0 0,0 0,0 v 0 0 0 c 0,0 0,0 0.1,0 0,0 0,0 0.1,0 0,0 0.1,0 0.1,0 0,0 0.1,0 0.1,0 l 0.7,-0.4 v 0 c 0,0 0,0 0.1,0 0,0 0,0 0,0 0,0 0,0 0,0 0,0 0,0 0,0 0,0 0,0 0,0 0,0 0,0 0,0 0,0 0,0 0,0 0,0 0,0 0,0 v 0 -0.4 c 0,-0.2 0,-0.2 0,-0.1"
         clip-path="url(#SVGID_2_)"
         id="path1816" />
      <path
         class="st45"
         d="m 66.1,270.7 c 0.2,0.1 0.2,0.3 0,0.4 l -0.7,0.4 c -0.2,0.1 -0.5,0.1 -0.7,0 l -4.2,-2.4 c -0.2,-0.1 -0.2,-0.3 0,-0.4 l 0.7,-0.4 c 0.2,-0.1 0.5,-0.1 0.7,0 z"
         clip-path="url(#SVGID_2_)"
         id="path1818">
         <animate id="flash" attributeName="fill" from="grey" to="yellow" dur="1s" begin="0s;flash.end+4s"  repeatCount="indefinite"/>
         </path>
      <path
         class="st42"
         d="m 81.2,294 v 0 l -0.3,-0.2 c 0,0 0,0 0,0 0,0 0,0 0,0 0,0 0,0 0,0 0,0 0,0 0,0 0,0 0,0 0,0 0,0 0,0 0,0 0,0 0,0 0,0 v 0 c 0,0 0,0 0,0 0,0 0,0 0,0 0,0 0,0 0,0 0,0 0,0 -0.1,0 l -0.5,0.3 c 0,0 -0.1,0.1 -0.1,0.1 0,0 0,0 0,0 0,0 0,0 0,0 0,0 0,0 0,0 0,0 0,0 0,0 0,0 0,0 0,0 0,0 0,0 0,0 0,0 0,0 0,0 v 0 0 c 0,0 0,0 0,0 0,0 0,0 0,0 0,0 0,0 0,0 0,0 0,0 0,0 0,0 0,0 0,0 0,0 0,0 0,0 0,0 0,0 0,0 0,0 0,0 0,0 0,0 0,0 0,0 0,0 0,0 0,0.1 0,0 0,0.1 0,0.1 v 4.6 c 0,0.1 0,0.1 0,0.2 0,0 0,0.1 0.1,0.1 l 0.4,0.2 c -0.1,0 -0.1,-0.1 -0.1,-0.3 v -4.6 c 0,-0.1 0,-0.1 0,-0.2 0,0 0,0 0,0 0,-0.1 0,-0.1 0.1,-0.2 v 0 c 0,-0.1 0.1,-0.1 0.1,-0.2 0,0 0,0 0,0 0,-0.1 0.1,-0.1 0.2,-0.1 l 0.5,-0.3 c 0.1,0 0.1,0 0.2,-0.1 v 0 c -0.6,0.5 -0.6,0.5 -0.5,0.5 0,0 0,0 0,0"
         clip-path="url(#SVGID_2_)"
         id="path1820" />
      <path
         class="st43"
         d="m 80.9,294 c 0.2,-0.1 0.4,0 0.4,0.2 v 4.6 c 0,0.3 -0.2,0.6 -0.4,0.7 l -0.5,0.3 c -0.2,0.1 -0.4,0 -0.4,-0.2 V 295 c 0,-0.3 0.2,-0.6 0.4,-0.7 z"
         clip-path="url(#SVGID_2_)"
         id="path1822" />
      <path
         class="st42"
         d="m 81.2,285.2 v 0 L 80.9,285 c 0,0 0,0 0,0 0,0 0,0 0,0 0,0 0,0 0,0 0,0 0,0 0,0 0,0 0,0 0,0 0,0 0,0 0,0 0,0 0,0 0,0 v 0 c 0,0 0,0 0,0 0,0 0,0 0,0 0,0 0,0 0,0 0,0 0,0 -0.1,0 l -0.5,0.3 c 0,0 -0.1,0.1 -0.1,0.1 0,0 0,0 0,0 0,0 0,0 0,0 0,0 0,0 0,0 0,0 0,0 0,0 0,0 0,0 0,0 0,0 0,0 0,0 0,0 0,0 0,0 0,0 0,0 0,0 v 0 c 0,0 0,0 0,0 0,0 0,0 0,0 0,0 0,0 0,0 0,0 0,0 0,0 0,0 0,0 0,0 0,0 0,0 0,0 0,0 0,0 0,0 0,0 0,0 0,0 0,0 0,0 0,0 0,0 0,0 0,0.1 0,0 0,0.1 0,0.1 v 4.6 c 0,0.1 0,0.1 0,0.2 0,0 0,0.1 0.1,0.1 l 0.4,0.2 c -0.1,0 -0.1,-0.1 -0.1,-0.3 v -4.6 c 0,-0.1 0,-0.1 0,-0.2 0,0 0,0 0,0 0,-0.1 0,-0.1 0.1,-0.2 v 0 c 0,-0.1 0.1,-0.1 0.1,-0.2 0,0 0,0 0,0 0,-0.1 0.1,-0.1 0.2,-0.1 l 0.5,-0.3 c 0.1,0 0.1,0 0.2,-0.1 v 0 c -0.6,0.5 -0.6,0.5 -0.5,0.5 0,0 0,0 0,0"
         clip-path="url(#SVGID_2_)"
         id="path1824" />
      <path
         class="st43"
         d="m 80.9,285.2 c 0.2,-0.1 0.4,0 0.4,0.2 v 4.6 c 0,0.3 -0.2,0.6 -0.4,0.7 l -0.5,0.3 c -0.2,0.1 -0.4,0 -0.4,-0.2 v -4.6 c 0,-0.3 0.2,-0.6 0.4,-0.7 z"
         clip-path="url(#SVGID_2_)"
         id="path1826" />
      <polygon
         class="st46"
         points="71.4,283 71.4,304.1 44.3,288.5 44.4,267.4 "
         clip-path="url(#SVGID_2_)"
         id="polygon1828" />
      <path
         class="st42"
         d="m 75.2,288.5 c 0,-0.1 0,-0.1 0,0 0,-0.1 0,-0.1 0,0 0,-0.1 0,-0.1 0,-0.1 0,0 0,0 0,-0.1 0,0 0,0 0,-0.1 0,0 0,0 0,-0.1 0,0 0,0 0,-0.1 0,0 0,0 0,-0.1 v 0 0 c 0,0 0,0 0,0 0,0 0,0 0,-0.1 0,0 0,0 0,-0.1 0,0 0,0 0,0 0,0 0,0 0,0 0,0 0,0 0,0 0,0 0,0 0,0 0,0 0,0 0,-0.1 0,0 0,0 0,-0.1 0,0 0,0 0,-0.1 0,0 0,0 0,0 0,0 0,0 0,0 0,0 -0.1,-0.1 -0.1,-0.1 0,0 0,-0.1 -0.1,-0.1 0,0 0,0 0,-0.1 0,0 0,0 0,0 0,0 0,0 0,0 0,0 0,0 0,0 0,0 0,0 0,0 0,0 0,0 0,0 0,0 0,0 0,0 0,0 0,0 0,0 0,0 0,0 0,0 0,0 0,0 0,0 0,0 0,0 0,0 0,0 0,0 0,0 0,0 0,0 0,0 0,0 0,0 0,0 0,0 0,0 0,0 0,0 0,0 0,0 0,0 0,0 0,0 0,0 0,0 0,0 0,0 0,0 0,0 v 0 c 0,0 0,0 0,0 0,0 0,0 0,0 0,0 0,0 0,0 0,0 0,0 0,0 0,0 0,0 0,0 0,0 0,0 0,0 v 0 c 0,0 0,0 0,0 0,0 0,0 0,0 0,0 0,0 -0.1,0 0,0 0,0 -0.1,0 0,0 0,0 -0.1,0 0,0 -0.1,0 -0.1,0 l -0.4,0.2 c 0.1,-0.1 0.2,-0.1 0.3,-0.1 v 0 c 0.1,0 0.3,0.1 0.4,0.1 0.1,0.1 0.3,0.2 0.4,0.3 v 0 c 0.1,0.1 0.2,0.3 0.3,0.4 0,0 0,0 0,0 0.1,0.2 0.2,0.3 0.2,0.5 0,0 0,0 0,0 0.1,0.2 0.1,0.3 0.1,0.5 0,0.2 0,0.3 -0.1,0.4 -0.1,0.1 -0.1,0.2 -0.2,0.2 l 0.4,-0.2 c 0.1,0 0.1,-0.1 0.2,-0.2 0,0 0,0 0,-0.1 0,0 0,0 0,0 0,0 0,0 0,-0.1 0,0 0,0 0,-0.1 0,0 0,0 0,-0.1 0,0 0,0 0,0 0,0 0,0 0,0 0,0 0,0 0,0 -1,-0.2 -1,-0.2 -1,-0.3 0,0 0,0 0,0 v 0 c 0,0 0,0 0,0"
         clip-path="url(#SVGID_2_)"
         id="path1830" />
      <path
         class="st43"
         d="m 73.8,287 c 0.6,0.3 1,1.1 1,1.7 0,0.6 -0.5,0.9 -1,0.6 -0.6,-0.3 -1,-1.1 -1,-1.7 0,-0.7 0.5,-0.9 1,-0.6"
         clip-path="url(#SVGID_2_)"
         id="path1832" />
      <path
         class="st42"
         d="m 75.2,297.4 c 0,0 0,0 0,0 0,-0.1 0,-0.1 0,0 0,-0.1 0,-0.1 0,-0.1 0,0 0,0 0,-0.1 0,0 0,0 0,-0.1 0,0 0,0 0,-0.1 0,0 0,0 0,-0.1 0,0 0,0 0,-0.1 0,0 0,0 0,0 v 0 c 0,0 0,0 0,0 0,0 0,0 0,-0.1 0,0 0,0 0,-0.1 0,0 0,0 0,0 0,0 0,0 0,0 0,0 0,0 0,0 0,0 0,0 0,0 0,0 0,0 0,-0.1 0,0 0,0 0,-0.1 0,0 0,0 0,-0.1 0,0 0,0 0,0 0,0 0,0 0,0 0,0 -0.1,-0.1 -0.1,-0.1 0,0 0,-0.1 -0.1,-0.1 0,0 0,0 0,-0.1 0,0 0,0 0,0 0,0 0,0 0,0 0,0 0,0 0,0 0,0 0,0 0,0 v 0 c 0,0 0,0 0,0 0,0 0,0 0,0 0,0 0,0 0,0 0,0 0,0 0,0 0,0 0,0 0,0 0,0 0,0 0,0 0,0 0,0 0,0 0,0 0,0 0,0 v 0 c 0,0 0,0 0,0 0,0 0,0 0,0 0,0 0,0 0,0 0,0 0,0 0,0 0,0 0,0 0,0 0,0 0,0 0,0 0,0 0,0 0,0 v 0 0 c 0,0 0,0 0,0 0,0 0,0 0,0 v 0 c 0,0 0,0 0,0 0,0 0,0 0,0 0,0 0,0 -0.1,0 0,0 0,0 -0.1,0 0,0 0,0 -0.1,0 0,0 -0.1,0 -0.1,0 l -0.4,0.2 c 0.1,-0.1 0.2,-0.1 0.3,-0.1 v 0 c 0.1,0 0.3,0.1 0.4,0.1 0.1,0.1 0.3,0.2 0.4,0.3 0,0 0,0 0,0 0.1,0.1 0.2,0.3 0.3,0.4 0,0 0,0 0,0 0.1,0.2 0.2,0.3 0.2,0.5 0,0 0,0 0,0 0.1,0.2 0.1,0.3 0.1,0.5 0,0.2 0,0.3 -0.1,0.4 v 0 c -0.1,0.1 -0.1,0.2 -0.2,0.2 l 0.4,-0.2 c 0.1,0 0.1,-0.1 0.2,-0.2 0,0 0,0 0,-0.1 0,0 0,0 0,0 v 0 c 0,0 0,0 0,-0.1 0,0 0,0 0,-0.1 0,0 0,0 0,-0.1 0,0 0,0 0,0 0,0 0,0 0,0 0,0 0,0 0,0 -1,-0.2 -1,-0.2 -1,-0.3 0,0.1 0,0.1 0,0 v 0 c 0,0 0,0 0,0"
         clip-path="url(#SVGID_2_)"
         id="path1834" />
      <path
         class="st43"
         d="m 73.8,295.9 c 0.6,0.3 1,1.1 1,1.7 0,0.6 -0.5,0.9 -1,0.6 -0.6,-0.3 -1,-1.1 -1,-1.7 0,-0.7 0.5,-0.9 1,-0.6"
         clip-path="url(#SVGID_2_)"
         id="path1836" />
      <g
         class="st9"
         clip-path="url(#SVGID_2_)"
         id="g1866">
        <g
           id="g1864">
          <polygon
             class="st11"
             points="48.9,276.2 48.9,273.1 49.5,273.5 49.5,276 50.5,276.6 50.5,277.2 "
             id="polygon1838" />
          <polygon
             class="st11"
             points="50.9,277.4 50.9,274.3 52.5,275.2 52.5,275.7 51.5,275.2 51.5,275.9 52.4,276.4 52.4,277 51.5,276.5 51.5,277.2 52.5,277.8 52.5,278.3 "
             id="polygon1840" />
          <path
             class="st11"
             d="m 53.9,275.9 c 0.1,0.1 0.3,0.2 0.4,0.2 0.1,0.1 0.2,0.2 0.3,0.3 v 0.7 c 0,-0.1 -0.1,-0.1 -0.1,-0.2 -0.1,-0.1 -0.1,-0.1 -0.2,-0.2 -0.1,-0.1 -0.1,-0.1 -0.2,-0.1 -0.1,0 -0.1,-0.1 -0.2,-0.1 -0.1,0 -0.1,-0.1 -0.2,-0.1 -0.1,0 -0.1,0 -0.1,0 0,0 -0.1,0 -0.1,0 0,0 0,0.1 0,0.1 0,0.1 0,0.1 0,0.2 0,0.1 0.1,0.1 0.1,0.2 0,0.1 0.1,0.1 0.2,0.2 0.1,0.1 0.1,0.2 0.2,0.2 0.1,0.1 0.2,0.2 0.3,0.3 0.1,0.1 0.2,0.2 0.2,0.3 0.1,0.1 0.1,0.2 0.1,0.3 0,0.1 0,0.2 0,0.4 0,0.2 0,0.3 -0.1,0.4 -0.1,0.1 -0.1,0.1 -0.2,0.2 -0.1,0 -0.2,0 -0.3,0 -0.1,0 -0.3,-0.1 -0.4,-0.2 -0.1,-0.1 -0.3,-0.2 -0.4,-0.3 -0.1,-0.1 -0.3,-0.2 -0.3,-0.3 v -0.7 c 0.1,0.2 0.2,0.3 0.4,0.4 0.1,0.1 0.3,0.2 0.4,0.3 0.1,0 0.1,0.1 0.2,0.1 0.1,0 0.1,0 0.1,0 0,0 0.1,0 0.1,-0.1 0,0 0,-0.1 0,-0.1 0,-0.1 0,-0.1 0,-0.2 0,-0.1 -0.1,-0.1 -0.1,-0.2 -0.1,-0.1 -0.1,-0.1 -0.2,-0.2 -0.1,-0.1 -0.1,-0.2 -0.2,-0.3 -0.2,-0.2 -0.4,-0.4 -0.5,-0.6 -0.1,-0.2 -0.2,-0.4 -0.2,-0.6 0,-0.2 0,-0.3 0.1,-0.4 0.1,-0.1 0.1,-0.1 0.2,-0.2 0.1,0 0.2,0 0.3,0 0.1,0.2 0.3,0.3 0.4,0.3"
             id="path1842" />
          <path
             class="st11"
             d="m 56.1,277.2 c 0.1,0.1 0.3,0.2 0.4,0.2 0.1,0.1 0.2,0.2 0.3,0.3 v 0.7 c 0,-0.1 -0.1,-0.1 -0.1,-0.2 -0.1,-0.1 -0.1,-0.1 -0.2,-0.2 -0.1,0 -0.1,-0.1 -0.2,-0.1 -0.1,0 -0.1,-0.1 -0.2,-0.1 -0.1,0 -0.1,-0.1 -0.2,-0.1 -0.1,0 -0.1,0 -0.1,0 0,0 -0.1,0 -0.1,0 0,0 0,0.1 0,0.1 0,0.1 0,0.1 0,0.2 0,0.1 0.1,0.1 0.1,0.2 0,0.1 0.1,0.1 0.2,0.2 0.1,0.1 0.1,0.2 0.2,0.2 0.1,0.1 0.2,0.2 0.3,0.3 0.1,0.1 0.2,0.2 0.2,0.3 0.1,0.1 0.1,0.2 0.1,0.3 0,0.1 0,0.2 0,0.4 0,0.2 0,0.3 -0.1,0.4 -0.1,0.1 -0.1,0.1 -0.2,0.2 -0.1,0 -0.2,0 -0.3,0 -0.1,0 -0.3,-0.1 -0.4,-0.2 -0.1,-0.1 -0.3,-0.2 -0.4,-0.3 -0.1,-0.1 -0.3,-0.2 -0.3,-0.3 V 279 c 0.1,0.2 0.2,0.3 0.4,0.4 0.1,0.1 0.3,0.2 0.4,0.3 0.1,0 0.1,0.1 0.2,0.1 0.1,0 0.1,0 0.1,0 0,0 0.1,0 0.1,-0.1 0,0 0,-0.1 0,-0.1 0,-0.1 0,-0.1 0,-0.2 0,-0.1 -0.1,-0.1 -0.1,-0.2 -0.1,-0.1 -0.1,-0.1 -0.2,-0.2 -0.1,-0.1 -0.1,-0.2 -0.2,-0.3 -0.2,-0.2 -0.4,-0.4 -0.5,-0.6 -0.1,-0.2 -0.2,-0.4 -0.2,-0.6 0,-0.2 0,-0.3 0.1,-0.4 0.1,-0.1 0.1,-0.1 0.2,-0.2 0.1,0 0.2,0 0.3,0 0.1,0.2 0.3,0.2 0.4,0.3"
             id="path1844" />
          <path
             class="st11"
             d="m 59.5,279.6 c 0.2,0.4 0.4,0.9 0.4,1.4 0,0.5 -0.1,0.8 -0.4,1 -0.3,0.2 -0.6,0.1 -1,-0.1 -0.4,-0.2 -0.7,-0.6 -1,-1 -0.2,-0.4 -0.4,-0.9 -0.4,-1.4 0,-0.5 0.1,-0.8 0.4,-1 0.3,-0.2 0.6,-0.1 1,0.1 0.4,0.2 0.8,0.6 1,1 m -0.5,1.7 c 0.1,-0.1 0.2,-0.3 0.2,-0.6 0,-0.3 -0.1,-0.6 -0.2,-0.9 -0.1,-0.2 -0.3,-0.4 -0.5,-0.6 -0.2,-0.1 -0.4,-0.1 -0.5,0 -0.1,0.1 -0.2,0.3 -0.2,0.6 0,0.3 0.1,0.6 0.2,0.8 0.1,0.3 0.3,0.4 0.5,0.6 0.2,0.2 0.4,0.2 0.5,0.1"
             id="path1846" />
          <path
             class="st11"
             d="m 62.8,281.1 v 3.1 l -0.6,-0.4 -1.1,-2.6 C 61,281 61,280.9 61,280.9 c 0,0.1 0,0.3 0,0.5 v 1.7 l -0.6,-0.3 v -3.1 l 0.7,0.4 1.1,2.5 c 0,0.1 0.1,0.2 0.1,0.3 0,-0.1 0,-0.2 0,-0.4 v -1.7 z"
             id="path1848" />
          <polygon
             class="st11"
             points="65.6,282.7 65.6,285.3 66.2,285.7 66.2,286.2 64.5,285.2 64.5,284.7 65,285 65,283 64.5,282.9 64.5,282.3 "
             id="polygon1850" />
          <path
             class="st10"
             d="m 54.8,283.3 -7,-4 c -0.4,-0.2 -0.7,0 -0.7,0.4 v 6 c 0,0.5 0.3,1.1 0.7,1.3 l 2.7,1.6 0.8,2 0.8,-1.1 2.7,1.6 c 0.4,0.2 0.7,0 0.7,-0.4 v -6 c 0,-0.6 -0.3,-1.2 -0.7,-1.4"
             id="path1852" />
          <polygon
             class="st10"
             points="57.5,292.5 57.5,291.8 65.5,296.4 65.5,297.2 "
             id="polygon1854" />
          <polygon
             class="st10"
             points="57.5,291 57.5,290.3 66.9,295.7 66.9,296.5 "
             id="polygon1856" />
          <polygon
             class="st10"
             points="57.5,288 57.5,287.3 68.4,293.5 68.4,294.3 "
             id="polygon1858" />
          <polygon
             class="st10"
             points="57.5,286 57.5,284.4 68.4,290.7 68.4,292.3 "
             id="polygon1860" />
          <polygon
             class="st10"
             points="57.5,289.5 57.5,288.8 68.4,295 68.3,295.8 "
             id="polygon1862" />
        </g>
      </g>
      <path
         class="st8"
         d="M 451,302.8 235,178.1 c -1.8,-1 -2.4,-3.3 -1.4,-5.1 1,-1.8 3.3,-2.4 5.1,-1.4 l 216,124.7 c 1.8,1 2.4,3.3 1.4,5.1 -1.1,1.8 -3.4,2.5 -5.1,1.4"
         clip-path="url(#SVGID_2_)"
         id="path1868" />
      <path
         class="st1"
         d="m 454.8,304.2 c 0,-0.3 0.1,-0.6 0.2,-0.9 0,0 0,-0.1 0,-0.1 0.1,-0.3 0.2,-0.6 0.3,-0.9 0,0 0,0 0,0 0.1,-0.3 0.3,-0.6 0.5,-0.9 0,0 0,0 0,0 0.2,-0.3 0.4,-0.6 0.6,-0.9 l 0.1,-0.1 c 0.2,-0.2 0.4,-0.5 0.6,-0.7 0,0 0.1,-0.1 0.1,-0.1 0.2,-0.2 0.3,-0.3 0.5,-0.5 0.1,-0.1 0.2,-0.1 0.2,-0.2 0.2,-0.2 0.5,-0.4 0.8,-0.5 0.3,-0.1 0.5,-0.3 0.7,-0.3 0,0 0.1,0 0.1,0 0.2,-0.1 0.4,-0.1 0.7,-0.1 0,0 0,0 0.1,0 0.2,0 0.4,0 0.6,0 0,0 0,0 0,0 0.2,0 0.4,0.1 0.6,0.2 l -4.5,-2.6 c 0,0 0,0 0,0 -0.1,0 -0.1,-0.1 -0.2,-0.1 -0.1,0 -0.1,-0.1 -0.2,-0.1 0,0 -0.1,0 -0.1,0 0,0 0,0 0,0 0,0 0,0 0,0 -0.1,0 -0.2,0 -0.2,0 -0.1,0 -0.2,0 -0.3,0 0,0 -0.1,0 -0.1,0 0,0 0,0 -0.1,0 -0.1,0 -0.1,0 -0.2,0 -0.1,0 -0.2,0 -0.4,0.1 0,0 -0.1,0 -0.2,0.1 0,0 -0.1,0 -0.1,0 -0.1,0 -0.1,0 -0.2,0.1 -0.2,0.1 -0.4,0.2 -0.6,0.3 -0.3,0.1 -0.5,0.3 -0.8,0.5 -0.1,0.1 -0.2,0.1 -0.2,0.2 -0.1,0.1 -0.2,0.2 -0.4,0.3 -0.1,0.1 -0.1,0.1 -0.2,0.2 0,0 -0.1,0.1 -0.1,0.1 -0.1,0.1 -0.1,0.1 -0.2,0.2 -0.1,0.1 -0.2,0.3 -0.3,0.4 0,0 -0.1,0.1 -0.1,0.1 l -0.1,0.1 c 0,0 -0.1,0.1 -0.1,0.1 -0.1,0.1 -0.2,0.2 -0.2,0.3 -0.1,0.1 -0.1,0.2 -0.2,0.3 0,0 0,0 0,0 0,0 0,0 0,0 -0.1,0.1 -0.1,0.2 -0.2,0.3 -0.1,0.1 -0.1,0.2 -0.2,0.3 -0.1,0.1 -0.1,0.2 -0.1,0.3 0,0 0,0 0,0 0,0 0,0 0,0 -0.1,0.1 -0.1,0.2 -0.1,0.4 0,0.1 -0.1,0.3 -0.1,0.4 0,0.1 0,0.1 -0.1,0.2 0,0 0,0.1 0,0.1 0,0 0,0.1 0,0.1 0,0.2 -0.1,0.3 -0.1,0.5 0,0.1 0,0.2 0,0.3 0,0 0,0.1 0,0.1 0,0 0,0.1 0,0.1 0,0.3 -0.1,0.5 -0.1,0.8 0,1.3 0.4,2.1 1.2,2.6 l 4.5,2.6 c -0.7,-0.4 -1.2,-1.3 -1.2,-2.6 0,-0.3 0,-0.6 0.1,-0.9 0,-0.1 0,-0.1 0,-0.2"
         clip-path="url(#SVGID_2_)"
         id="path1870" />
      <path
         class="st0"
         d="m 458.7,298.4 c 2.2,-1.3 4,-0.3 4,2.3 0,2.5 -1.8,5.6 -4,6.9 -2.2,1.3 -4,0.3 -4,-2.3 0,-2.6 1.8,-5.7 4,-6.9"
         clip-path="url(#SVGID_2_)"
         id="path1872" />
    </g>
  </g>
  <style
     type="text/css"
     id="style1586">
	.st0{clip-path:url(#SVGID_2_);fill:#595D69;}
	.st1{clip-path:url(#SVGID_2_);fill:#616774;}
	.st2{opacity:0.4;clip-path:url(#SVGID_2_);}
	.st3{clip-path:url(#SVGID_2_);fill:#E7E9F2;}
	.st4{clip-path:url(#SVGID_2_);fill:#323846;}
	.st5{clip-path:url(#SVGID_2_);fill:#9FA0A2;}
	.st6{clip-path:url(#SVGID_2_);fill:#A1A2A4;}
	.st7{clip-path:url(#SVGID_2_);fill:#F4F6F9;}
	.st8{clip-path:url(#SVGID_2_);fill:#D5D7E2;}
	.st9{opacity:0.8;clip-path:url(#SVGID_2_);}
	.st10{fill:#DFE1EA;}
	.st11{fill:#3A4151;}
	.st12{fill:#D5D7E2;}
	.st13{clip-path:url(#SVGID_2_);fill:#FFCEA9;}
	.st14{clip-path:url(#SVGID_2_);fill:#38226D;}
	.st15{clip-path:url(#SVGID_2_);fill:#9C73FF;}
	.st16{clip-path:url(#SVGID_2_);fill:#8C50FF;}
	.st17{clip-path:url(#SVGID_2_);fill:#F4F4F4;}
	.st18{clip-path:url(#SVGID_2_);fill:#3A2C6D;}
	.st19{clip-path:url(#SVGID_2_);fill:#EDEDED;}
	.st20{clip-path:url(#SVGID_2_);fill:#666666;}
	.st21{clip-path:url(#SVGID_2_);fill:none;stroke:#323846;stroke-width:1.472;stroke-miterlimit:10;}
	.st22{clip-path:url(#SVGID_2_);fill:#E0E2E5;}
	.st23{clip-path:url(#SVGID_2_);fill:#3A4151;}
	.st24{clip-path:url(#SVGID_2_);enable-background:new    ;}
	.st25{clip-path:url(#SVGID_6_);enable-background:new    ;}
	.st26{clip-path:url(#SVGID_8_);}
	.st27{clip-path:url(#SVGID_10_);enable-background:new    ;}
	.st28{clip-path:url(#SVGID_12_);fill:#1D2029;}
	.st29{clip-path:url(#SVGID_12_);fill:#1E222A;}
	.st30{clip-path:url(#SVGID_12_);fill:#1F232B;}
	.st31{clip-path:url(#SVGID_12_);fill:#20242D;}
	.st32{clip-path:url(#SVGID_12_);fill:#21252E;}
	.st33{clip-path:url(#SVGID_12_);fill:#222630;}
	.st34{clip-path:url(#SVGID_12_);fill:#232731;}
	.st35{clip-path:url(#SVGID_12_);fill:#242832;}
	.st36{clip-path:url(#SVGID_12_);fill:#1C1F27;}
	.st37{clip-path:url(#SVGID_12_);fill:#1B1E26;}
	.st38{clip-path:url(#SVGID_12_);fill:#1A1D24;}
	.st39{clip-path:url(#SVGID_6_);fill:#2B303C;}
	.st40{clip-path:url(#SVGID_2_);fill:#252935;}
	.st41{clip-path:url(#SVGID_2_);fill:#2B303F;}
	.st42{clip-path:url(#SVGID_2_);fill:#828485;}
	.st43{clip-path:url(#SVGID_2_);fill:#BDBEC1;}
	.st44{clip-path:url(#SVGID_2_);fill:#7F8081;}
	.st45{clip-path:url(#SVGID_2_);fill:#D2D4D7;}
	.st46{clip-path:url(#SVGID_2_);fill:#FFFFFF;}
</style>
</svg>
