<?xml version="1.0" encoding="UTF-8" standalone="no"?>
<svg
   viewBox="0 0 962.357 702.35699"
   version="1.1"
   id="svg252"
   sodipodi:docname="Social_media_adv_SVG_mod.svg"
   width="962.35699"
   height="702.35699"
   inkscape:version="1.2 (dc2aedaf03, 2022-05-15)"
   xml:space="preserve"
   xmlns:inkscape="http://www.inkscape.org/namespaces/inkscape"
   xmlns:sodipodi="http://sodipodi.sourceforge.net/DTD/sodipodi-0.dtd"
   xmlns="http://www.w3.org/2000/svg"
   xmlns:svg="http://www.w3.org/2000/svg"
   xmlns:rdf="http://www.w3.org/1999/02/22-rdf-syntax-ns#"
   xmlns:cc="http://creativecommons.org/ns#"
   xmlns:dc="http://purl.org/dc/elements/1.1/"><sodipodi:namedview
     id="namedview254"
     pagecolor="#ffffff"
     bordercolor="#666666"
     borderopacity="1.0"
     inkscape:showpageshadow="2"
     inkscape:pageopacity="0.0"
     inkscape:pagecheckerboard="0"
     inkscape:deskcolor="#d1d1d1"
     showgrid="false"
     inkscape:zoom="0.472"
     inkscape:cx="1261.6525"
     inkscape:cy="538.13559"
     inkscape:window-width="1920"
     inkscape:window-height="1009"
     inkscape:window-x="1912"
     inkscape:window-y="-8"
     inkscape:window-maximized="1"
     inkscape:current-layer="g1031" /><defs
     id="defs4"><style
       id="style2">.cls-1,.cls-14,.cls-15{fill:#d6d8e5;}.cls-1{opacity:0.2;}.cls-2{fill:#38226d;}.cls-3{fill:#9c73ff;}.cls-4{fill:#8c50ff;}.cls-5{fill:#2b303f;}.cls-6{fill:#ffcea9;}.cls-7{fill:#f4f4f4;}.cls-8{fill:#d3c4a9;}.cls-9{fill:#efe3ca;}.cls-10{fill:#3a2c6d;}.cls-11{fill:#ededed;}.cls-12{fill:#bfbfbf;}.cls-13{fill:#e5e5e5;}.cls-14{opacity:0.4;}.cls-16{fill:#e4e6ef;}.cls-17{fill:#28221c;}.cls-18{fill:#99b524;}.cls-19{fill:#a6ce28;}.cls-20,.cls-30{fill:#fff;}.cls-20{opacity:0.07;}.cls-21{fill:#b0b4c1;}.cls-22{fill:#bfc2d1;}.cls-23{fill:#db302c;}.cls-24{fill:#f44336;}.cls-25{fill:#fafafa;}.cls-26{fill:#499bce;}.cls-27{fill:#55acee;}.cls-28{fill:#f1f2f2;}.cls-29{fill:#384b7a;}.cls-31{fill:#475993;}.cls-32{fill:#8e2fea;}.cls-33{fill:#a93bff;}</style><style
       id="style773">.cls-1,.cls-14,.cls-15{fill:#d6d8e5;}.cls-1{opacity:0.2;}.cls-2{fill:#38226d;}.cls-3{fill:#9c73ff;}.cls-4{fill:#8c50ff;}.cls-5{fill:#2b303f;}.cls-6{fill:#ffcea9;}.cls-7{fill:#f4f4f4;}.cls-8{fill:#d3c4a9;}.cls-9{fill:#efe3ca;}.cls-10{fill:#3a2c6d;}.cls-11{fill:#ededed;}.cls-12{fill:#bfbfbf;}.cls-13{fill:#e5e5e5;}.cls-14{opacity:0.4;}.cls-16{fill:#e4e6ef;}.cls-17{fill:#28221c;}.cls-18{fill:#99b524;}.cls-19{fill:#a6ce28;}.cls-20,.cls-30{fill:#fff;}.cls-20{opacity:0.07;}.cls-21{fill:#b0b4c1;}.cls-22{fill:#bfc2d1;}.cls-23{fill:#db302c;}.cls-24{fill:#f44336;}.cls-25{fill:#fafafa;}.cls-26{fill:#499bce;}.cls-27{fill:#55acee;}.cls-28{fill:#f1f2f2;}.cls-29{fill:#384b7a;}.cls-31{fill:#475993;}.cls-32{fill:#8e2fea;}.cls-33{fill:#a93bff;}</style></defs><title
     id="title6">Social_media_adv_SVG</title><g
     id="Слой_2"
     data-name="Слой 2"
     transform="matrix(1.347473,0,0,1.347473,193.97512,24.475861)"
     style="stroke-width:0.74213"><g
       id="Слой_1-2"
       data-name="Слой 1"
       style="stroke-width:0.74213"><g
         stroke-width="0.74213"
         data-name="Слой 1"
         id="g1031"
         transform="matrix(1.00002,0,0,1.00002,-19.975727,-8.7493704)"><polygon
           class="cls-1"
           points="238.8,500 2.75,363.89 134.7,288.77 370.75,424.88 "
           id="polygon779" /><path
           class="cls-2"
           d="m 203.08,379.1 c -3.51,2.86 -8.7,0.24 -9,0.51 -3.58,3.58 -9,7.67 -13,10.79 -2.19,1.73 -5.61,4 -5,7.35 1.11,5.92 10.59,4.1 14.17,2.29 3.58,-1.81 6.49,-4.82 9.88,-6.92 2.41,-1.5 4.79,-2.28 5.16,-5.33 0.31,-1.79 -1.59,-8.79 -2.21,-8.69 z"
           id="path781" /><path
           class="cls-3"
           d="m 205.33,386.56 c -0.47,2.92 -2.81,3.73 -5.21,5.22 -3.44,2.13 -6.47,5.22 -10,7 -3.31,1.67 -11.55,3.33 -13.87,-0.9 1.26,5.71 10.57,3.92 14.12,2.13 3.55,-1.79 6.49,-4.82 9.88,-6.92 2.41,-1.5 4.79,-2.28 5.16,-5.33 a 5.36,5.36 0 0 0 -0.08,-1.2 z"
           id="path783" /><path
           class="cls-2"
           d="m 167.43,358.57 c -3.51,2.86 -9.66,-0.27 -9.92,0 A 136.58,136.58 0 0 1 145.92,369 c -2.19,1.72 -5.6,4 -5,7.34 1.1,5.92 10.58,4.1 14.16,2.29 3.58,-1.81 6.5,-4.82 9.88,-6.92 2.42,-1.5 4.79,-2.28 5.17,-5.32 0.24,-1.82 -2.07,-7.9 -2.7,-7.82 z"
           id="path785" /><path
           class="cls-3"
           d="m 170,365.6 c -0.46,2.92 -2.81,3.73 -5.2,5.22 -3.44,2.13 -6.47,5.22 -10.05,7 -3.3,1.67 -11.55,3.33 -13.87,-0.9 1.27,5.71 10.58,3.92 14.12,2.13 3.54,-1.79 6.5,-4.82 9.88,-6.92 2.42,-1.5 4.79,-2.28 5.17,-5.33 A 6.14,6.14 0 0 0 170,365.6 Z"
           id="path787" /><path
           id="_Контур_-5"
           class="cls-4"
           d="m 250.07,266.46 c 3.89,24.33 -6.92,33.41 -21,38.59 -10.08,3.71 -24.54,9.43 -24.54,9.43 0,0 0.2,5.34 0.31,17.33 0.1,10.55 -1.29,49.08 -1.29,49.08 0,0 -5.82,3 -10.76,-0.12 0,0 -5.66,-29.52 -6.87,-42.83 -1.63,-18.05 -4.4,-29.87 -3.47,-33.75 0.81,-3.42 20.54,-13.13 26.8,-18.32 l -41.34,13.85 a 73.15,73.15 0 0 1 1.2,13.6 c -0.38,14.32 -1.17,45.33 -1.17,45.33 0,0 -5.67,4.09 -10.51,0.08 0,0 -10.4,-61.39 -9.14,-69.52 1.2,-7.71 37.63,-23.47 44.05,-28.9 a 10.29,10.29 0 0 1 8.09,-2.18 z"
           data-name="&lt;Контур&gt;" /><path
           class="cls-5"
           d="m 234.24,178.79 24.05,11.77 c 0,0 13.06,4.65 9.4,26.72 -2.66,16 -6.22,48.08 -6.22,48.08 l -45.22,-4.58 z"
           id="path790" /><path
           class="cls-6"
           d="m 235.68,174.86 c 0,0 -0.6,11.59 -0.34,12.62 0.26,1.03 5.32,4.42 6.79,5.64 1.47,1.22 -8,10.57 -12.62,12.69 -4.62,2.12 -19.23,-3.47 -19.49,-10.64 -0.26,-7.17 2.5,-13.21 4.75,-13.53 2.25,-0.32 20.91,-6.78 20.91,-6.78 z"
           data-name="&lt;Контур&gt;"
           id="path792" /><path
           class="cls-6"
           d="m 193.59,201.62 -8.33,13.88 -11.1,12.5 8.33,5.55 11.1,-9.72 c 0,0 17.57,-20.83 16.41,-22.21 -1.16,-1.38 -16.41,0 -16.41,0 z"
           id="path794" /><path
           class="cls-7"
           d="m 237,189.48 c 0,0 -8.41,12.52 -20.14,13.7 -3.7,-3.64 -4,-16.62 1.08,-20.77 0,0 -4.7,-3.79 -7.92,-3.06 a 16.63,16.63 0 0 0 -7.24,9.25 75.52,75.52 0 0 0 -4.14,26.82 c 0.2,12.3 0,43.38 0,43.38 0,0 1.75,11.88 12.36,17.79 a 38.17,38.17 0 0 0 27.84,3.84 c 5.94,-1.38 8.16,-4.71 10.2,-9 -0.53,-8.62 -3.94,-26.36 -2.5,-37.19 1.44,-10.83 3.72,-18.93 4.31,-27.69 0.59,-8.76 -1.15,-8.58 -5.54,-11.71 A 67.79,67.79 0 0 0 237,189.48 Z"
           data-name="&lt;Контур&gt;"
           id="path796" /><ellipse
           class="cls-5"
           cx="231.7"
           cy="482.89999"
           rx="5.5500002"
           ry="3.21"
           id="ellipse798" /><rect
           class="cls-5"
           x="226.14999"
           y="373.64999"
           width="11.11"
           height="108.92"
           id="rect800" /><ellipse
           class="cls-5"
           cx="27.209999"
           cy="360.92999"
           rx="5.5500002"
           ry="3.21"
           id="ellipse802" /><rect
           class="cls-5"
           x="21.66"
           y="251.67"
           width="11.11"
           height="108.92"
           id="rect804" /><ellipse
           class="cls-5"
           cx="346.01999"
           cy="418.34"
           rx="5.5500002"
           ry="3.21"
           id="ellipse806" /><rect
           class="cls-5"
           x="340.47"
           y="317.42001"
           width="11.11"
           height="100.59"
           id="rect808" /><path
           class="cls-8"
           d="M 359.74,329 121.49,191.48 8.76,256.56 l -6,-3.47 V 260 L 247,401.06 365.74,332.51 v -6.94 z"
           id="path810" /><polygon
           class="cls-9"
           points="247.02,394.12 2.75,253.09 121.49,184.54 365.76,325.57 "
           id="polygon812" /><path
           class="cls-6"
           d="m 223.49,289.34 c 2.06,-1 3.56,-2.56 6.58,-3.78 a 13.69,13.69 0 0 0 5.64,-3.41 c 2.06,-2 5.44,-9.66 7.85,-17.1 2.85,-8.79 3.34,-20.73 2.84,-25.88 -1,-10.44 -4.79,-25.06 -5.74,-31.07 -0.95,-6.01 1,-8.4 3.78,-10.62 3.28,-2.6 7.81,-1.45 10.24,7 a 162.09,162.09 0 0 1 5.39,35.68 81.31,81.31 0 0 1 -4.07,26.34 c -2.53,7.9 -5.83,13.58 -10.05,20.72 -1.16,1.94 -1.53,3.67 -3.29,7.63 -1.76,3.96 -4.76,8.15 -7.66,10.24 -2.9,2.09 -4.34,2.41 -5,2 -0.87,-0.51 -0.69,-1.45 0.54,-2.57 a 22,22 0 0 0 5.26,-5.89 c 0,0 -2.58,2.59 -4.26,4 a 22.2,22.2 0 0 1 -4.92,3.14 c -1.73,0.76 -4.12,-0.7 -2.9,-1.86 1.22,-1.16 2.47,-1.73 4.93,-3.86 a 21.74,21.74 0 0 0 3.49,-3.79 41.59,41.59 0 0 1 -5.46,3.53 c -2.68,1.37 -4.07,1.39 -5,1.35 -0.93,-0.04 -2,-1.31 -0.31,-2.55 1.53,-1.11 3.93,-1.86 6.52,-4.44 1.88,-1.87 2.95,-3.46 2.42,-3.49 -0.53,-0.03 -1.56,1.14 -3.77,1.84 -2.21,0.7 -4.57,0.06 -4.85,-1.15 -0.28,-1.21 -0.26,-0.99 1.8,-2.01 z"
           data-name="&lt;Контур&gt;"
           id="path814" /><path
           class="cls-6"
           d="m 209.45,157.59 c 1.38,-9 7.86,-15.82 17.14,-15.3 a 17.84,17.84 0 0 1 9.09,32.57 17.89,17.89 0 0 1 -1.44,3.93 c -3.28,3.84 -13.2,6.21 -16.05,5.8 -3.66,-0.52 -5.65,-2.05 -7.39,-6.05 -3.08,-7.06 -2.11,-16.54 -1.35,-20.95 z"
           data-name="&lt;Контур&gt;"
           id="path816" /><path
           class="cls-10"
           d="m 235.68,174.86 -0.85,-7.85 c 0,0 6.41,-16.6 -8.74,-13.41 -10,2.1 -12.51,3 -15.56,-3.7 -3.05,-6.7 7.69,-12.74 20.44,-11.07 a 17.6,17.6 0 0 1 15.76,17.87 c -0.33,4.94 -1.65,14.93 -11.05,18.16 z"
           id="path818" /><path
           class="cls-11"
           d="m 261.61,219.91 c 0,0 -8.27,8.22 -18.05,5.85 -1.4,-0.95 -4.76,-20.17 -4.76,-20.17 0,0 0,-10.65 8.17,-10.37 8.17,0.28 14.64,24.69 14.64,24.69 z"
           id="path820" /><g
           id="_Группа_-2"
           data-name="&lt;Группа&gt;"><g
             stroke-width="0.74213"
             data-name="&lt;Группа&gt;"
             id="g966"><path
               class="cls-7"
               d="M 131.44,266.9 164.27,248 a 1.88,1.88 0 0 1 1.89,0 L 223.75,281.25 190,300.7 Z"
               data-name="&lt;Контур&gt;"
               id="path822" /><path
               class="cls-5"
               d="m 191.51,293.73 2.5,1.44 c 0.2,0.12 0.18,0.33 -0.06,0.46 l -2.39,1.37 a 0.85,0.85 0 0 1 -0.79,0 l -2.51,-1.44 c -0.2,-0.12 -0.17,-0.32 0.06,-0.46 l 2.39,-1.38 a 0.9,0.9 0 0 1 0.8,0.01 z"
               id="path824" /><path
               class="cls-5"
               d="m 188,291.68 2.51,1.45 c 0.2,0.12 0.18,0.32 -0.06,0.46 L 188,295 a 0.9,0.9 0 0 1 -0.8,0 l -2.5,-1.45 c -0.2,-0.11 -0.18,-0.32 0.06,-0.46 l 2.39,-1.37 a 0.89,0.89 0 0 1 0.85,-0.04 z"
               id="path826" /><path
               class="cls-5"
               d="m 184.38,289.61 2.5,1.45 c 0.21,0.12 0.18,0.32 0,0.46 l -2.39,1.38 a 0.9,0.9 0 0 1 -0.8,0 l -2.5,-1.44 c -0.21,-0.12 -0.18,-0.33 0.06,-0.46 l 2.38,-1.38 a 0.91,0.91 0 0 1 0.75,-0.01 z"
               id="path828" /><path
               class="cls-5"
               d="m 180.88,287.59 2.5,1.45 c 0.21,0.12 0.18,0.32 -0.06,0.46 l -2.38,1.38 a 0.91,0.91 0 0 1 -0.8,0 l -2.5,-1.45 c -0.21,-0.11 -0.18,-0.32 0.05,-0.46 l 2.39,-1.37 a 0.88,0.88 0 0 1 0.8,-0.01 z"
               id="path830" /><path
               class="cls-5"
               d="m 177.34,285.55 2.5,1.44 c 0.2,0.12 0.18,0.33 -0.06,0.46 l -2.39,1.38 a 0.85,0.85 0 0 1 -0.79,0 l -2.51,-1.44 c -0.2,-0.12 -0.17,-0.33 0.06,-0.46 l 2.39,-1.38 a 0.87,0.87 0 0 1 0.8,0 z"
               id="path832" /><path
               class="cls-5"
               d="m 173.79,283.5 2.51,1.5 c 0.2,0.11 0.17,0.32 -0.06,0.46 l -2.39,1.38 a 0.9,0.9 0 0 1 -0.8,0 l -2.5,-1.45 c -0.2,-0.11 -0.18,-0.32 0.06,-0.46 l 2.39,-1.38 a 0.88,0.88 0 0 1 0.79,-0.05 z"
               id="path834" /><path
               class="cls-5"
               d="m 170.25,281.46 2.5,1.44 c 0.21,0.12 0.18,0.32 -0.05,0.46 l -2.39,1.38 a 0.87,0.87 0 0 1 -0.8,0 l -2.5,-1.44 c -0.21,-0.12 -0.18,-0.33 0.06,-0.46 l 2.38,-1.38 a 0.87,0.87 0 0 1 0.8,0 z"
               id="path836" /><path
               class="cls-5"
               d="m 166.71,279.41 2.5,1.45 c 0.2,0.11 0.18,0.32 -0.06,0.46 l -2.38,1.37 a 0.88,0.88 0 0 1 -0.8,0 l -2.5,-1.45 c -0.21,-0.12 -0.18,-0.32 0.05,-0.46 l 2.39,-1.38 a 0.9,0.9 0 0 1 0.8,0.01 z"
               id="path838" /><path
               class="cls-5"
               d="m 163.17,277.37 2.5,1.44 c 0.2,0.12 0.18,0.32 -0.06,0.46 l -2.39,1.38 a 0.85,0.85 0 0 1 -0.79,0 l -2.51,-1.44 c -0.2,-0.12 -0.17,-0.33 0.06,-0.46 l 2.39,-1.38 a 0.87,0.87 0 0 1 0.8,0 z"
               id="path840" /><path
               class="cls-5"
               d="m 159.62,275.32 2.51,1.45 c 0.2,0.11 0.17,0.32 -0.06,0.45 l -2.39,1.38 a 0.91,0.91 0 0 1 -0.8,0 l -2.5,-1.45 c -0.2,-0.12 -0.18,-0.32 0.06,-0.46 l 2.39,-1.38 a 0.88,0.88 0 0 1 0.79,0.01 z"
               id="path842" /><path
               class="cls-5"
               d="m 156.08,273.27 2.5,1.45 c 0.21,0.12 0.18,0.32 -0.05,0.46 l -2.39,1.38 a 0.9,0.9 0 0 1 -0.8,0 l -2.5,-1.44 c -0.21,-0.12 -0.18,-0.33 0.06,-0.46 l 2.38,-1.38 a 0.91,0.91 0 0 1 0.8,-0.01 z"
               id="path844" /><path
               class="cls-5"
               d="m 152.54,271.23 2.5,1.44 c 0.2,0.12 0.18,0.33 -0.06,0.46 l -2.39,1.38 a 0.89,0.89 0 0 1 -0.79,0 l -2.5,-1.45 c -0.21,-0.12 -0.18,-0.32 0,-0.46 l 2.39,-1.38 a 0.9,0.9 0 0 1 0.85,0.01 z"
               id="path846" /><path
               class="cls-5"
               d="m 149,269.18 2.51,1.45 c 0.2,0.12 0.18,0.32 -0.06,0.46 l -2.39,1.38 a 0.88,0.88 0 0 1 -0.79,0 l -2.51,-1.44 c -0.2,-0.12 -0.18,-0.33 0.06,-0.46 l 2.39,-1.38 a 0.89,0.89 0 0 1 0.79,-0.01 z"
               id="path848" /><path
               class="cls-5"
               d="m 143.75,266.15 4.2,2.43 c 0.21,0.12 0.18,0.33 0,0.46 l -2.39,1.38 a 0.91,0.91 0 0 1 -0.8,0 L 140.5,268 c -0.2,-0.12 -0.17,-0.33 0.06,-0.46 l 2.39,-1.38 a 0.91,0.91 0 0 1 0.8,-0.01 z"
               id="path850" /><path
               class="cls-5"
               d="m 189.69,288.71 2.5,1.45 c 0.2,0.11 0.18,0.32 -0.06,0.46 l -2.39,1.38 a 0.88,0.88 0 0 1 -0.79,0 l -2.51,-1.45 c -0.2,-0.11 -0.17,-0.32 0.06,-0.46 l 2.39,-1.38 a 0.9,0.9 0 0 1 0.8,0 z"
               id="path852" /><path
               class="cls-5"
               d="m 186.14,286.66 2.5,1.45 c 0.2,0.12 0.18,0.32 -0.06,0.46 l -2.39,1.43 a 0.88,0.88 0 0 1 -0.79,0 l -2.51,-1.45 c -0.2,-0.11 -0.17,-0.32 0.06,-0.46 l 2.39,-1.37 a 0.91,0.91 0 0 1 0.8,-0.06 z"
               id="path854" /><path
               class="cls-5"
               d="m 182.59,284.61 2.5,1.45 c 0.2,0.12 0.18,0.32 -0.06,0.46 l -2.38,1.38 a 0.91,0.91 0 0 1 -0.8,0 l -2.5,-1.44 c -0.21,-0.12 -0.18,-0.33 0.05,-0.46 l 2.39,-1.38 a 0.91,0.91 0 0 1 0.8,-0.01 z"
               id="path856" /><path
               class="cls-5"
               d="m 179,282.57 2.5,1.44 c 0.21,0.12 0.18,0.32 -0.06,0.46 l -2.38,1.38 a 0.91,0.91 0 0 1 -0.8,0 l -2.5,-1.44 c -0.21,-0.12 -0.18,-0.33 0,-0.46 l 2.39,-1.38 a 0.87,0.87 0 0 1 0.85,0 z"
               id="path858" /><path
               class="cls-5"
               d="M 175.52,280.53 178,282 c 0.21,0.12 0.18,0.32 -0.06,0.46 l -2.38,1.38 a 0.91,0.91 0 0 1 -0.8,0 l -2.5,-1.45 c -0.21,-0.11 -0.18,-0.32 0.05,-0.46 l 2.39,-1.37 a 0.88,0.88 0 0 1 0.82,-0.03 z"
               id="path860" /><path
               class="cls-5"
               d="m 172,278.48 2.5,1.45 c 0.21,0.12 0.18,0.32 -0.05,0.46 l -2.45,1.38 a 0.91,0.91 0 0 1 -0.8,0 l -2.5,-1.44 c -0.21,-0.12 -0.18,-0.33 0.06,-0.46 l 2.38,-1.38 a 0.91,0.91 0 0 1 0.86,-0.01 z"
               id="path862" /><path
               class="cls-5"
               d="m 168.42,276.44 2.5,1.44 c 0.21,0.12 0.18,0.32 0,0.46 l -2.39,1.38 a 0.9,0.9 0 0 1 -0.8,0 l -2.5,-1.44 c -0.2,-0.12 -0.18,-0.33 0.06,-0.46 l 2.38,-1.38 a 0.87,0.87 0 0 1 0.75,0 z"
               id="path864" /><path
               class="cls-5"
               d="m 164.87,274.39 2.51,1.44 c 0.2,0.12 0.17,0.32 -0.06,0.46 l -2.39,1.38 a 0.87,0.87 0 0 1 -0.8,0 l -2.5,-1.44 c -0.2,-0.12 -0.18,-0.33 0.06,-0.46 l 2.39,-1.38 a 0.85,0.85 0 0 1 0.79,0 z"
               id="path866" /><path
               class="cls-5"
               d="m 161.32,272.34 2.51,1.44 c 0.2,0.12 0.17,0.33 -0.06,0.46 l -2.39,1.38 a 0.87,0.87 0 0 1 -0.8,0 l -2.5,-1.44 c -0.2,-0.12 -0.18,-0.32 0.06,-0.46 l 2.39,-1.38 a 0.85,0.85 0 0 1 0.79,0 z"
               id="path868" /><path
               class="cls-5"
               d="m 157.78,270.29 2.5,1.44 c 0.2,0.12 0.18,0.33 -0.06,0.46 l -2.39,1.38 a 0.85,0.85 0 0 1 -0.79,0 l -2.51,-1.44 c -0.2,-0.12 -0.18,-0.32 0.06,-0.46 l 2.39,-1.38 a 0.9,0.9 0 0 1 0.8,0 z"
               id="path870" /><path
               class="cls-5"
               d="m 154.23,268.24 2.5,1.44 c 0.2,0.12 0.18,0.33 -0.06,0.46 l -2.39,1.38 a 0.89,0.89 0 0 1 -0.79,0 L 151,270.11 c -0.2,-0.12 -0.17,-0.32 0.06,-0.46 l 2.39,-1.38 a 0.9,0.9 0 0 1 0.78,-0.03 z"
               id="path872" /><path
               class="cls-5"
               d="m 150.68,266.19 2.5,1.45 c 0.2,0.11 0.18,0.32 -0.06,0.46 l -2.39,1.37 a 0.86,0.86 0 0 1 -0.79,0 l -2.5,-1.45 c -0.21,-0.12 -0.18,-0.32 0.05,-0.46 l 2.39,-1.38 a 0.9,0.9 0 0 1 0.8,0.01 z"
               id="path874" /><path
               class="cls-5"
               d="m 193.23,290.76 4.21,2.43 c 0.21,0.12 0.18,0.32 -0.05,0.46 L 195,295 a 0.87,0.87 0 0 1 -0.8,0 l -4.2,-2.37 c -0.2,-0.12 -0.18,-0.32 0.06,-0.46 l 2.39,-1.38 a 0.88,0.88 0 0 1 0.78,-0.03 z"
               id="path876" /><path
               class="cls-5"
               d="m 143.92,266 2.5,1.45 a 0.84,0.84 0 0 0 0.74,0 l 2.53,-1.46 a 0.23,0.23 0 0 0 0,-0.43 l -0.2,-0.12 c -0.19,-0.1 -0.19,-0.28 0,-0.39 l 2.67,-1.54 c 0.21,-0.12 0.21,-0.31 0,-0.43 l -1.59,-0.92 a 0.81,0.81 0 0 0 -0.74,0 l -2.5,1.44 -0.51,0.3 -0.38,0.22 -0.37,0.21 -2.15,1.24 c -0.21,0.14 -0.21,0.33 0,0.43 z"
               id="path878" /><path
               class="cls-5"
               d="m 205.23,285.79 2.5,1.45 c 0.2,0.11 0.18,0.32 -0.06,0.46 l -2.39,1.37 a 0.89,0.89 0 0 1 -0.79,0 l -2.5,-1.45 c -0.21,-0.12 -0.18,-0.32 0,-0.46 l 2.39,-1.38 a 0.9,0.9 0 0 1 0.85,0.01 z"
               id="path880" /><path
               class="cls-5"
               d="m 201.69,283.75 2.51,1.45 c 0.2,0.11 0.18,0.32 -0.06,0.46 l -2.39,1.34 a 0.86,0.86 0 0 1 -0.79,0 l -2.51,-1.45 c -0.2,-0.12 -0.18,-0.32 0.06,-0.46 l 2.39,-1.38 a 0.88,0.88 0 0 1 0.79,0.04 z"
               id="path882" /><path
               class="cls-5"
               d="m 198.16,281.71 2.5,1.45 c 0.21,0.11 0.18,0.32 0,0.46 l -2.44,1.38 a 0.88,0.88 0 0 1 -0.8,0 l -2.5,-1.45 c -0.2,-0.11 -0.18,-0.32 0.06,-0.46 l 2.39,-1.38 a 0.88,0.88 0 0 1 0.79,0 z"
               id="path884" /><path
               class="cls-5"
               d="m 168.08,264.34 2.5,1.45 c 0.21,0.12 0.18,0.32 -0.06,0.46 l -2.38,1.38 a 0.91,0.91 0 0 1 -0.8,0 l -2.5,-1.45 c -0.21,-0.11 -0.18,-0.32 0,-0.46 l 2.39,-1.37 a 0.88,0.88 0 0 1 0.85,-0.01 z"
               id="path886" /><path
               class="cls-5"
               d="m 164.55,262.3 2.5,1.45 c 0.2,0.12 0.18,0.32 -0.06,0.46 l -2.39,1.38 a 0.88,0.88 0 0 1 -0.79,0 l -2.51,-1.45 c -0.2,-0.11 -0.17,-0.32 0.06,-0.46 l 2.39,-1.37 a 0.91,0.91 0 0 1 0.8,-0.01 z"
               id="path888" /><path
               class="cls-5"
               d="m 161,260.26 2.51,1.45 c 0.2,0.12 0.17,0.32 -0.06,0.46 l -2.39,1.38 a 0.9,0.9 0 0 1 -0.8,0 l -2.5,-1.44 c -0.2,-0.12 -0.18,-0.33 0.06,-0.46 l 2.39,-1.38 a 0.89,0.89 0 0 1 0.79,-0.01 z"
               id="path890" /><path
               class="cls-5"
               d="m 157.48,258.22 2.5,1.45 c 0.21,0.12 0.18,0.32 0,0.46 l -2.39,1.38 a 0.9,0.9 0 0 1 -0.8,0 l -2.5,-1.44 c -0.21,-0.12 -0.18,-0.33 0.06,-0.46 l 2.38,-1.38 a 0.91,0.91 0 0 1 0.75,-0.01 z"
               id="path892" /><path
               class="cls-5"
               d="m 193.72,279.15 3.41,2 c 0.21,0.11 0.18,0.32 -0.06,0.46 l -2.38,1.39 a 0.91,0.91 0 0 1 -0.8,0 l -3.41,-2 c -0.21,-0.12 -0.18,-0.33 0.06,-0.46 l 2.38,-1.38 a 0.87,0.87 0 0 1 0.8,-0.01 z"
               id="path894" /><path
               class="cls-5"
               d="m 171.61,266.38 3.41,2 c 0.21,0.12 0.18,0.33 -0.05,0.46 l -2.39,1.38 a 0.87,0.87 0 0 1 -0.8,0 l -3.41,-2 c -0.2,-0.11 -0.18,-0.32 0.06,-0.46 l 2.38,-1.37 a 0.88,0.88 0 0 1 0.8,-0.01 z"
               id="path896" /><path
               class="cls-5"
               d="m 176.05,269 16.64,9.6 c 0.2,0.12 0.18,0.33 -0.06,0.46 l -2.39,1.38 a 0.85,0.85 0 0 1 -0.79,0 l -16.64,-9.6 c -0.2,-0.12 -0.18,-0.33 0.06,-0.46 l 2.39,-1.38 a 0.85,0.85 0 0 1 0.79,0 z"
               id="path898" /><path
               class="cls-5"
               d="m 192.16,286.17 2.5,1.45 c 0.2,0.12 0.18,0.32 -0.06,0.46 l -2.39,1.38 a 0.88,0.88 0 0 1 -0.79,0 L 188.91,288 c -0.2,-0.11 -0.18,-0.32 0.06,-0.46 l 2.39,-1.37 a 0.91,0.91 0 0 1 0.8,0 z"
               id="path900" /><path
               class="cls-5"
               d="m 188.62,284.13 2.5,1.44 c 0.2,0.12 0.18,0.33 -0.06,0.46 l -2.39,1.38 a 0.89,0.89 0 0 1 -0.79,0 L 185.37,286 c -0.2,-0.12 -0.17,-0.32 0.06,-0.46 l 2.39,-1.38 a 0.9,0.9 0 0 1 0.8,-0.03 z"
               id="path902" /><path
               class="cls-5"
               d="m 185.08,282.09 2.5,1.44 c 0.2,0.12 0.18,0.33 -0.06,0.46 l -2.38,1.38 a 0.87,0.87 0 0 1 -0.8,0 l -2.5,-1.44 c -0.21,-0.12 -0.18,-0.33 0,-0.46 l 2.39,-1.38 a 0.87,0.87 0 0 1 0.85,0 z"
               id="path904" /><path
               class="cls-5"
               d="m 181.54,280 2.5,1.45 c 0.21,0.12 0.18,0.32 -0.06,0.46 l -2.38,1.38 a 0.91,0.91 0 0 1 -0.8,0 l -2.5,-1.44 c -0.21,-0.12 -0.18,-0.33 0,-0.46 l 2.39,-1.38 a 0.91,0.91 0 0 1 0.85,-0.01 z"
               id="path906" /><path
               class="cls-5"
               d="m 178,278 2.5,1.45 c 0.21,0.11 0.18,0.32 -0.05,0.46 l -2.39,1.37 a 0.88,0.88 0 0 1 -0.8,0 l -2.5,-1.45 c -0.21,-0.12 -0.18,-0.32 0.06,-0.46 L 177.2,278 a 0.91,0.91 0 0 1 0.8,0 z"
               id="path908" /><path
               class="cls-5"
               d="m 174.46,276 2.5,1.44 c 0.21,0.12 0.18,0.33 -0.05,0.46 l -2.39,1.38 a 0.87,0.87 0 0 1 -0.8,0 l -2.5,-1.44 c -0.2,-0.12 -0.18,-0.32 0.06,-0.46 l 2.39,-1.38 a 0.85,0.85 0 0 1 0.79,0 z"
               id="path910" /><path
               class="cls-5"
               d="m 170.92,273.91 2.51,1.45 c 0.2,0.12 0.17,0.32 -0.06,0.46 L 171,277.2 a 0.9,0.9 0 0 1 -0.8,0 l -2.5,-1.44 c -0.2,-0.12 -0.18,-0.33 0.06,-0.46 l 2.39,-1.38 a 0.89,0.89 0 0 1 0.77,-0.01 z"
               id="path912" /><path
               class="cls-5"
               d="m 167.38,271.87 2.51,1.45 c 0.2,0.11 0.18,0.32 -0.06,0.46 l -2.39,1.37 a 0.86,0.86 0 0 1 -0.79,0 l -2.51,-1.45 c -0.2,-0.11 -0.18,-0.32 0.06,-0.46 l 2.39,-1.38 a 0.88,0.88 0 0 1 0.79,0.01 z"
               id="path914" /><path
               class="cls-5"
               d="m 163.85,269.83 2.5,1.44 c 0.2,0.12 0.18,0.33 -0.06,0.46 l -2.39,1.38 a 0.85,0.85 0 0 1 -0.79,0 l -2.51,-1.44 c -0.2,-0.12 -0.17,-0.32 0.06,-0.46 l 2.39,-1.38 a 0.9,0.9 0 0 1 0.8,0 z"
               id="path916" /><path
               class="cls-5"
               d="m 160.31,267.79 2.5,1.44 c 0.2,0.12 0.18,0.32 -0.06,0.46 l -2.39,1.38 a 0.88,0.88 0 0 1 -0.79,0 l -2.5,-1.44 c -0.21,-0.12 -0.18,-0.33 0.05,-0.46 l 2.39,-1.38 a 0.87,0.87 0 0 1 0.8,0 z"
               id="path918" /><path
               class="cls-5"
               d="m 156.77,265.74 2.5,1.45 c 0.21,0.12 0.18,0.32 -0.06,0.46 l -2.38,1.35 a 0.91,0.91 0 0 1 -0.8,0 l -2.5,-1.45 c -0.21,-0.11 -0.18,-0.32 0.05,-0.46 l 2.39,-1.37 a 0.88,0.88 0 0 1 0.8,0.02 z"
               id="path920" /><path
               class="cls-5"
               d="m 153.23,263.7 2.5,1.44 c 0.21,0.12 0.18,0.33 -0.06,0.46 l -2.38,1.4 a 0.91,0.91 0 0 1 -0.8,0 l -2.5,-1.45 c -0.21,-0.12 -0.18,-0.32 0.06,-0.46 l 2.38,-1.38 a 0.91,0.91 0 0 1 0.8,-0.01 z"
               id="path922" /><path
               class="cls-5"
               d="m 195.69,288.22 5.18,3 c 0.2,0.12 0.18,0.33 -0.06,0.46 l -2.39,1.32 a 0.89,0.89 0 0 1 -0.79,0 l -5.18,-3 c -0.2,-0.12 -0.18,-0.33 0.06,-0.46 l 2.39,-1.38 a 0.85,0.85 0 0 1 0.79,0.06 z"
               id="path924" /><path
               class="cls-5"
               d="m 197.35,285.2 2.5,1.45 c 0.2,0.12 0.18,0.32 -0.06,0.46 l -2.39,1.38 a 0.88,0.88 0 0 1 -0.79,0 l -2.51,-1.44 c -0.2,-0.12 -0.17,-0.33 0.06,-0.46 l 2.39,-1.38 a 0.91,0.91 0 0 1 0.8,-0.01 z"
               id="path926" /><path
               class="cls-5"
               d="m 193.81,283.16 2.5,1.45 c 0.2,0.11 0.18,0.32 -0.06,0.46 l -2.39,1.38 a 0.88,0.88 0 0 1 -0.79,0 l -2.5,-1.45 c -0.21,-0.11 -0.18,-0.32 0.05,-0.46 L 193,283.2 a 0.88,0.88 0 0 1 0.81,-0.04 z"
               id="path928" /><path
               class="cls-5"
               d="m 190.27,281.12 2.5,1.44 c 0.21,0.12 0.18,0.33 -0.06,0.46 l -2.38,1.38 a 0.91,0.91 0 0 1 -0.8,0 L 187,283 c -0.21,-0.12 -0.18,-0.32 0.05,-0.46 l 2.39,-1.38 a 0.91,0.91 0 0 1 0.83,-0.04 z"
               id="path930" /><path
               class="cls-5"
               d="m 186.73,279.08 2.5,1.44 c 0.21,0.12 0.18,0.33 0,0.46 l -2.39,1.38 a 0.87,0.87 0 0 1 -0.8,0 l -2.5,-1.44 c -0.2,-0.12 -0.18,-0.33 0.06,-0.46 l 2.38,-1.38 a 0.87,0.87 0 0 1 0.75,0 z"
               id="path932" /><path
               class="cls-5"
               d="m 183.19,277 2.51,1.45 c 0.2,0.12 0.17,0.32 -0.06,0.46 l -2.39,1.38 a 0.9,0.9 0 0 1 -0.8,0 l -2.5,-1.44 c -0.2,-0.12 -0.18,-0.33 0.06,-0.46 l 2.39,-1.38 a 0.89,0.89 0 0 1 0.79,-0.01 z"
               id="path934" /><path
               class="cls-5"
               d="m 179.66,275 2.5,1.45 c 0.2,0.11 0.18,0.32 -0.06,0.46 l -2.39,1.37 a 0.86,0.86 0 0 1 -0.79,0 l -2.51,-1.45 c -0.2,-0.12 -0.18,-0.32 0.06,-0.46 l 2.39,-1.38 a 0.9,0.9 0 0 1 0.8,0.01 z"
               id="path936" /><path
               class="cls-5"
               d="m 176.12,273 2.5,1.44 c 0.2,0.12 0.18,0.33 -0.06,0.46 l -2.39,1.38 a 0.85,0.85 0 0 1 -0.79,0 l -2.5,-1.44 c -0.21,-0.12 -0.18,-0.32 0.05,-0.46 l 2.39,-1.38 a 0.9,0.9 0 0 1 0.8,0 z"
               id="path938" /><path
               class="cls-5"
               d="m 172.58,270.91 2.5,1.44 c 0.21,0.12 0.18,0.32 -0.06,0.46 l -2.38,1.38 a 0.87,0.87 0 0 1 -0.8,0 l -2.5,-1.44 c -0.21,-0.12 -0.18,-0.33 0,-0.46 l 2.39,-1.38 a 0.87,0.87 0 0 1 0.85,0 z"
               id="path940" /><path
               class="cls-5"
               d="m 169,268.86 2.5,1.45 c 0.21,0.12 0.18,0.32 0,0.46 l -2.39,1.38 a 0.9,0.9 0 0 1 -0.8,0 l -2.5,-1.45 c -0.21,-0.11 -0.18,-0.32 0.06,-0.46 l 2.38,-1.37 a 0.91,0.91 0 0 1 0.75,-0.01 z"
               id="path942" /><path
               class="cls-5"
               d="m 165.5,266.82 2.51,1.45 c 0.2,0.11 0.17,0.32 -0.06,0.45 l -2.39,1.38 a 0.91,0.91 0 0 1 -0.8,0 l -2.5,-1.45 c -0.2,-0.12 -0.18,-0.32 0.06,-0.46 l 2.39,-1.38 a 0.88,0.88 0 0 1 0.79,0.01 z"
               id="path944" /><path
               class="cls-5"
               d="m 162,264.78 2.51,1.44 c 0.2,0.12 0.18,0.33 -0.06,0.46 l -2.45,1.38 a 0.85,0.85 0 0 1 -0.79,0 l -2.51,-1.44 c -0.2,-0.12 -0.18,-0.32 0.06,-0.46 l 2.39,-1.38 a 0.85,0.85 0 0 1 0.85,0 z"
               id="path946" /><path
               class="cls-5"
               d="m 154.05,260.21 6.88,4 c 0.2,0.12 0.18,0.32 -0.06,0.46 l -2.39,1.33 a 0.88,0.88 0 0 1 -0.79,0 l -6.88,-4 c -0.21,-0.12 -0.18,-0.33 0.05,-0.46 l 2.39,-1.38 a 0.87,0.87 0 0 1 0.8,0.05 z"
               id="path948" /><path
               class="cls-5"
               d="m 200.88,287.25 3.42,2 c 0.2,0.12 0.17,0.32 -0.06,0.46 l -2.39,1.38 a 0.9,0.9 0 0 1 -0.8,0 l -3.41,-2 c -0.2,-0.12 -0.18,-0.32 0.06,-0.46 l 2.39,-1.38 a 0.85,0.85 0 0 1 0.79,0 z"
               id="path950" /><path
               class="cls-5"
               d="m 140.19,268.21 50.25,29 c 0.2,0.12 0.18,0.32 -0.06,0.46 l -1.19,0.69 a 0.9,0.9 0 0 1 -0.8,0 l -50.25,-29 c -0.2,-0.12 -0.17,-0.33 0.06,-0.46 l 1.19,-0.69 a 0.87,0.87 0 0 1 0.8,0 z"
               id="path952" /><polygon
               class="cls-12"
               points="198.99,269.5 198.66,269.69 189.98,274.7 174.54,265.79 174.22,265.61 183.23,260.41 "
               data-name="&lt;Контур&gt;"
               id="polygon954" /><polygon
               class="cls-13"
               points="198.66,269.69 189.98,274.7 174.54,265.79 183.23,260.78 "
               data-name="&lt;Контур&gt;"
               id="polygon956" /><path
               class="cls-13"
               d="m 223.75,281.2 v 0.8 a 3.18,3.18 0 0 1 -1.58,2.75 l -30.61,17.67 a 3.14,3.14 0 0 1 -1.58,0.42 3.2,3.2 0 0 1 -1.58,-0.42 l -55.38,-32 a 3.18,3.18 0 0 1 -1.58,-2.75 V 266.9 L 190,300.7 Z"
               data-name="&lt;Контур&gt;"
               id="path958" /><path
               class="cls-6"
               d="M 192.47,224.81 182.2,219 c 0,0 -9.43,9 -9.43,9.36 A 130,130 0 0 0 162.28,242 c -1.29,1.83 -2.68,2.93 -5.53,6.17 -2.85,3.24 -5.4,7.58 -6.17,10.95 -0.77,3.37 -0.51,4.64 0.11,5 0.78,0.47 1.54,-0.11 2.07,-1.62 a 22.78,22.78 0 0 1 3.24,-7 c 0,0 -1.32,3.28 -1.94,5.29 a 20.68,20.68 0 0 0 -0.93,5.44 c 0,1.75 2.15,3 2.72,1.5 0.57,-1.5 0.61,-2.8 1.57,-5.77 a 22.1,22.1 0 0 1 2.05,-4.58 38.74,38.74 0 0 0 -1.09,6.06 c -0.21,2.81 0.3,3.94 0.67,4.66 0.37,0.72 1.91,1 2.37,-0.91 0.41,-1.75 0.18,-4.05 1.49,-7.33 1,-2.39 2,-4 2.18,-3.57 0.18,0.43 -0.43,1.79 -0.22,3.9 0.21,2.11 1.65,3.75 2.83,3.42 1.18,-0.33 0.94,-0.29 1.08,-2.43 0.14,-2.14 0.94,-4.07 0.88,-7.08 a 13,13 0 0 1 0.91,-6.15 c 0.89,-2.28 5.22,-7.36 10.1,-12.2 z"
               id="path960" /><path
               class="cls-7"
               d="m 189.09,301.17 a 3.75,3.75 0 0 1 -3.23,-0.25 l -55.14,-31.83 a 3.75,3.75 0 0 1 -1.82,-2.62 l -6,-36 a 4.18,4.18 0 0 1 0,-0.61 3.76,3.76 0 0 1 1.11,-2.67 l 57.3,33.08 a 2.81,2.81 0 0 1 1.34,2 z"
               data-name="&lt;Контур&gt;"
               id="path962" /><path
               class="cls-13"
               d="m 190,300.7 -0.38,0.22 a 4,4 0 0 1 -0.51,0.25 l -6.53,-38.95 a 2.81,2.81 0 0 0 -1.34,-2 l -57.3,-33.08 a 3.79,3.79 0 0 1 0.77,-0.58 l 57.41,33.14 a 2.78,2.78 0 0 1 1.34,1.94 z"
               data-name="&lt;Контур&gt;"
               id="path964" /></g></g><path
           class="cls-11"
           d="m 199.17,204 c 0,0 -4.32,-0.22 -6.1,-2.74 0.33,-4.3 5.84,-20.65 16.92,-21.87 a 20.61,20.61 0 0 0 -6.93,8.36 c -2.01,4.89 -3.89,16.25 -3.89,16.25 z"
           id="path969" /><ellipse
           class="cls-14"
           cx="73.5"
           cy="249.03999"
           rx="6.8800001"
           ry="3.97"
           id="ellipse971" /><ellipse
           class="cls-15"
           cx="74.480003"
           cy="248.3"
           rx="6.8800001"
           ry="3.97"
           id="ellipse973" /><polygon
           class="cls-15"
           points="81.34,248.58 83.69,234.82 65.27,234.72 67.68,248.58 "
           id="polygon975" /><ellipse
           class="cls-16"
           cx="74.480003"
           cy="234.55"
           rx="9.2200003"
           ry="5.3200002"
           id="ellipse977" /><path
           class="cls-17"
           d="m 74.48,238.7 a 12.12,12.12 0 0 1 -5.93,-1.4 c -1.34,-0.78 -2.11,-1.78 -2.11,-2.75 0,-0.97 0.77,-2 2.11,-2.75 a 13.26,13.26 0 0 1 11.86,0 c 1.35,0.78 2.12,1.78 2.12,2.75 0,0.97 -0.77,2 -2.12,2.75 a 12.09,12.09 0 0 1 -5.93,1.4 z"
           id="path979" /><path
           class="cls-18"
           d="m 78.45,230.36 a 11.66,11.66 0 0 0 -3.91,-9.59 11.66,11.66 0 0 0 -3.91,9.59 l -5.27,-0.5 c 2.23,8.38 9.22,7.66 9.22,7.66 0.52,0 7,0.38 9.17,-7.66 z"
           id="path981" /><path
           class="cls-19"
           d="m 74.54,237.54 c 0,0 -0.47,-6.53 -9.24,-10.92 0,0 -2.07,10.84 9.24,10.92 z"
           id="path983" /><path
           class="cls-19"
           d="m 74.48,237.54 c 0,0 0.52,-6.54 9.24,-10.92 0,0 2.07,10.84 -9.24,10.92 z"
           id="path985" /><ellipse
           class="cls-14"
           cx="256.82999"
           cy="339.78"
           rx="8.9799995"
           ry="5.1799998"
           id="ellipse987" /><path
           class="cls-15"
           d="m 266.69,339 v -13.79 l -17.92,0.45 v 12.75 c -0.34,1.54 0.51,3.14 2.55,4.32 a 14.07,14.07 0 0 0 12.7,0 c 1.81,-1.02 2.68,-2.35 2.67,-3.73 z"
           id="path989" /><ellipse
           class="cls-16"
           cx="257.70999"
           cy="325.20999"
           rx="8.9799995"
           ry="5.1799998"
           id="ellipse991" /><path
           class="cls-17"
           d="m 265.27,325.21 c 0,0.85 -0.7,1.73 -1.92,2.44 a 11.45,11.45 0 0 1 -5.06,1.31 h -0.58 a 11.72,11.72 0 0 1 -5.64,-1.33 c -1.22,-0.71 -1.92,-1.59 -1.92,-2.44 0,-0.85 0.7,-1.73 1.92,-2.43 a 11.61,11.61 0 0 1 5.64,-1.33 h 0.58 a 11.32,11.32 0 0 1 5.06,1.32 c 1.22,0.73 1.92,1.62 1.92,2.46 z"
           id="path993" /><path
           class="cls-20"
           d="m 265.27,325.21 c 0,0.85 -0.7,1.73 -1.92,2.44 a 10.45,10.45 0 0 1 -10.13,0 c -1.22,-0.71 -1.92,-1.59 -1.92,-2.44 0,-0.85 0.7,-1.73 1.92,-2.43 a 10.38,10.38 0 0 1 10.13,0 c 1.22,0.7 1.92,1.59 1.92,2.43 z"
           id="path995" /><path
           class="cls-21"
           d="m 265.38,331.62 -1.91,-1.11 -0.92,0.54 0.92,0.54 v 0.35 l 1.79,1 -0.05,0.33 a 15.77,15.77 0 0 1 1.18,1.93 l 0.07,-0.06 v 4.45 c 0,1.17 -0.69,0.77 -1,0.6 l -2,-1.15 -0.92,0.53 0.92,0.54 v 0.35 l 2,1.16 a 3.19,3.19 0 0 0 0.65,0.29 l -0.12,0.56 1,-0.59 a 1.77,1.77 0 0 0 0.61,-1.57 v -4.65 a 5.36,5.36 0 0 0 -2.22,-4.04 z"
           id="path997" /><path
           class="cls-22"
           d="m 264.55,342.19 -2,-1.16 v -1.43 l 2,1.16 c 0.3,0.17 1,0.57 1,-0.6 v -4.65 a 2.73,2.73 0 0 0 -1.16,-2 l -1.82,-1 v -1.43 l 1.9,1.1 a 5.4,5.4 0 0 1 2.31,4.07 v 4.65 c -0.02,1.23 -0.6,2.23 -2.23,1.29 z"
           id="path999" />
           <g id="you">
           	<animateTransform attributeName="transform"
                type="rotate"
                values="0; 2; 0; -2; 0;"
                begin=".2s" dur="2.5s"
                additive="sum"
                repeatCount="indefinite"
          	/>
           <path
           class="cls-23"
           d="M 63.08,103.44 C 61.51,99.32 59.81,97.75 56.34,95.52 52.87,93.29 44.18,88.12 36.65,83.77 29.12,79.42 20.39,74.49 16.94,72.77 14.55,71.54 13,71 11.75,71.54 l -0.22,0.12 -0.13,0.07 -7.23,3.88 4.19,3.13 A 80,80 0 0 0 7.75,90 c 0,9.71 0.83,15.76 2.45,19.88 1.62,4.12 3.28,5.7 6.73,8 3.45,2.3 12.17,7.4 19.72,11.75 5.58,3.23 11.81,6.75 16.06,9.07 l 0.88,7.39 8.17,-4.34 a 3.84,3.84 0 0 0 1.33,-1.29 c 1.63,-2.24 2.45,-7.34 2.45,-17 -0.01,-9.85 -0.83,-15.86 -2.46,-20.02 z"
           id="path1001" /><path
           class="cls-24"
           d="m 55.32,107.61 c -1.56,-4.13 -3.26,-5.7 -6.73,-7.93 C 45.12,97.45 36.43,92.28 28.9,87.93 21.37,83.58 12.64,78.66 9.19,76.93 5.74,75.2 4,74.77 2.44,77.08 0.88,79.39 0,84.42 0,94.17 c 0,9.71 0.83,15.76 2.44,19.88 1.61,4.12 3.29,5.7 6.74,8 3.45,2.3 12.17,7.4 19.72,11.76 7.55,4.36 16.23,9.23 19.7,11 3.47,1.77 5.16,2.13 6.73,-0.19 1.57,-2.32 2.45,-7.34 2.45,-17.05 0,-9.79 -0.78,-15.81 -2.46,-19.96 z"
           id="path1003" /><polygon
           class="cls-25"
           points="21.67,119.2 21.67,94.18 39.72,117.11 "
           id="polygon1005" />
           </g>
           <g id="twit">
           	<animateTransform attributeName="transform"
                type="rotate"
                values="0; 2; 0; -2; 0;"
                begin="0.3s" dur="2s"
                additive="sum"
                repeatCount="indefinite"
          	/>
           <path
           class="cls-26"
           d="m 204.26,52.65 c 0,-18 -12.62,-39.82 -28.18,-48.81 C 168.43,-0.57 161.5,-1 156.42,1.73 l -0.17,0.1 -0.19,0.11 -5.72,3.33 1.42,0.65 c -2.45,3.41 -3.86,8.21 -3.86,14.2 0,18 12.62,39.82 28.18,48.8 4.72,2.73 9.17,4 13.08,3.84 l -0.16,2.17 7,-4 h 0.07 l 0.1,-0.06 c 4.99,-3.04 8.09,-9.32 8.09,-18.22 z"
           id="path1007" /><ellipse
           class="cls-27"
           transform="rotate(-30,169.7,40.072)"
           cx="169.7"
           cy="40.080002"
           rx="23.01"
           ry="39.849998"
           id="ellipse1009" /><path
           class="cls-28"
           d="m 185.8,39.15 a 11.52,11.52 0 0 1 -3.87,-1 3.5,3.5 0 0 0 3,-2.59 9.74,9.74 0 0 1 -4.27,-0.59 13.93,13.93 0 0 0 -4.92,-5.29 C 172,27.52 169,29.26 169,33.56 a 10,10 0 0 0 0.18,1.87 c -5.6,-3.55 -10.56,-9.52 -13.88,-16.14 a 5.77,5.77 0 0 0 -0.91,3.38 14.54,14.54 0 0 0 3,8.21 12.61,12.61 0 0 1 -3.05,-2.74 v 0.1 a 15.1,15.1 0 0 0 5.35,10.76 6.75,6.75 0 0 1 -1.77,-0.75 9.54,9.54 0 0 1 -1.27,-0.87 15.23,15.23 0 0 0 6.29,9 c -2.3,0.75 -5.21,0.32 -8.36,-1.51 -0.54,-0.31 -1.08,-0.66 -1.61,-1 a 35.75,35.75 0 0 0 10.33,9.45 c 12.38,7.16 19.16,-0.78 19.16,-11.06 v -1 a 6.47,6.47 0 0 0 3.36,-2.08 z"
           id="path1011" />
           </g>
           <g
           id="g1301">
           	<animateTransform attributeName="transform"
                type="rotate"
                values="0; 2; 0; -2; 0;"
                begin="0s" dur="2s"
                additive="sum"
                repeatCount="indefinite"
          	/>
           <path
             class="cls-29"
             d="M 369.26,86.43 328.7,63 a 5.49,5.49 0 0 0 -4.87,-0.72 h -0.06 a 3.64,3.64 0 0 0 -0.66,0.38 l -6.48,3.71 4.59,6.37 v 41.37 a 16.55,16.55 0 0 0 7.48,13 l 20,11.55 v -22.89 l -5.16,-3 a 2.69,2.69 0 0 1 -1.21,-2.11 v -7.39 c 0,-0.78 0.55,-1.1 1.22,-0.71 l 5.14,3 v -7.12 c 0,-8.28 4.38,-10.26 10.78,-6.57 l 5.25,3 a 2.69,2.69 0 0 1 1.22,2.13 v 6.22 c 0,0.78 -0.54,1.09 -1.21,0.7 l -3.22,-1.85 c -3.48,-2 -4.15,-0.49 -4.15,2.31 v 6.17 L 365,115 a 2.64,2.64 0 0 1 1.21,2.26 l -0.76,7 c -0.07,0.67 -0.59,0.9 -1.21,0.54 l -6.85,-4 v 22.88 l 8.34,4.82 1.47,6.8 7.33,-4.2 0.08,-0.05 h 0.06 c 1.3,-0.81 2.11,-2.45 2.11,-4.79 V 99.39 a 16.55,16.55 0 0 0 -7.52,-12.96 z"
             id="path1013" /><path
             class="cls-30"
             d="m 336.93,139.86 23.87,13.79 3.93,-46.59 -7.11,-11.67 -22.94,-13.57 -4.87,9.73 c 0,0 0.38,21.51 1,26 0.62,4.49 6.12,22.31 6.12,22.31 z"
             id="path1015" /><path
             class="cls-31"
             d="M 362.34,90.43 321.78,67 c -4.13,-2.39 -7.48,-0.45 -7.48,4.32 v 46.82 a 16.55,16.55 0 0 0 7.48,13 l 20,11.55 V 119.8 l -5.15,-3 a 2.7,2.7 0 0 1 -1.22,-2.11 v -7.39 c 0,-0.78 0.55,-1.1 1.22,-0.71 l 5.15,3 v -7.13 c 0,-8.28 4.37,-10.26 10.77,-6.57 l 5.25,3 A 2.7,2.7 0 0 1 359,101 v 6.22 c 0,0.78 -0.55,1.09 -1.22,0.7 l -3.22,-1.85 c -3.48,-2 -4.15,-0.49 -4.15,2.31 v 6.17 l 7.64,4.42 a 2.64,2.64 0 0 1 1.21,2.26 l -0.76,7 c -0.07,0.66 -0.59,0.9 -1.21,0.54 l -6.85,-3.95 v 22.88 l 11.9,6.87 c 4.13,2.39 7.48,0.45 7.48,-4.32 v -46.86 a 16.55,16.55 0 0 0 -7.48,-12.96 z"
             id="path1017" /></g><g
           id="g1309">
           	<animateTransform attributeName="transform"
                type="rotate"
                values="0; 2; 0; -2; 0;"
                begin="0.3s" dur="2.2s"
                additive="sum"
                repeatCount="indefinite"
          	/>
           <path
             class="cls-32"
             d="m 437.56,293 c 0,-20.72 -14.55,-45.91 -32.49,-56.28 -8.74,-5 -16.66,-5.63 -22.5,-2.52 l -0.18,0.11 a 11.5,11.5 0 0 0 -1,0.6 l -6.76,4 1.88,0.89 c -2.52,3.88 -3.95,9.16 -3.95,15.65 0,20.72 14.55,45.92 32.5,56.28 a 29.93,29.93 0 0 0 13.81,4.42 l 0.35,2.73 8.25,-4.56 c 6.22,-3.26 10.09,-10.66 10.09,-21.32 z"
             id="path1019" /><ellipse
             class="cls-30"
             transform="rotate(-30,397.41,278.15)"
             cx="397.38"
             cy="278.13"
             rx="22.379999"
             ry="38.759998"
             id="ellipse1021" /><path
             class="cls-33"
             d="m 397.65,286 c 3.58,2.07 6.49,0.39 6.49,-3.74 a 12.63,12.63 0 0 0 -1.22,-5.08 14,14 0 0 0 -5.26,-6.16 c -2.17,-1.25 -4.08,-1.12 -5.27,0.09 a 5.16,5.16 0 0 0 -1.22,3.66 14.33,14.33 0 0 0 6.48,11.23 z"
             id="path1023" /><polygon
             class="cls-33"
             points="411.82,277.54 411.82,271.26 411.82,270.32 411.01,269.86 405.57,266.74 405.59,273.97 "
             id="polygon1025" /><path
             class="cls-33"
             d="m 397.65,241.1 c -17.87,-10.32 -32.41,-1.92 -32.41,18.71 0,20.63 14.54,45.82 32.41,56.14 17.87,10.32 32.41,1.92 32.41,-18.71 0,-20.63 -14.53,-45.82 -32.41,-56.14 z m 18.44,43.7 v 17.42 c 0,4.54 -3.2,6.39 -7.13,4.12 l -22.61,-13.06 a 15.77,15.77 0 0 1 -7.13,-12.34 v -26.11 c 0,-4.54 3.2,-6.39 7.13,-4.12 L 409,263.77 a 15.77,15.77 0 0 1 7.13,12.34 z"
             id="path1027" /><path
             class="cls-33"
             d="m 407.74,284.34 c 0,6.42 -4.53,9 -10.09,5.83 -5.56,-3.17 -10.08,-11.05 -10.08,-17.47 a 9.85,9.85 0 0 1 0.74,-3.94 l -5.5,-3.17 V 283 a 7.81,7.81 0 0 0 3.53,6.12 L 409,302.19 c 2,1.12 3.53,0.21 3.53,-2 v -17.47 l -5.5,-3.17 a 17,17 0 0 1 0.71,4.79 z"
             id="path1029" /></g></g></g></g><metadata
     id="metadata491"><rdf:RDF><cc:Work
         rdf:about=""><dc:title>Social_media_adv_SVG</dc:title></cc:Work></rdf:RDF></metadata></svg>
